<?xml version="1.0" encoding="utf-8"?>
<!-- Generator: Adobe Illustrator 16.0.4, SVG Export Plug-In . SVG Version: 6.00 Build 0)  -->
<!DOCTYPE svg PUBLIC "-//W3C//DTD SVG 1.1//EN" "http://www.w3.org/Graphics/SVG/1.1/DTD/svg11.dtd">
<svg version="1.1" id="Layer_1" xmlns="http://www.w3.org/2000/svg" xmlns:xlink="http://www.w3.org/1999/xlink" x="0px" y="0px"
	 width="32px" height="32px" viewBox="0 0 32 32" enable-background="new 0 0 32 32" xml:space="preserve">
<g>
	<path d="M16,0C7.177,0,0,7.179,0,16c0,8.822,7.177,16,16,16c8.822,0,16-7.178,16-16C32,7.179,24.822,0,16,0z M16,29.814
		C8.383,29.814,2.186,23.617,2.186,16S8.383,2.187,16,2.187S29.813,8.383,29.813,16S23.617,29.814,16,29.814z"/>
	<path d="M23.911,13.807c0-0.245-0.199-0.444-0.444-0.444c-0.246,0-0.445,0.199-0.445,0.444c0,0.226-0.183,0.409-0.408,0.409
		c-0.227,0-0.409-0.184-0.409-0.409c0-0.154-0.032-0.302-0.082-0.439c0.307-0.237,0.508-0.605,0.508-1.022
		c0-0.06-0.012-0.114-0.033-0.166c0.006,0,0.011,0.001,0.017,0.001c0.715,0,1.298-0.582,1.298-1.297
		c0-0.246-0.199-0.445-0.444-0.445c-0.246,0-0.445,0.199-0.445,0.445c0,0.226-0.183,0.408-0.408,0.408
		c-0.227,0-0.409-0.183-0.409-0.408c0-0.716-0.582-1.298-1.298-1.298s-1.298,0.582-1.298,1.298c0,0.061-0.016,0.117-0.04,0.17
		c-0.211,0.009-0.408,0.07-0.582,0.17c-0.115-0.072-0.195-0.194-0.195-0.34c0-0.716-0.582-1.298-1.298-1.298
		s-1.298,0.582-1.298,1.298c0,0.061-0.016,0.117-0.04,0.17c-0.212,0.01-0.409,0.07-0.582,0.17c-0.115-0.072-0.195-0.194-0.195-0.34
		c0-0.716-0.582-1.298-1.299-1.298c-0.715,0-1.297,0.582-1.297,1.298c0,0.061-0.016,0.117-0.04,0.17
		c-0.212,0.009-0.409,0.07-0.583,0.17c-0.114-0.073-0.195-0.194-0.195-0.34c0-0.716-0.582-1.298-1.297-1.298
		c-0.716,0-1.299,0.582-1.299,1.298c0,0.059,0.013,0.114,0.034,0.166c-0.006,0-0.011-0.002-0.017-0.002
		c-0.715,0-1.297,0.582-1.297,1.298c0,0.245,0.198,0.444,0.444,0.444c0.245,0,0.444-0.199,0.444-0.444
		c0-0.226,0.183-0.409,0.408-0.409s0.409,0.184,0.409,0.409c0,0.154,0.032,0.302,0.082,0.439c-0.307,0.237-0.509,0.605-0.509,1.022
		c0,0.06,0.013,0.115,0.034,0.166c-0.006,0-0.011-0.001-0.017-0.001c-0.715,0-1.297,0.582-1.297,1.297
		c0,0.246,0.198,0.444,0.444,0.444c0.245,0,0.444-0.198,0.444-0.444c0-0.225,0.183-0.408,0.408-0.408s0.409,0.184,0.409,0.408
		c0,0.155,0.032,0.303,0.082,0.44c-0.307,0.237-0.509,0.605-0.509,1.022c0,0.059,0.013,0.114,0.034,0.166
		c-0.006,0-0.011-0.001-0.017-0.001c-0.715,0-1.297,0.581-1.297,1.297c0,0.246,0.198,0.444,0.444,0.444
		c0.245,0,0.444-0.198,0.444-0.444c0-0.226,0.183-0.408,0.408-0.408s0.409,0.183,0.409,0.408c0,0.155,0.032,0.302,0.082,0.439
		c-0.307,0.238-0.509,0.605-0.509,1.022c0,0.06,0.013,0.115,0.034,0.167c-0.006,0-0.011-0.002-0.017-0.002
		c-0.715,0-1.297,0.582-1.297,1.298c0,0.245,0.198,0.444,0.444,0.444c0.245,0,0.444-0.199,0.444-0.444
		c0-0.226,0.183-0.409,0.408-0.409s0.409,0.184,0.409,0.409c0,0.716,0.582,1.298,1.298,1.298s1.298-0.582,1.298-1.298
		c0-0.062,0.016-0.118,0.04-0.17c0.211-0.01,0.408-0.07,0.582-0.17c0.115,0.072,0.195,0.194,0.195,0.34
		c0,0.716,0.583,1.298,1.298,1.298c0.716,0,1.298-0.582,1.298-1.298c0-0.062,0.016-0.118,0.04-0.17
		c0.212-0.01,0.409-0.07,0.582-0.17c0.115,0.072,0.195,0.194,0.195,0.34c0,0.716,0.583,1.298,1.298,1.298
		c0.716,0,1.298-0.582,1.298-1.298c0-0.062,0.016-0.118,0.04-0.17c0.212-0.01,0.409-0.07,0.582-0.17
		c0.115,0.072,0.196,0.194,0.196,0.34c0,0.716,0.582,1.298,1.297,1.298c0.716,0,1.298-0.582,1.298-1.298
		c0-0.059-0.012-0.114-0.033-0.166c0.006,0,0.011,0.002,0.017,0.002c0.715,0,1.298-0.583,1.298-1.299
		c0-0.245-0.199-0.444-0.444-0.444c-0.246,0-0.445,0.199-0.445,0.444c0,0.227-0.183,0.409-0.408,0.409
		c-0.227,0-0.409-0.183-0.409-0.409c0-0.154-0.032-0.302-0.082-0.439c0.307-0.237,0.508-0.605,0.508-1.022
		c0-0.059-0.012-0.114-0.033-0.166c0.006,0,0.011,0.002,0.017,0.002c0.715,0,1.298-0.582,1.298-1.298
		c0-0.245-0.199-0.444-0.444-0.444c-0.246,0-0.445,0.199-0.445,0.444c0,0.226-0.183,0.409-0.408,0.409
		c-0.227,0-0.409-0.184-0.409-0.409c0-0.155-0.032-0.302-0.082-0.439c0.307-0.237,0.508-0.605,0.508-1.023
		c0-0.059-0.012-0.114-0.033-0.166c0.006,0,0.011,0.002,0.017,0.002C23.328,15.104,23.911,14.522,23.911,13.807z M19.839,12.005
		c0.115,0.072,0.196,0.194,0.196,0.34c0,0.154,0.031,0.302,0.082,0.439c-0.307,0.237-0.509,0.605-0.509,1.022
		c0,0.062-0.016,0.118-0.04,0.171c-0.211,0.009-0.408,0.07-0.582,0.169c-0.115-0.072-0.195-0.194-0.195-0.34
		c0-0.154-0.032-0.302-0.082-0.439c0.307-0.237,0.508-0.605,0.508-1.022c0-0.062,0.016-0.118,0.04-0.17
		C19.469,12.165,19.666,12.104,19.839,12.005z M20.035,15.269c0,0.155,0.031,0.303,0.082,0.44c-0.307,0.237-0.509,0.605-0.509,1.022
		c0,0.062-0.016,0.118-0.04,0.17c-0.211,0.01-0.408,0.07-0.582,0.17c-0.115-0.072-0.195-0.194-0.195-0.34
		c0-0.155-0.032-0.302-0.082-0.439c0.307-0.237,0.508-0.605,0.508-1.023c0-0.061,0.016-0.118,0.04-0.17
		c0.212-0.009,0.409-0.07,0.582-0.169C19.954,15.002,20.035,15.124,20.035,15.269z M11.964,16.731c0-0.155-0.031-0.302-0.081-0.439
		c0.307-0.237,0.508-0.605,0.508-1.023c0-0.061,0.016-0.118,0.04-0.17c0.211-0.009,0.408-0.07,0.582-0.169
		c0.115,0.072,0.195,0.194,0.195,0.339c0,0.155,0.032,0.303,0.082,0.439c-0.307,0.238-0.508,0.606-0.508,1.023
		c0,0.062-0.016,0.118-0.04,0.17c-0.212,0.01-0.409,0.07-0.583,0.17C12.045,16.999,11.964,16.877,11.964,16.731z M15.378,16.731
		c0-0.155-0.032-0.302-0.082-0.439c0.307-0.237,0.508-0.605,0.508-1.023c0-0.061,0.016-0.118,0.04-0.17
		c0.212-0.009,0.409-0.07,0.582-0.169c0.115,0.072,0.195,0.194,0.195,0.339c0,0.155,0.032,0.303,0.082,0.439
		c-0.307,0.238-0.508,0.606-0.508,1.023c0,0.062-0.016,0.118-0.04,0.17c-0.212,0.01-0.409,0.07-0.582,0.17
		C15.458,16.999,15.378,16.877,15.378,16.731z M17.901,13.807c0,0.417,0.202,0.785,0.509,1.022c-0.05,0.139-0.082,0.285-0.082,0.439
		c0,0.146-0.08,0.269-0.195,0.341c-0.174-0.1-0.371-0.16-0.582-0.17c-0.024-0.052-0.04-0.109-0.04-0.171
		c0-0.417-0.202-0.784-0.509-1.022c0.051-0.138,0.082-0.284,0.082-0.439c0-0.146,0.081-0.268,0.195-0.34
		c0.174,0.1,0.371,0.16,0.583,0.17C17.886,13.688,17.901,13.746,17.901,13.807z M14.488,13.807c0,0.417,0.202,0.785,0.509,1.023
		c-0.05,0.138-0.082,0.284-0.082,0.438c0,0.146-0.081,0.269-0.195,0.341c-0.174-0.1-0.371-0.16-0.583-0.17
		c-0.023-0.052-0.039-0.109-0.039-0.171c0-0.417-0.202-0.784-0.509-1.021c0.051-0.139,0.082-0.285,0.082-0.44
		c0-0.146,0.081-0.268,0.195-0.34c0.174,0.1,0.371,0.16,0.583,0.17C14.473,13.688,14.488,13.746,14.488,13.807z M14.098,18.193
		c0-0.417-0.202-0.785-0.509-1.022c0.051-0.138,0.082-0.284,0.082-0.439c0-0.146,0.081-0.268,0.195-0.34
		c0.174,0.1,0.371,0.16,0.583,0.17c0.023,0.052,0.039,0.108,0.039,0.17c0,0.417,0.202,0.785,0.509,1.022
		c-0.05,0.138-0.082,0.285-0.082,0.439c0,0.146-0.081,0.268-0.195,0.34c-0.174-0.099-0.371-0.16-0.583-0.169
		C14.113,18.312,14.098,18.255,14.098,18.193z M17.511,18.193c0-0.417-0.202-0.785-0.509-1.022c0.051-0.138,0.082-0.284,0.082-0.439
		c0-0.146,0.081-0.268,0.195-0.34c0.174,0.1,0.371,0.16,0.583,0.17c0.023,0.052,0.039,0.108,0.039,0.17
		c0,0.417,0.202,0.785,0.509,1.022c-0.05,0.138-0.082,0.284-0.082,0.439c0,0.146-0.08,0.268-0.195,0.34
		c-0.174-0.099-0.371-0.16-0.582-0.169C17.526,18.312,17.511,18.255,17.511,18.193z M16.426,12.005
		c0.115,0.072,0.195,0.194,0.195,0.34c0,0.154,0.032,0.302,0.082,0.439c-0.307,0.237-0.508,0.605-0.508,1.022
		c0,0.062-0.016,0.118-0.04,0.171c-0.212,0.009-0.409,0.07-0.582,0.169c-0.115-0.072-0.195-0.194-0.195-0.34
		c0-0.154-0.032-0.302-0.082-0.439c0.307-0.237,0.508-0.605,0.508-1.022c0-0.062,0.016-0.118,0.04-0.17
		C16.056,12.165,16.253,12.104,16.426,12.005z M13.013,12.005c0.115,0.072,0.195,0.194,0.195,0.34c0,0.154,0.032,0.302,0.082,0.439
		c-0.307,0.237-0.508,0.605-0.508,1.022c0,0.062-0.016,0.118-0.04,0.171c-0.212,0.009-0.409,0.07-0.583,0.169
		c-0.114-0.072-0.195-0.194-0.195-0.34c0-0.154-0.031-0.302-0.081-0.439c0.307-0.237,0.508-0.605,0.508-1.022
		c0-0.062,0.016-0.118,0.04-0.17C12.642,12.165,12.839,12.104,13.013,12.005z M12.16,19.996c-0.115-0.072-0.196-0.194-0.196-0.341
		c0-0.154-0.031-0.302-0.081-0.439c0.307-0.237,0.508-0.605,0.508-1.022c0-0.062,0.016-0.118,0.04-0.17
		c0.211-0.01,0.408-0.07,0.582-0.17c0.115,0.072,0.195,0.194,0.195,0.34c0,0.155,0.032,0.302,0.082,0.439
		c-0.307,0.238-0.508,0.605-0.508,1.022c0,0.062-0.016,0.118-0.04,0.171C12.53,19.836,12.334,19.896,12.16,19.996z M15.573,19.996
		c-0.115-0.072-0.195-0.194-0.195-0.341c0-0.154-0.032-0.301-0.082-0.439c0.307-0.237,0.508-0.604,0.508-1.022
		c0-0.062,0.016-0.118,0.04-0.17c0.212-0.01,0.409-0.07,0.582-0.17c0.115,0.072,0.195,0.194,0.195,0.34
		c0,0.155,0.032,0.302,0.082,0.439c-0.307,0.238-0.508,0.605-0.508,1.022c0,0.062-0.016,0.118-0.04,0.171
		C15.943,19.836,15.747,19.896,15.573,19.996z M18.986,19.996c-0.115-0.072-0.195-0.194-0.195-0.341
		c0-0.154-0.032-0.301-0.082-0.439c0.307-0.237,0.508-0.604,0.508-1.022c0-0.062,0.016-0.118,0.04-0.17
		c0.212-0.01,0.409-0.07,0.582-0.17c0.115,0.072,0.196,0.194,0.196,0.34c0,0.155,0.031,0.302,0.082,0.44
		c-0.307,0.237-0.509,0.604-0.509,1.021c0,0.062-0.016,0.118-0.04,0.171C19.357,19.836,19.16,19.896,18.986,19.996z M20.906,10.474
		c0.226,0,0.409,0.184,0.409,0.409c0,0.468,0.251,0.874,0.622,1.103c-0.115,0.08-0.196,0.208-0.196,0.359
		c0,0.146-0.08,0.268-0.195,0.34c-0.174-0.1-0.37-0.16-0.582-0.17c-0.024-0.052-0.04-0.109-0.04-0.17
		c0-0.417-0.201-0.785-0.508-1.022c0.05-0.138,0.082-0.285,0.082-0.439C20.498,10.657,20.681,10.474,20.906,10.474z M17.493,10.474
		c0.226,0,0.408,0.184,0.408,0.409c0,0.417,0.202,0.785,0.509,1.022c-0.05,0.138-0.082,0.284-0.082,0.439
		c0,0.146-0.08,0.268-0.195,0.34c-0.174-0.1-0.371-0.16-0.582-0.17c-0.024-0.052-0.04-0.109-0.04-0.17
		c0-0.418-0.202-0.785-0.509-1.022c0.051-0.139,0.082-0.285,0.082-0.439C17.084,10.657,17.268,10.474,17.493,10.474z M14.079,10.474
		c0.227,0,0.409,0.184,0.409,0.409c0,0.417,0.202,0.785,0.509,1.022c-0.05,0.138-0.082,0.284-0.082,0.439
		c0,0.146-0.081,0.268-0.195,0.34c-0.174-0.1-0.371-0.16-0.583-0.17c-0.023-0.052-0.039-0.109-0.039-0.17
		c0-0.417-0.202-0.785-0.509-1.022c0.051-0.138,0.082-0.285,0.082-0.439C13.671,10.657,13.854,10.474,14.079,10.474z M10.258,10.883
		c0-0.226,0.184-0.409,0.409-0.409c0.225,0,0.408,0.184,0.408,0.409c0,0.417,0.201,0.785,0.509,1.022
		c-0.051,0.138-0.082,0.284-0.082,0.439c0,0.146-0.081,0.268-0.196,0.34c-0.173-0.1-0.37-0.16-0.582-0.17
		c-0.024-0.052-0.04-0.109-0.04-0.17c0-0.468-0.251-0.875-0.623-1.104C10.177,11.161,10.258,11.034,10.258,10.883z M10.258,13.807
		c0-0.146,0.08-0.268,0.195-0.34c0.174,0.1,0.371,0.16,0.582,0.17c0.024,0.053,0.04,0.109,0.04,0.17
		c0,0.417,0.201,0.785,0.509,1.022c-0.051,0.139-0.082,0.285-0.082,0.439c0,0.146-0.081,0.268-0.196,0.341
		c-0.173-0.1-0.37-0.16-0.582-0.17c-0.024-0.053-0.04-0.109-0.04-0.171c0-0.467-0.251-0.874-0.623-1.103
		C10.177,14.086,10.258,13.958,10.258,13.807z M10.258,16.731c0-0.146,0.08-0.268,0.195-0.34c0.174,0.1,0.371,0.16,0.582,0.17
		c0.024,0.052,0.04,0.108,0.04,0.17c0,0.417,0.201,0.785,0.509,1.022c-0.051,0.138-0.082,0.284-0.082,0.439
		c0,0.146-0.081,0.268-0.196,0.34c-0.173-0.099-0.37-0.16-0.582-0.169c-0.024-0.053-0.04-0.109-0.04-0.171
		c0-0.468-0.251-0.874-0.623-1.103C10.177,17.01,10.258,16.883,10.258,16.731z M11.093,21.527c-0.226,0-0.409-0.184-0.409-0.409
		c0-0.468-0.251-0.875-0.623-1.104c0.116-0.08,0.197-0.207,0.197-0.359c0-0.146,0.08-0.267,0.195-0.34
		c0.174,0.1,0.371,0.161,0.582,0.17c0.024,0.053,0.04,0.109,0.04,0.17c0,0.418,0.201,0.785,0.509,1.023
		c-0.051,0.138-0.082,0.284-0.082,0.439C11.502,21.344,11.318,21.527,11.093,21.527z M14.506,21.527
		c-0.226,0-0.408-0.184-0.408-0.409c0-0.417-0.202-0.785-0.509-1.022c0.051-0.138,0.082-0.285,0.082-0.44
		c0-0.146,0.081-0.267,0.195-0.34c0.174,0.1,0.371,0.16,0.583,0.17c0.023,0.053,0.039,0.109,0.039,0.17
		c0,0.418,0.202,0.786,0.509,1.023c-0.05,0.138-0.082,0.284-0.082,0.439C14.915,21.344,14.731,21.527,14.506,21.527z M17.919,21.527
		c-0.226,0-0.408-0.184-0.408-0.409c0-0.417-0.202-0.785-0.509-1.022c0.051-0.139,0.082-0.285,0.082-0.44
		c0-0.146,0.081-0.267,0.195-0.34c0.174,0.1,0.371,0.16,0.583,0.17c0.023,0.053,0.039,0.109,0.039,0.17
		c0,0.418,0.202,0.785,0.509,1.023c-0.05,0.138-0.082,0.284-0.082,0.439C18.328,21.344,18.145,21.527,17.919,21.527z M21.741,21.118
		c0,0.226-0.184,0.409-0.409,0.409c-0.225,0-0.408-0.184-0.408-0.409c0-0.417-0.201-0.785-0.508-1.022
		c0.05-0.138,0.082-0.285,0.082-0.44c0-0.146,0.08-0.267,0.194-0.34c0.175,0.1,0.371,0.161,0.583,0.17
		c0.024,0.053,0.04,0.109,0.04,0.17c0,0.468,0.251,0.875,0.623,1.104C21.822,20.839,21.741,20.967,21.741,21.118z M21.741,18.193
		c0,0.146-0.08,0.268-0.195,0.34c-0.174-0.099-0.37-0.16-0.582-0.169c-0.024-0.053-0.04-0.109-0.04-0.171
		c0-0.417-0.201-0.785-0.508-1.022c0.05-0.138,0.082-0.284,0.082-0.439c0-0.146,0.08-0.268,0.194-0.34
		c0.175,0.1,0.371,0.16,0.583,0.17c0.024,0.052,0.04,0.108,0.04,0.17c0,0.468,0.251,0.875,0.622,1.104
		C21.822,17.915,21.741,18.042,21.741,18.193z M21.741,15.269c0,0.146-0.08,0.268-0.195,0.341c-0.174-0.1-0.37-0.16-0.582-0.17
		c-0.024-0.053-0.04-0.109-0.04-0.171c0-0.417-0.201-0.784-0.508-1.021c0.05-0.139,0.082-0.285,0.082-0.44
		c0-0.146,0.08-0.268,0.194-0.34c0.175,0.1,0.371,0.16,0.583,0.17c0.024,0.053,0.04,0.109,0.04,0.17
		c0,0.468,0.251,0.875,0.622,1.104C21.822,14.99,21.741,15.117,21.741,15.269z"/>
</g>
</svg>
