<?xml version="1.0" encoding="utf-8"?>
<!-- Generator: Adobe Illustrator 15.1.0, SVG Export Plug-In . SVG Version: 6.00 Build 0)  -->
<!DOCTYPE svg PUBLIC "-//W3C//DTD SVG 1.1//EN" "http://www.w3.org/Graphics/SVG/1.1/DTD/svg11.dtd">
<svg version="1.1" id="Layer_1" xmlns="http://www.w3.org/2000/svg" xmlns:xlink="http://www.w3.org/1999/xlink" x="0px" y="0px"
	 width="32px" height="32px" viewBox="0 0 32 32" enable-background="new 0 0 32 32" xml:space="preserve">
<g>
	<path d="M15.468,9.369h1.063c0.189,0,0.344-0.154,0.344-0.344V2.786c0-0.188-0.154-0.345-0.344-0.345h-1.063
		c-0.188,0-0.344,0.156-0.344,0.345v6.239C15.124,9.215,15.279,9.369,15.468,9.369z"/>
	<path d="M31.898,6.398l-0.752-0.75c-0.135-0.135-0.354-0.135-0.486,0l-4.41,4.41c-0.135,0.135-0.135,0.353,0,0.486l0.752,0.752
		c0.134,0.135,0.354,0.135,0.486,0l4.41-4.411C32.033,6.751,32.033,6.535,31.898,6.398z"/>
	<path d="M4.998,11.298l0.751-0.752c0.135-0.135,0.135-0.353,0-0.485l-4.41-4.412c-0.135-0.133-0.353-0.133-0.485,0L0.102,6.4
		c-0.135,0.135-0.135,0.353,0,0.486l4.41,4.411C4.646,11.432,4.863,11.432,4.998,11.298z"/>
	<path d="M25.348,17.672c-0.358,0-0.721,0.034-1.076,0.1c-1.016-3.406-1.545-5.183-1.621-5.43c-0.354-1.146-1.154-1.318-1.602-1.318
		h-2.156c-0.384,0-0.694,0.312-0.694,0.693c0,0.383,0.312,0.694,0.694,0.694h2.156c0.071,0,0.169,0,0.273,0.338
		c0.033,0.115,0.182,0.603,0.457,1.522h-9.772l-0.333-0.992l2.196-0.063c0.157-0.003,0.303-0.071,0.409-0.185
		c0.107-0.115,0.166-0.264,0.16-0.42c-0.01-0.305-0.244-0.549-0.549-0.569l-4.271-0.276c-0.018,0-0.034,0-0.053,0
		c-0.412,0-0.758,0.323-0.784,0.736c-0.015,0.211,0.056,0.413,0.194,0.571c0.14,0.157,0.332,0.253,0.541,0.267
		c0.015,0.001,0.032,0.001,0.049,0.001h0.022l0.632-0.018l0.463,1.372L9.023,18c-0.627-0.219-1.279-0.328-1.943-0.328
		c-3.277,0-5.943,2.665-5.943,5.943c0,3.277,2.666,5.943,5.943,5.943c2.816,0,5.227-1.965,5.811-4.699h1.697
		c0.004,0,0.008,0,0.012,0s0.01,0,0.012,0h0.513c0.192,0,0.376-0.078,0.506-0.217l7.017-7.451l0.295,0.99
		c-2.156,0.954-3.539,3.063-3.539,5.434c0,3.277,2.668,5.943,5.943,5.943c3.278,0,5.944-2.666,5.944-5.943
		C31.291,20.337,28.625,17.672,25.348,17.672z M7.081,28.17c-2.513,0-4.554-2.043-4.554-4.555s2.043-4.555,4.554-4.555
		c0.448,0,0.888,0.064,1.313,0.192L6.109,23.8c-0.068,0.11-0.104,0.235-0.104,0.366c0,0.382,0.312,0.691,0.694,0.691h4.763
		C10.912,26.795,9.116,28.17,7.081,28.17z M7.829,23.471l1.817-3.615c1.193,0.817,1.939,2.172,1.986,3.615H7.829z M13.023,23.471
		c-0.049-1.966-1.086-3.801-2.75-4.865l1.035-2.054l2.325,6.919H13.023L13.023,23.471z M15.027,23.256l-2.553-7.594h9.598
		l0.021,0.095L15.027,23.256z M25.348,28.17c-2.512,0-4.554-2.043-4.554-4.555c0-1.748,0.991-3.324,2.549-4.09
		c0.662,2.218,1.263,4.238,1.277,4.285c0.087,0.295,0.36,0.498,0.665,0.498c0.064,0,0.133-0.01,0.197-0.027
		c0.367-0.11,0.576-0.497,0.467-0.864l-0.217-0.729l-1.062-3.574c0.225-0.035,0.451-0.053,0.678-0.053
		c2.512,0,4.555,2.043,4.555,4.556C29.902,26.128,27.857,28.17,25.348,28.17z"/>
</g>
</svg>
