<?xml version="1.0" encoding="utf-8"?>
<!-- Generator: Adobe Illustrator 15.1.0, SVG Export Plug-In . SVG Version: 6.00 Build 0)  -->
<!DOCTYPE svg PUBLIC "-//W3C//DTD SVG 1.1//EN" "http://www.w3.org/Graphics/SVG/1.1/DTD/svg11.dtd">
<svg version="1.1" id="Layer_1" xmlns="http://www.w3.org/2000/svg" xmlns:xlink="http://www.w3.org/1999/xlink" x="0px" y="0px"
	 width="32px" height="32px" viewBox="0 0 32 32" enable-background="new 0 0 32 32" xml:space="preserve">
<g>
	<path d="M16,6.858c1.062,0,1.896-1.231,1.896-2.803c0-1.311-1.139-3.354-1.363-3.75c-0.232-0.408-0.833-0.406-1.062,0
		c-0.229,0.396-1.365,2.438-1.365,3.75C14.104,5.626,14.938,6.858,16,6.858z M16,1.231c0.448,0.854,0.984,2.082,0.984,2.824
		c0,1.082-0.521,1.894-0.984,1.894s-0.984-0.81-0.984-1.894C15.016,3.317,15.564,2.067,16,1.231z"/>
	<path d="M26.818,19.418c-0.926-4.158-4.485-7.271-8.93-7.969V7.85c0-0.334-0.271-0.606-0.604-0.606h-2.567
		c-0.334,0-0.605,0.272-0.605,0.606v3.6c-4.707,0.723-8.625,4.07-9.441,8.271c-0.717,0.526-1.146,1.362-1.146,2.271
		c0,1.557,1.268,2.823,2.826,2.823c0.301,0,0.596-0.051,0.877-0.144l0.734,5.263C7.991,31.078,8.93,32,10.081,32h11.827
		c1.15,0,2.092-0.922,2.123-2.066l0.734-5.267c0.283,0.095,0.582,0.147,0.887,0.147c1.559,0,2.824-1.267,2.824-2.823
		C28.479,20.857,27.818,19.865,26.818,19.418z M15.323,8.458h1.354v2.87C16.453,11.315,16.229,11.3,16,11.3
		s-0.452,0.015-0.677,0.028V8.458z M22.521,29.771l-0.008,0.105c0,0.334-0.271,0.605-0.605,0.605H10.081
		c-0.334,0-0.606-0.271-0.606-0.605l-0.721-5.193c0.811,0.229,1.727,0.106,2.419-0.373c0.935,0.647,2.283,0.647,3.22-0.002
		c0.935,0.649,2.282,0.649,3.217,0c0.936,0.649,2.283,0.65,3.219,0c0.688,0.479,1.602,0.603,2.408,0.375L22.521,29.771z
		 M25.652,23.146c-0.373,0-0.711-0.174-0.934-0.479c-0.156-0.216-0.408-0.344-0.675-0.344s-0.519,0.128-0.675,0.344
		c-0.441,0.607-1.426,0.607-1.868,0c-0.312-0.434-1.036-0.434-1.351,0c-0.441,0.607-1.426,0.607-1.868,0
		c-0.155-0.216-0.407-0.344-0.675-0.344c-0.267,0-0.519,0.128-0.674,0.344c-0.441,0.607-1.427,0.607-1.869,0
		c-0.312-0.434-1.035-0.434-1.349,0c-0.442,0.607-1.428,0.607-1.868,0c-0.158-0.216-0.408-0.344-0.676-0.344c0,0,0,0-0.001,0
		c-0.267,0-0.519,0.128-0.674,0.344c-0.44,0.607-1.427,0.607-1.868,0c-0.156-0.216-0.406-0.344-0.675-0.344l0,0
		c-0.269,0-0.519,0.128-0.675,0.344c-0.221,0.305-0.562,0.479-0.934,0.479c-0.639,0-1.156-0.52-1.156-1.155
		c0-0.433,0.237-0.825,0.623-1.025c0.236-0.124,0.399-0.354,0.438-0.618c0.608-4.137,4.892-7.378,9.746-7.378
		c4.664,0,8.563,3.037,9.271,7.222c0.059,0.332,0.31,0.6,0.639,0.674c0.523,0.117,0.9,0.592,0.9,1.127
		C26.811,22.628,26.291,23.146,25.652,23.146z"/>
	<path d="M12.963,15.143c-0.081-0.191-0.3-0.281-0.49-0.201l-1.705,0.713c-0.189,0.08-0.279,0.301-0.199,0.492l0.031,0.078
		c0.08,0.19,0.301,0.28,0.491,0.2l1.703-0.715c0.19-0.08,0.281-0.3,0.201-0.491L12.963,15.143z"/>
	<path d="M9.71,18.955c-0.168-0.12-0.401-0.084-0.522,0.085l-0.049,0.067c-0.121,0.168-0.084,0.401,0.084,0.523l1.496,1.083
		c0.168,0.12,0.402,0.084,0.523-0.085l0.05-0.068c0.121-0.168,0.084-0.401-0.085-0.523L9.71,18.955z"/>
	<path d="M22.951,19.805l-1.706-0.711c-0.19-0.08-0.412,0.012-0.491,0.202l-0.031,0.077c-0.08,0.191,0.012,0.411,0.202,0.491
		l1.704,0.709c0.191,0.079,0.411-0.011,0.49-0.202l0.033-0.076C23.232,20.104,23.143,19.884,22.951,19.805z"/>
	<path d="M17.926,15.18l0.006-0.084c0.012-0.207-0.146-0.385-0.354-0.395l-1.845-0.1c-0.207-0.01-0.385,0.149-0.396,0.355
		l-0.003,0.083c-0.012,0.208,0.146,0.384,0.354,0.396l1.846,0.098C17.74,15.544,17.916,15.386,17.926,15.18z"/>
	<path d="M20.273,15.625l-0.08-0.02c-0.202-0.051-0.405,0.069-0.455,0.271l-0.454,1.791c-0.052,0.2,0.069,0.403,0.271,0.453
		l0.081,0.022c0.201,0.049,0.405-0.07,0.456-0.272l0.453-1.79C20.598,15.88,20.477,15.676,20.273,15.625z"/>
	<path d="M14.742,18.662l-0.077-0.033c-0.188-0.085-0.41,0.001-0.495,0.191l-0.748,1.688c-0.083,0.189,0.004,0.412,0.192,0.496
		l0.075,0.032c0.19,0.085,0.412,0,0.496-0.19l0.746-1.688C15.018,18.968,14.932,18.747,14.742,18.662z"/>
	<path d="M17.202,17.464c-0.117-0.172-0.351-0.214-0.521-0.098l-0.07,0.049c-0.172,0.116-0.215,0.351-0.096,0.521l1.045,1.523
		c0.117,0.17,0.353,0.213,0.521,0.098l0.068-0.05c0.17-0.116,0.215-0.35,0.097-0.521L17.202,17.464z"/>
</g>
</svg>
