<?xml version="1.0" encoding="utf-8"?>
<!-- Generator: Adobe Illustrator 15.1.0, SVG Export Plug-In . SVG Version: 6.00 Build 0)  -->
<!DOCTYPE svg PUBLIC "-//W3C//DTD SVG 1.1//EN" "http://www.w3.org/Graphics/SVG/1.1/DTD/svg11.dtd">
<svg version="1.1" id="Layer_1" xmlns="http://www.w3.org/2000/svg" xmlns:xlink="http://www.w3.org/1999/xlink" x="0px" y="0px"
	 width="32px" height="32px" viewBox="0 0 32 32" enable-background="new 0 0 32 32" xml:space="preserve">
<g>
	<path d="M16,0C7.177,0,0,7.178,0,16s7.177,16,16,16c8.823,0,16-7.178,16-16S24.823,0,16,0z M16,29.813
		C8.383,29.813,2.186,23.616,2.186,16C2.186,8.383,8.383,2.187,16,2.187c7.617,0,13.813,6.196,13.813,13.813
		C29.813,23.616,23.617,29.813,16,29.813z"/>
	<path d="M24.353,9.701c-0.122-0.094-0.281-0.125-0.43-0.085L16,11.738L8.077,9.615c-0.148-0.04-0.308-0.008-0.43,0.085
		c-0.122,0.094-0.194,0.239-0.194,0.393v13.038c0,0.224,0.151,0.42,0.368,0.479l8.051,2.157c0.042,0.012,0.085,0.018,0.128,0.018
		s0.086-0.006,0.128-0.018l8.052-2.157c0.217-0.059,0.367-0.255,0.367-0.479V10.094C24.547,9.939,24.475,9.794,24.353,9.701z
		 M8.445,10.74l7.06,1.892v12.011l-7.06-1.892V10.74z M23.556,22.751l-7.06,1.892V12.631l7.06-1.892V22.751z"/>
	<path d="M15.699,10.632h0.603c0.107,0,0.194-0.087,0.194-0.195V6.906c0-0.107-0.087-0.195-0.194-0.195h-0.603
		c-0.107,0-0.194,0.088-0.194,0.195v3.531C15.504,10.544,15.592,10.632,15.699,10.632z"/>
	<path d="M18.094,10.271c0.076,0.076,0.199,0.076,0.275,0l2.497-2.497c0.076-0.076,0.076-0.199,0-0.275L20.44,7.073
		c-0.076-0.076-0.199-0.076-0.275,0l-2.497,2.497c-0.076,0.076-0.076,0.199,0,0.276L18.094,10.271z"/>
	<path d="M13.631,10.271c0.076,0.076,0.199,0.076,0.275,0l0.425-0.425c0.076-0.077,0.076-0.2,0-0.276l-2.497-2.497
		c-0.076-0.076-0.2-0.076-0.275,0l-0.426,0.425c-0.076,0.076-0.076,0.2,0,0.275L13.631,10.271z"/>
</g>
</svg>
