<?xml version="1.0" encoding="utf-8"?>
<!-- Generator: Adobe Illustrator 15.1.0, SVG Export Plug-In . SVG Version: 6.00 Build 0)  -->
<!DOCTYPE svg PUBLIC "-//W3C//DTD SVG 1.1//EN" "http://www.w3.org/Graphics/SVG/1.1/DTD/svg11.dtd">
<svg version="1.1" id="Layer_1" xmlns="http://www.w3.org/2000/svg" xmlns:xlink="http://www.w3.org/1999/xlink" x="0px" y="0px"
	 width="32px" height="32px" viewBox="0 0 32 32" enable-background="new 0 0 32 32" xml:space="preserve">
<path d="M30.014,5.016c-0.207-0.156-0.473-0.211-0.721-0.144L16,8.434L2.708,4.872C2.459,4.805,2.192,4.857,1.987,5.016
	c-0.204,0.157-0.325,0.401-0.325,0.66v21.872c0,0.376,0.253,0.706,0.616,0.804l13.507,3.619C15.856,31.989,15.928,32,16,32
	s0.145-0.011,0.215-0.029l13.507-3.619c0.363-0.098,0.615-0.428,0.615-0.804V5.676C30.338,5.417,30.219,5.173,30.014,5.016z
	 M3.326,6.76l11.844,3.174v20.15L3.326,26.911V6.76z M28.676,26.91l-11.844,3.174V9.934L28.676,6.76V26.91z"/>
<path d="M15.496,6.578h1.01c0.18,0,0.326-0.146,0.326-0.327V0.326c0-0.18-0.146-0.326-0.326-0.326h-1.01
	c-0.181,0-0.326,0.146-0.326,0.326v5.925C15.168,6.432,15.315,6.578,15.496,6.578z"/>
<path d="M19.514,5.973c0.127,0.127,0.334,0.127,0.461,0l4.189-4.189c0.127-0.127,0.127-0.334,0-0.461l-0.715-0.715
	c-0.129-0.127-0.334-0.127-0.463,0l-4.188,4.188c-0.127,0.127-0.127,0.334,0,0.462L19.514,5.973z"/>
<path d="M12.026,5.973c0.127,0.127,0.336,0.127,0.463,0l0.713-0.715c0.128-0.128,0.128-0.335,0-0.462L9.014,0.607
	c-0.129-0.127-0.336-0.127-0.463,0L7.837,1.322c-0.128,0.127-0.128,0.334,0,0.461L12.026,5.973z"/>
</svg>
