<?xml version="1.0" encoding="utf-8"?>
<!-- Generator: Adobe Illustrator 15.1.0, SVG Export Plug-In . SVG Version: 6.00 Build 0)  -->
<!DOCTYPE svg PUBLIC "-//W3C//DTD SVG 1.1//EN" "http://www.w3.org/Graphics/SVG/1.1/DTD/svg11.dtd">
<svg version="1.1" id="Layer_1" xmlns="http://www.w3.org/2000/svg" xmlns:xlink="http://www.w3.org/1999/xlink" x="0px" y="0px"
	 width="32px" height="32px" viewBox="0 0 32 32" enable-background="new 0 0 32 32" xml:space="preserve">
<g>
	<path d="M16,0C7.177,0,0,7.178,0,16c0,8.824,7.177,16,16,16c8.824,0,16-7.176,16-16C32,7.178,24.823,0,16,0z M16,29.814
		C8.383,29.814,2.186,23.617,2.186,16C2.186,8.383,8.383,2.186,16,2.186c7.618,0,13.814,6.197,13.814,13.814
		C29.813,23.617,23.617,29.814,16,29.814z"/>
	<path d="M22.611,11.569h-2.181V9.388c0-0.516-0.42-0.935-0.937-0.935H9.388c-0.517,0-0.936,0.419-0.936,0.935v10.107
		c0,0.517,0.419,0.936,0.936,0.936h2.181v2.182c0,0.516,0.42,0.936,0.937,0.936h10.106c0.517,0,0.937-0.42,0.937-0.936V12.506
		C23.548,11.989,23.128,11.569,22.611,11.569z M11.569,12.506v7.176H9.388c-0.104,0-0.188-0.084-0.188-0.187V9.388
		c0-0.104,0.084-0.188,0.188-0.188h10.106c0.104,0,0.188,0.084,0.188,0.188v2.181h-7.176C11.989,11.569,11.569,11.989,11.569,12.506
		z M18.689,15.085c0,0.414-0.17,0.788-0.443,1.057l-2.31,2.653l-2.317-2.651c-0.274-0.27-0.445-0.644-0.445-1.059
		c0-0.818,0.664-1.483,1.483-1.483c0.543,0,1.016,0.293,1.274,0.728c0.258-0.435,0.731-0.728,1.274-0.728
		C18.025,13.603,18.689,14.267,18.689,15.085z M22.8,22.612c0,0.104-0.085,0.188-0.188,0.188H12.505
		c-0.103,0-0.188-0.084-0.188-0.188v-2.182h7.176c0.517,0,0.937-0.419,0.937-0.936v-7.176h2.181c0.104,0,0.188,0.084,0.188,0.187
		V22.612z"/>
</g>
</svg>
