<?xml version="1.0" encoding="utf-8"?>
<!-- Generator: Adobe Illustrator 15.1.0, SVG Export Plug-In . SVG Version: 6.00 Build 0)  -->
<!DOCTYPE svg PUBLIC "-//W3C//DTD SVG 1.1//EN" "http://www.w3.org/Graphics/SVG/1.1/DTD/svg11.dtd">
<svg version="1.1" id="Layer_1" xmlns="http://www.w3.org/2000/svg" xmlns:xlink="http://www.w3.org/1999/xlink" x="0px" y="0px"
	 width="32px" height="32px" viewBox="0 0 32 32" enable-background="new 0 0 32 32" xml:space="preserve">
<path d="M30.016,6.608h-4.623V1.983C25.393,0.889,24.5,0,23.408,0H1.984C0.888,0,0,0.889,0,1.983v21.425
	c0,1.094,0.89,1.984,1.983,1.984h4.623v4.623C6.607,31.109,7.499,32,8.59,32h21.423C31.107,32,32,31.107,32,30.018V8.591
	C32,7.499,31.109,6.608,30.016,6.608z M6.607,8.592v15.212H1.984c-0.219,0-0.397-0.178-0.397-0.395V1.983
	c0-0.221,0.179-0.396,0.397-0.396h21.424c0.217,0,0.396,0.178,0.396,0.396v4.625H8.589C7.499,6.608,6.607,7.499,6.607,8.592z
	 M21.699,14.061c0,0.879-0.359,1.672-0.939,2.241l-4.896,5.625l-4.91-5.621c-0.582-0.57-0.944-1.365-0.944-2.246
	c0-1.735,1.407-3.145,3.146-3.145c1.149,0,2.151,0.622,2.7,1.544c0.547-0.922,1.551-1.544,2.702-1.544
	C20.291,10.917,21.699,12.326,21.699,14.061z M30.412,30.018c0,0.219-0.178,0.396-0.396,0.396H8.589
	c-0.217,0-0.396-0.178-0.396-0.396v-4.625h15.213c1.094,0,1.982-0.891,1.982-1.98V8.196h4.625c0.219,0,0.396,0.179,0.396,0.396
	L30.412,30.018L30.412,30.018L30.412,30.018z"/>
</svg>
