<?xml version="1.0" encoding="utf-8"?>
<!-- Generator: Adobe Illustrator 15.1.0, SVG Export Plug-In . SVG Version: 6.00 Build 0)  -->
<!DOCTYPE svg PUBLIC "-//W3C//DTD SVG 1.1//EN" "http://www.w3.org/Graphics/SVG/1.1/DTD/svg11.dtd">
<svg version="1.1" id="Layer_1" xmlns="http://www.w3.org/2000/svg" xmlns:xlink="http://www.w3.org/1999/xlink" x="0px" y="0px"
	 width="32px" height="32px" viewBox="0 0 32 32" enable-background="new 0 0 32 32" xml:space="preserve">
<path d="M26.605,10.108C26.27,5.985,22.807,2.733,18.6,2.733c-0.89,0-1.762,0.146-2.6,0.433c-0.838-0.286-1.711-0.433-2.602-0.433
	c-4.207,0-7.668,3.252-8.004,7.375C2.273,10.896,0,13.75,0,17.028c0,3.936,3.203,7.138,7.139,7.138c1.396,0,2.73-0.397,3.875-1.142
	c0.102,0.104,0.202,0.211,0.307,0.313c1.08,1.079,2.178,1.933,3.087,2.444c0.233,2.043,0.798,3.484,1.459,3.484
	s1.228-1.441,1.462-3.484c0.908-0.514,2.008-1.365,3.085-2.444c0.142-0.142,0.278-0.282,0.412-0.424
	c1.18,0.813,2.575,1.251,4.036,1.251c3.937,0,7.139-3.202,7.139-7.137C32,13.75,29.729,10.896,26.605,10.108z M24.861,22.417
	c-1.041,0-2.034-0.295-2.893-0.843c1.166-1.521,1.713-2.839,1.266-3.284c-0.613-0.616-2.875,0.648-5.049,2.822
	c-0.274,0.274-0.535,0.554-0.781,0.828c0.022-0.385,0.037-0.781,0.037-1.19c0-3.074-0.705-5.565-1.574-5.565
	c-0.87,0-1.575,2.491-1.575,5.565c0,0.408,0.013,0.806,0.036,1.19c-0.244-0.275-0.505-0.555-0.78-0.828
	c-2.175-2.174-4.437-3.438-5.05-2.822c-0.458,0.458,0.125,1.828,1.352,3.395c-0.813,0.478-1.744,0.731-2.711,0.731
	c-2.972,0-5.389-2.417-5.389-5.388c0-2.663,1.984-4.955,4.618-5.332c0.435-0.062,0.756-0.438,0.751-0.875l-0.001-0.055
	c0-3.466,2.817-6.283,6.282-6.283c0.785,0,1.553,0.144,2.283,0.429c0.203,0.08,0.432,0.08,0.635,0c0.73-0.285,1.5-0.429,2.283-0.429
	c3.465,0,6.281,2.817,6.281,6.285c-0.001,0.018-0.001,0.037-0.001,0.056c-0.004,0.438,0.317,0.81,0.751,0.872
	c2.633,0.375,4.618,2.668,4.618,5.33C30.25,20,27.834,22.417,24.861,22.417z"/>
</svg>
