<?xml version="1.0" encoding="utf-8"?>
<!-- Generator: Adobe Illustrator 15.1.0, SVG Export Plug-In . SVG Version: 6.00 Build 0)  -->
<!DOCTYPE svg PUBLIC "-//W3C//DTD SVG 1.1//EN" "http://www.w3.org/Graphics/SVG/1.1/DTD/svg11.dtd">
<svg version="1.1" id="Layer_1" xmlns="http://www.w3.org/2000/svg" xmlns:xlink="http://www.w3.org/1999/xlink" x="0px" y="0px"
	 width="32px" height="32px" viewBox="0 0 32 32" enable-background="new 0 0 32 32" xml:space="preserve">
<g>
	<path d="M16,0C7.178,0,0,7.178,0,16s7.178,16,16,16s16-7.178,16-16S24.822,0,16,0z M16,29.814C8.384,29.814,2.187,23.617,2.187,16
		S8.384,2.187,16,2.187c7.617,0,13.813,6.196,13.813,13.813S23.617,29.814,16,29.814z"/>
	<path d="M22.004,12.664c-0.19-2.333-2.15-4.174-4.531-4.174c-0.504,0-0.998,0.082-1.473,0.244
		c-0.475-0.162-0.968-0.244-1.472-0.244c-2.382,0-4.342,1.841-4.531,4.174c-1.768,0.446-3.055,2.062-3.055,3.919
		c0,2.228,1.813,4.04,4.041,4.04c0.79,0,1.546-0.227,2.193-0.647c0.057,0.061,0.114,0.12,0.174,0.179
		c0.61,0.61,1.232,1.094,1.747,1.384c0.133,1.156,0.452,1.972,0.826,1.972c0.375,0,0.695-0.815,0.828-1.972
		c0.515-0.29,1.137-0.773,1.746-1.384c0.08-0.08,0.158-0.16,0.233-0.24c0.668,0.461,1.458,0.709,2.285,0.709
		c2.229,0,4.041-1.812,4.041-4.04C25.058,14.726,23.771,13.11,22.004,12.664z M21.017,19.632c-0.589,0-1.152-0.166-1.637-0.477
		c0.66-0.86,0.97-1.606,0.716-1.859c-0.348-0.349-1.628,0.367-2.858,1.599c-0.155,0.155-0.304,0.312-0.442,0.469
		c0.014-0.218,0.021-0.442,0.021-0.674c0-1.74-0.399-3.151-0.893-3.151c-0.491,0-0.891,1.411-0.891,3.151
		c0,0.231,0.007,0.456,0.021,0.674c-0.139-0.156-0.286-0.313-0.442-0.469c-1.23-1.231-2.511-1.947-2.858-1.599
		c-0.259,0.26,0.071,1.035,0.765,1.923c-0.46,0.27-0.986,0.413-1.534,0.413c-1.682,0-3.051-1.367-3.051-3.049
		c0-1.509,1.124-2.806,2.614-3.019c0.247-0.036,0.429-0.247,0.426-0.496l-0.001-0.031c0-1.961,1.596-3.557,3.557-3.557
		c0.444,0,0.879,0.082,1.292,0.243c0.115,0.045,0.244,0.045,0.36,0c0.413-0.161,0.848-0.243,1.292-0.243
		c1.961,0,3.556,1.596,3.556,3.559c-0.001,0.01-0.001,0.021-0.001,0.031c-0.002,0.248,0.18,0.458,0.426,0.494
		c1.49,0.213,2.614,1.51,2.614,3.019C24.067,18.265,22.699,19.632,21.017,19.632z"/>
</g>
</svg>
