<?xml version="1.0" encoding="utf-8"?>
<!-- Generator: Adobe Illustrator 15.1.0, SVG Export Plug-In . SVG Version: 6.00 Build 0)  -->
<!DOCTYPE svg PUBLIC "-//W3C//DTD SVG 1.1//EN" "http://www.w3.org/Graphics/SVG/1.1/DTD/svg11.dtd">
<svg version="1.1" id="Layer_1" xmlns="http://www.w3.org/2000/svg" xmlns:xlink="http://www.w3.org/1999/xlink" x="0px" y="0px"
	 width="32px" height="32px" viewBox="0 0 32 32" enable-background="new 0 0 32 32" xml:space="preserve">
<g>
	<path d="M16,0C7.178,0,0,7.178,0,16.001C0,24.823,7.178,32,16,32c8.823,0,16-7.177,16-15.999C32,7.178,24.823,0,16,0z M16,29.814
		c-7.617,0-13.814-6.197-13.814-13.813C2.186,8.383,8.383,2.187,16,2.187c7.617,0,13.814,6.197,13.814,13.814
		C29.814,23.617,23.617,29.814,16,29.814z"/>
	<g>
		<path d="M9.529,24h11.184c0.26,0,0.472-0.211,0.472-0.472v-4.485h0.073c1.637,0,1.685-4.956,1.685-5.521
			c0-0.565-0.048-5.521-1.685-5.521H10.743c-1.636,0-1.685,4.946-1.685,5.519c0,0.001,0,0.001,0,0.002v10.006
			C9.058,23.789,9.27,24,9.529,24z M11.77,18.101c0.59-1.369,0.651-3.813,0.657-4.465h0.301v-0.2h-0.301
			c-0.003-0.607-0.058-3.103-0.657-4.492h9.44C21.488,9.179,22,10.745,22,13.522c0,2.777-0.512,4.342-0.79,4.579H11.77z
			 M10.743,18.163c-0.615,0-1.111-2.072-1.111-4.628c0-2.556,0.497-4.628,1.111-4.628s1.111,2.072,1.111,4.628
			C11.854,16.091,11.357,18.163,10.743,18.163z M10.001,23.058v-4.448c0.201,0.27,0.445,0.434,0.742,0.434h9.5v4.015H10.001z"/>
		<ellipse cx="10.742" cy="13.535" rx="0.463" ry="1.929"/>
		<rect x="18.581" y="13.435" width="0.308" height="0.2"/>
		<rect x="17.965" y="13.435" width="0.308" height="0.2"/>
		<rect x="19.197" y="13.435" width="0.308" height="0.2"/>
		<rect x="17.349" y="13.435" width="0.308" height="0.2"/>
		<rect x="21.661" y="13.435" width="0.308" height="0.2"/>
		<rect x="21.046" y="13.435" width="0.308" height="0.2"/>
		<rect x="19.812" y="13.435" width="0.309" height="0.2"/>
		<rect x="20.429" y="13.435" width="0.309" height="0.2"/>
		<rect x="13.652" y="13.435" width="0.308" height="0.2"/>
		<rect x="16.732" y="13.435" width="0.309" height="0.2"/>
		<rect x="13.036" y="13.435" width="0.308" height="0.2"/>
		<rect x="14.269" y="13.435" width="0.308" height="0.2"/>
		<rect x="14.885" y="13.435" width="0.308" height="0.2"/>
		<rect x="16.116" y="13.435" width="0.309" height="0.2"/>
		<rect x="15.5" y="13.435" width="0.309" height="0.2"/>
	</g>
</g>
</svg>
