<?xml version="1.0" encoding="utf-8"?>
<!-- Generator: Adobe Illustrator 15.1.0, SVG Export Plug-In . SVG Version: 6.00 Build 0)  -->
<!DOCTYPE svg PUBLIC "-//W3C//DTD SVG 1.1//EN" "http://www.w3.org/Graphics/SVG/1.1/DTD/svg11.dtd">
<svg version="1.1" id="Layer_1" xmlns="http://www.w3.org/2000/svg" xmlns:xlink="http://www.w3.org/1999/xlink" x="0px" y="0px"
	 width="32px" height="32px" viewBox="0 0 32 32" enable-background="new 0 0 32 32" xml:space="preserve">
<g>
	<path d="M3.059,32h22.367c0.52,0,0.943-0.422,0.943-0.943v-8.971h0.146c3.273,0,3.367-9.913,3.367-11.042S29.791,0,26.516,0H5.485
		C2.214,0,2.117,9.894,2.117,11.04c0,0.003,0,0.003,0,0.004v20.013C2.117,31.578,2.54,32,3.059,32z M7.541,20.199
		c1.181-2.736,1.303-7.626,1.313-8.93h0.604V10.87H8.854C8.846,9.656,8.739,4.664,7.54,1.885h18.878
		C26.975,2.357,28,5.489,28,11.042c0,5.555-1.023,8.686-1.582,9.159H7.541V20.199z M5.485,20.326c-1.229,0-2.221-4.145-2.221-9.258
		c0-5.112,0.992-9.256,2.221-9.256c1.229,0,2.223,4.144,2.223,9.256C7.708,16.181,6.714,20.326,5.485,20.326z M4.002,30.113v-8.896
		c0.402,0.539,0.891,0.869,1.482,0.869h19v8.027H4.002z"/>
	<ellipse cx="5.485" cy="11.068" rx="0.928" ry="3.857"/>
	<rect x="21.162" y="10.87" width="0.615" height="0.399"/>
	<rect x="19.93" y="10.87" width="0.615" height="0.399"/>
	<rect x="22.395" y="10.87" width="0.615" height="0.399"/>
	<rect x="18.699" y="10.87" width="0.613" height="0.399"/>
	<rect x="27.324" y="10.87" width="0.613" height="0.399"/>
	<rect x="26.09" y="10.87" width="0.615" height="0.399"/>
	<rect x="23.627" y="10.87" width="0.615" height="0.399"/>
	<rect x="24.857" y="10.87" width="0.617" height="0.399"/>
	<rect x="11.305" y="10.87" width="0.615" height="0.399"/>
	<rect x="17.465" y="10.87" width="0.617" height="0.399"/>
	<rect x="10.071" y="10.87" width="0.617" height="0.399"/>
	<rect x="12.538" y="10.87" width="0.615" height="0.399"/>
	<rect x="13.77" y="10.87" width="0.614" height="0.399"/>
	<rect x="16.233" y="10.87" width="0.615" height="0.399"/>
	<rect x="15.001" y="10.87" width="0.616" height="0.399"/>
</g>
</svg>
