<?xml version="1.0" encoding="utf-8"?>
<!-- Generator: Adobe Illustrator 15.1.0, SVG Export Plug-In . SVG Version: 6.00 Build 0)  -->
<!DOCTYPE svg PUBLIC "-//W3C//DTD SVG 1.1//EN" "http://www.w3.org/Graphics/SVG/1.1/DTD/svg11.dtd">
<svg version="1.1" id="Layer_1" xmlns="http://www.w3.org/2000/svg" xmlns:xlink="http://www.w3.org/1999/xlink" x="0px" y="0px"
	 width="32px" height="32px" viewBox="0 0 32 32" enable-background="new 0 0 32 32" xml:space="preserve">
<g>
	<path d="M16,0C7.178,0,0,7.178,0,16s7.178,16,16,16c8.822,0,16-7.178,16-16S24.822,0,16,0z M16,29.813
		C8.384,29.813,2.188,23.616,2.188,16C2.188,8.383,8.384,2.187,16,2.187S29.813,8.383,29.813,16
		C29.813,23.616,23.617,29.813,16,29.813z"/>
	<g>
		<path d="M7.596,14.667c0-0.04,0.033-0.076,0.077-0.076h1.639c0.044,0,0.076,0.036,0.076,0.076v0.331
			c0,0.04-0.032,0.076-0.076,0.076H8.119v0.66h0.995c0.04,0,0.075,0.037,0.075,0.077v0.334c0,0.044-0.036,0.076-0.075,0.076H8.119
			v0.705h1.192c0.044,0,0.076,0.036,0.076,0.076v0.331c0,0.04-0.032,0.075-0.076,0.075H7.672c-0.044,0-0.077-0.035-0.077-0.075
			V14.667z"/>
		<path d="M10.256,14.611c0.004-0.032,0.029-0.061,0.074-0.061h0.063c0.032,0,0.056,0.016,0.069,0.041l0.886,1.9
			c0.008,0,0.008,0,0.011,0l0.886-1.9c0.013-0.024,0.033-0.041,0.069-0.041h0.064c0.044,0,0.069,0.029,0.073,0.061l0.474,2.705
			c0.014,0.057-0.02,0.092-0.072,0.092h-0.366c-0.036,0-0.069-0.032-0.077-0.06l-0.236-1.526c-0.004,0-0.012,0-0.012,0l-0.705,1.582
			c-0.008,0.024-0.033,0.045-0.069,0.045h-0.073c-0.036,0-0.056-0.021-0.068-0.045l-0.711-1.582c0,0-0.008,0-0.012,0l-0.234,1.526
			c-0.004,0.027-0.037,0.06-0.073,0.06H9.854c-0.051,0-0.084-0.035-0.077-0.092L10.256,14.611z"/>
		<path d="M14.721,14.551c0.805,0,1.449,0.648,1.449,1.454c0,0.804-0.644,1.445-1.449,1.445c-0.805,0-1.445-0.641-1.445-1.445
			C13.276,15.199,13.916,14.551,14.721,14.551z M14.721,16.926c0.506,0,0.925-0.415,0.925-0.921c0-0.507-0.419-0.93-0.925-0.93
			c-0.507,0-0.922,0.423-0.922,0.93C13.799,16.511,14.214,16.926,14.721,16.926z"/>
		<path d="M17.047,15.074h-0.615c-0.044,0-0.077-0.036-0.077-0.076v-0.331c0-0.04,0.033-0.076,0.077-0.076h1.761
			c0.041,0,0.074,0.036,0.074,0.076v0.331c0,0.04-0.033,0.076-0.074,0.076h-0.618v2.259c0,0.04-0.035,0.075-0.077,0.075h-0.373
			c-0.04,0-0.077-0.035-0.077-0.075V15.074z"/>
		<path d="M18.687,14.667c0-0.04,0.036-0.076,0.077-0.076h0.373c0.039,0,0.077,0.036,0.077,0.076v2.666
			c0,0.04-0.038,0.075-0.077,0.075h-0.373c-0.041,0-0.077-0.035-0.077-0.075V14.667z"/>
		<path d="M19.579,14.696c-0.024-0.053,0.009-0.105,0.069-0.105h0.409c0.038,0,0.061,0.024,0.068,0.044l0.774,1.73h0.027l0.772-1.73
			c0.008-0.02,0.032-0.044,0.068-0.044h0.412c0.061,0,0.093,0.052,0.068,0.105l-1.25,2.708c-0.011,0.024-0.03,0.045-0.068,0.045
			h-0.038c-0.039,0-0.058-0.021-0.069-0.045L19.579,14.696z"/>
		<path d="M22.614,14.667c0-0.04,0.033-0.076,0.077-0.076h1.637c0.047,0,0.077,0.036,0.077,0.076v0.331
			c0,0.04-0.03,0.076-0.077,0.076h-1.189v0.66h0.992c0.041,0,0.076,0.037,0.076,0.077v0.334c0,0.044-0.035,0.076-0.076,0.076h-0.992
			v0.705h1.189c0.047,0,0.077,0.036,0.077,0.076v0.331c0,0.04-0.03,0.075-0.077,0.075h-1.637c-0.044,0-0.077-0.035-0.077-0.075
			V14.667z"/>
	</g>
</g>
</svg>
