<?xml version="1.0" encoding="utf-8"?>
<!-- Generator: Adobe Illustrator 15.1.0, SVG Export Plug-In . SVG Version: 6.00 Build 0)  -->
<!DOCTYPE svg PUBLIC "-//W3C//DTD SVG 1.1//EN" "http://www.w3.org/Graphics/SVG/1.1/DTD/svg11.dtd">
<svg version="1.1" id="Layer_1" xmlns="http://www.w3.org/2000/svg" xmlns:xlink="http://www.w3.org/1999/xlink" x="0px" y="0px"
	 width="32px" height="32px" viewBox="0 0 32 32" enable-background="new 0 0 32 32" xml:space="preserve">
<g>
	<path d="M16,0C7.177,0,0,7.178,0,16c0,8.823,7.177,16,16,16c8.822,0,16-7.177,16-16C32,7.178,24.822,0,16,0z M16,29.814
		C8.383,29.814,2.187,23.617,2.187,16S8.383,2.187,16,2.187S29.813,8.383,29.813,16S23.617,29.814,16,29.814z"/>
	<path id="Facebook_1_" d="M14,11.376c0,0.381,0,2.078,0,2.078h-1.522v2.542H14v7.552h3.128v-7.552h2.099
		c0,0,0.196-1.219,0.292-2.552c-0.273,0-2.379,0-2.379,0s0-1.479,0-1.737c0-0.26,0.342-0.609,0.679-0.609s1.047,0,1.704,0
		c0-0.346,0-1.541,0-2.646c-0.878,0-1.876,0-2.317,0C13.923,8.452,14,10.996,14,11.376z"/>
</g>
</svg>
