<?xml version="1.0" encoding="utf-8"?>
<!-- Generator: Adobe Illustrator 15.1.0, SVG Export Plug-In . SVG Version: 6.00 Build 0)  -->
<!DOCTYPE svg PUBLIC "-//W3C//DTD SVG 1.1//EN" "http://www.w3.org/Graphics/SVG/1.1/DTD/svg11.dtd">
<svg version="1.1" id="Layer_1" xmlns="http://www.w3.org/2000/svg" xmlns:xlink="http://www.w3.org/1999/xlink" x="0px" y="0px"
	 width="32px" height="32px" viewBox="0 0 32 32" enable-background="new 0 0 32 32" xml:space="preserve">
<path id="Facebook_2_" d="M11.76,6.198c0,0.806,0,4.405,0,4.405H8.534v5.388h3.227V32h6.63V15.991h4.449
	c0,0,0.416-2.583,0.617-5.408c-0.578,0-5.043,0-5.043,0s0-3.135,0-3.685c0-0.549,0.725-1.291,1.438-1.291c0.715,0,2.222,0,3.615,0
	c0-0.732,0-3.269,0-5.607c-1.863,0-3.98,0-4.914,0C11.598,0,11.76,5.395,11.76,6.198z"/>
</svg>
