<?xml version="1.0" encoding="utf-8"?>
<!-- Generator: Adobe Illustrator 16.0.4, SVG Export Plug-In . SVG Version: 6.00 Build 0)  -->
<!DOCTYPE svg PUBLIC "-//W3C//DTD SVG 1.1//EN" "http://www.w3.org/Graphics/SVG/1.1/DTD/svg11.dtd">
<svg version="1.1" id="Layer_1" xmlns="http://www.w3.org/2000/svg" xmlns:xlink="http://www.w3.org/1999/xlink" x="0px" y="0px"
	 width="32px" height="32px" viewBox="0 0 32 32" enable-background="new 0 0 32 32" xml:space="preserve">
<g>
	<path d="M16,0C7.177,0,0,7.178,0,16s7.177,16,16,16s16-7.178,16-16S24.823,0,16,0z M16,29.813C8.383,29.813,2.187,23.616,2.187,16
		C2.187,8.383,8.383,2.187,16,2.187S29.813,8.383,29.813,16C29.813,23.616,23.617,29.813,16,29.813z"/>
	<g>
		<path d="M8.889,12.586V10.84c0-0.407,0.325-0.772,0.772-0.772h12.678c0.447,0,0.772,0.365,0.772,0.772v1.746
			c0,0.407-0.325,0.772-0.772,0.772H9.661C9.214,13.358,8.889,12.993,8.889,12.586z M8.889,21.16v-1.788
			c0-0.405,0.325-0.771,0.772-0.771h12.678c0.447,0,0.772,0.366,0.772,0.771v1.788c0,0.407-0.325,0.772-0.772,0.772H9.661
			C9.214,21.933,8.889,21.567,8.889,21.16z"/>
	</g>
</g>
</svg>
