<?xml version="1.0" encoding="utf-8"?>
<!-- Generator: Adobe Illustrator 15.1.0, SVG Export Plug-In . SVG Version: 6.00 Build 0)  -->
<!DOCTYPE svg PUBLIC "-//W3C//DTD SVG 1.1//EN" "http://www.w3.org/Graphics/SVG/1.1/DTD/svg11.dtd">
<svg version="1.1" id="Layer_1" xmlns="http://www.w3.org/2000/svg" xmlns:xlink="http://www.w3.org/1999/xlink" x="0px" y="0px"
	 width="32px" height="32px" viewBox="0 0 32 32" enable-background="new 0 0 32 32" xml:space="preserve">
<g>
	<path d="M16,0C7.178,0,0,7.178,0,16s7.178,16,16,16c8.822,0,16-7.178,16-16S24.822,0,16,0z M16,29.813
		C8.384,29.813,2.187,23.616,2.187,16C2.187,8.383,8.384,2.187,16,2.187c7.617,0,13.814,6.196,13.814,13.813
		C29.814,23.616,23.617,29.813,16,29.813z"/>
	<g>
		<path d="M6.271,12.253c0-0.041,0.032-0.077,0.077-0.077h1.638c0.044,0,0.077,0.036,0.077,0.077v0.33
			c0,0.041-0.033,0.077-0.077,0.077H6.794v0.757h0.994c0.04,0,0.077,0.036,0.077,0.076v0.33c0,0.041-0.037,0.077-0.077,0.077H6.794
			v1.019c0,0.04-0.037,0.076-0.077,0.076h-0.37c-0.044,0-0.077-0.037-0.077-0.076V12.253z"/>
		<path d="M9.785,12.135c0.805,0,1.449,0.648,1.449,1.453c0,0.806-0.644,1.446-1.449,1.446c-0.805,0-1.445-0.64-1.445-1.446
			C8.34,12.783,8.98,12.135,9.785,12.135z M9.785,14.511c0.507,0,0.926-0.415,0.926-0.922c0-0.507-0.418-0.929-0.926-0.929
			s-0.922,0.422-0.922,0.929C8.863,14.096,9.278,14.511,9.785,14.511z"/>
		<path d="M11.762,12.253c0-0.041,0.032-0.077,0.076-0.077h1.151c0.482,0,0.877,0.386,0.877,0.865c0,0.37-0.245,0.672-0.596,0.813
			l0.552,1.022c0.028,0.052,0,0.117-0.069,0.117h-0.422c-0.037,0-0.056-0.02-0.064-0.037l-0.535-1.066h-0.447v1.027
			c0,0.04-0.036,0.076-0.076,0.076h-0.37c-0.044,0-0.076-0.037-0.076-0.076V12.253z M12.945,13.46c0.213,0,0.398-0.186,0.398-0.41
			c0-0.213-0.185-0.391-0.398-0.391h-0.656v0.801H12.945z"/>
		<path d="M14.193,12.272c-0.016-0.056,0.017-0.096,0.073-0.096h0.371c0.032,0,0.064,0.028,0.072,0.056l0.418,1.606h0.016
			l0.64-1.658c0.008-0.024,0.028-0.045,0.068-0.045h0.072c0.04,0,0.061,0.021,0.068,0.045l0.645,1.658h0.016l0.411-1.606
			c0.008-0.028,0.039-0.056,0.072-0.056h0.369c0.057,0,0.089,0.04,0.073,0.096l-0.761,2.705c-0.008,0.032-0.04,0.057-0.072,0.057
			h-0.064c-0.036,0-0.062-0.021-0.068-0.044l-0.721-1.824h-0.02l-0.712,1.824c-0.012,0.024-0.028,0.044-0.068,0.044h-0.064
			c-0.032,0-0.065-0.024-0.072-0.057L14.193,12.272z"/>
		<path d="M17.574,14.889l1.252-2.708c0.012-0.024,0.032-0.045,0.069-0.045h0.039c0.041,0,0.057,0.021,0.069,0.045l1.239,2.708
			c0.024,0.052-0.008,0.105-0.068,0.105h-0.351c-0.061,0-0.089-0.024-0.117-0.081l-0.196-0.435h-1.204l-0.196,0.435
			c-0.018,0.04-0.054,0.081-0.118,0.081h-0.35C17.583,14.994,17.55,14.941,17.574,14.889z M19.313,14.032l-0.403-0.886h-0.012
			l-0.395,0.886H19.313z"/>
		<path d="M20.609,12.253c0-0.041,0.032-0.077,0.077-0.077h1.15c0.483,0,0.878,0.386,0.878,0.865c0,0.37-0.246,0.672-0.596,0.813
			l0.551,1.022c0.029,0.052,0,0.117-0.067,0.117H22.18c-0.036,0-0.057-0.02-0.064-0.037l-0.536-1.066h-0.446v1.027
			c0,0.04-0.036,0.076-0.076,0.076h-0.37c-0.045,0-0.077-0.037-0.077-0.076V12.253z M21.793,13.46c0.214,0,0.398-0.186,0.398-0.41
			c0-0.213-0.185-0.391-0.398-0.391h-0.656v0.801H21.793z"/>
		<path d="M23.29,12.253c0-0.041,0.032-0.077,0.072-0.077h0.954c0.777,0,1.414,0.631,1.414,1.404c0,0.781-0.637,1.413-1.414,1.413
			h-0.954c-0.04,0-0.072-0.037-0.072-0.076V12.253z M24.269,14.502c0.523,0,0.906-0.394,0.906-0.922
			c0-0.523-0.383-0.917-0.906-0.917H23.81v1.839H24.269z"/>
		<path d="M6.972,17.489H6.355c-0.044,0-0.076-0.036-0.076-0.076v-0.33c0-0.04,0.032-0.077,0.076-0.077h1.759
			c0.045,0,0.077,0.037,0.077,0.077v0.33c0,0.04-0.032,0.076-0.077,0.076H7.499v2.258c0,0.041-0.036,0.077-0.076,0.077H7.048
			c-0.04,0-0.076-0.036-0.076-0.077V17.489z"/>
		<path d="M8.61,17.083c0-0.04,0.036-0.077,0.077-0.077h0.374c0.044,0,0.077,0.037,0.077,0.077v1.066h1.312v-1.066
			c0-0.04,0.033-0.077,0.077-0.077h0.37c0.04,0,0.077,0.037,0.077,0.077v2.664c0,0.041-0.037,0.077-0.077,0.077h-0.37
			c-0.044,0-0.077-0.036-0.077-0.077v-1.11H9.137v1.11c0,0.041-0.032,0.077-0.077,0.077H8.687c-0.041,0-0.077-0.036-0.077-0.077
			V17.083z"/>
		<path d="M11.705,17.083c0-0.04,0.037-0.077,0.077-0.077h0.375c0.04,0,0.076,0.037,0.076,0.077v2.664
			c0,0.041-0.036,0.077-0.076,0.077h-0.375c-0.04,0-0.077-0.036-0.077-0.077V17.083z"/>
		<path d="M12.965,17.039c0-0.04,0.036-0.072,0.076-0.072h0.101l1.674,1.778h0.004v-1.662c0-0.04,0.032-0.077,0.076-0.077h0.371
			c0.041,0,0.076,0.037,0.076,0.077v2.709c0,0.04-0.036,0.072-0.076,0.072h-0.096l-1.683-1.848h-0.004v1.73
			c0,0.041-0.032,0.077-0.076,0.077h-0.367c-0.04,0-0.076-0.036-0.076-0.077V17.039z"/>
		<path d="M16.077,17.103c0-0.052,0.04-0.097,0.097-0.097h0.354c0.053,0,0.097,0.045,0.097,0.097v1.087l1.015-1.143
			c0.016-0.021,0.04-0.041,0.077-0.041h0.402c0.076,0,0.116,0.085,0.063,0.146l-1.05,1.184l1.127,1.349
			c0.04,0.052,0.008,0.141-0.073,0.141h-0.438c-0.04,0-0.064-0.017-0.072-0.028L16.624,18.5v1.228c0,0.052-0.044,0.097-0.097,0.097
			h-0.354c-0.057,0-0.097-0.045-0.097-0.097V17.103z"/>
		<path d="M18.701,17.083c0-0.04,0.036-0.077,0.077-0.077h0.374c0.04,0,0.076,0.037,0.076,0.077v2.664
			c0,0.041-0.036,0.077-0.076,0.077h-0.374c-0.041,0-0.077-0.036-0.077-0.077V17.083z"/>
		<path d="M19.962,17.039c0-0.04,0.036-0.072,0.076-0.072h0.101l1.675,1.778h0.004v-1.662c0-0.04,0.031-0.077,0.076-0.077h0.37
			c0.041,0,0.077,0.037,0.077,0.077v2.709c0,0.04-0.036,0.072-0.077,0.072h-0.097l-1.682-1.848H20.48v1.73
			c0,0.041-0.031,0.077-0.076,0.077h-0.366c-0.04,0-0.076-0.036-0.076-0.077V17.039z"/>
		<path d="M24.316,16.967c0.363,0,0.709,0.141,0.982,0.374c0.032,0.032,0.037,0.081,0.004,0.112l-0.249,0.262
			c-0.032,0.032-0.068,0.032-0.104,0c-0.174-0.153-0.388-0.233-0.608-0.233c-0.503,0-0.901,0.431-0.901,0.934
			c0,0.499,0.398,0.922,0.906,0.922c0.225,0,0.397-0.068,0.479-0.101v-0.342h-0.322c-0.044,0-0.077-0.033-0.077-0.072v-0.318
			c0-0.044,0.033-0.076,0.077-0.076h0.772c0.04,0,0.073,0.036,0.073,0.076v1.03c0,0.032-0.017,0.053-0.033,0.064
			c0,0-0.414,0.262-0.998,0.262c-0.8,0-1.444-0.636-1.444-1.44C22.872,17.614,23.517,16.967,24.316,16.967z"/>
	</g>
</g>
</svg>
