<?xml version="1.0" encoding="utf-8"?>
<!-- Generator: Adobe Illustrator 15.1.0, SVG Export Plug-In . SVG Version: 6.00 Build 0)  -->
<!DOCTYPE svg PUBLIC "-//W3C//DTD SVG 1.1//EN" "http://www.w3.org/Graphics/SVG/1.1/DTD/svg11.dtd">
<svg version="1.1" id="Layer_1" xmlns="http://www.w3.org/2000/svg" xmlns:xlink="http://www.w3.org/1999/xlink" x="0px" y="0px"
	 width="32px" height="32px" viewBox="0 0 32 32" enable-background="new 0 0 32 32" xml:space="preserve">
<g>
	<path d="M0.001,9.838c0-0.066,0.053-0.126,0.125-0.126h2.693c0.072,0,0.127,0.06,0.127,0.126v0.543
		c0,0.066-0.055,0.125-0.127,0.125H0.86v1.245h1.636c0.065,0,0.126,0.06,0.126,0.126v0.542c0,0.067-0.061,0.126-0.126,0.126H0.86
		v1.676c0,0.064-0.061,0.125-0.125,0.125H0.127c-0.073,0-0.126-0.062-0.126-0.125V9.838L0.001,9.838z"/>
	<path d="M5.778,9.645c1.324,0,2.384,1.065,2.384,2.391c0,1.324-1.06,2.377-2.384,2.377c-1.322,0-2.375-1.053-2.375-2.377
		S4.456,9.645,5.778,9.645z M5.778,13.551c0.835,0,1.522-0.683,1.522-1.517s-0.688-1.528-1.522-1.528S4.263,11.2,4.263,12.034
		S4.944,13.551,5.778,13.551z"/>
	<path d="M9.031,9.838c0-0.066,0.052-0.126,0.125-0.126h1.894c0.793,0,1.442,0.636,1.442,1.423c0,0.609-0.403,1.105-0.979,1.338
		l0.907,1.68c0.047,0.086,0,0.193-0.112,0.193h-0.694c-0.06,0-0.093-0.033-0.105-0.062l-0.881-1.753H9.89v1.688
		c0,0.065-0.06,0.125-0.125,0.125H9.156c-0.073,0-0.125-0.061-0.125-0.125V9.838L9.031,9.838z M10.976,11.823
		c0.352,0,0.656-0.306,0.656-0.675c0-0.352-0.305-0.644-0.656-0.644h-1.08v1.317L10.976,11.823L10.976,11.823z"/>
	<path d="M13.028,9.871c-0.026-0.092,0.025-0.158,0.119-0.158h0.609c0.053,0,0.105,0.046,0.119,0.092l0.688,2.643h0.027l1.053-2.727
		c0.014-0.041,0.047-0.074,0.112-0.074h0.119c0.065,0,0.099,0.033,0.11,0.074l1.061,2.727h0.026l0.676-2.643
		c0.012-0.046,0.063-0.092,0.118-0.092h0.607c0.094,0,0.146,0.066,0.119,0.158l-1.25,4.447c-0.014,0.054-0.066,0.094-0.119,0.094
		h-0.105c-0.061,0-0.102-0.034-0.111-0.073l-1.186-2.999h-0.033l-1.172,2.999c-0.02,0.04-0.047,0.073-0.113,0.073h-0.105
		c-0.053,0-0.106-0.04-0.119-0.094L13.028,9.871z"/>
	<path d="M18.588,14.173l2.06-4.454c0.021-0.039,0.054-0.074,0.113-0.074h0.064c0.066,0,0.093,0.035,0.113,0.074l2.037,4.454
		c0.041,0.085-0.014,0.173-0.112,0.173h-0.575c-0.1,0-0.146-0.041-0.193-0.134l-0.322-0.715h-1.979l-0.324,0.715
		c-0.027,0.065-0.087,0.134-0.193,0.134h-0.574C18.603,14.346,18.548,14.258,18.588,14.173z M21.447,12.764l-0.662-1.455h-0.021
		l-0.647,1.455H21.447z"/>
	<path d="M23.579,9.838c0-0.066,0.053-0.126,0.126-0.126h1.894c0.795,0,1.442,0.636,1.442,1.423c0,0.609-0.403,1.105-0.979,1.338
		l0.906,1.68c0.047,0.086,0,0.193-0.111,0.193h-0.694c-0.06,0-0.093-0.033-0.106-0.062l-0.881-1.753h-0.736v1.688
		c0,0.065-0.06,0.125-0.125,0.125h-0.608c-0.073,0-0.126-0.061-0.126-0.125V9.838L23.579,9.838z M25.524,11.823
		c0.352,0,0.654-0.306,0.654-0.675c0-0.352-0.304-0.644-0.654-0.644h-1.078v1.317L25.524,11.823L25.524,11.823z"/>
	<path d="M27.987,9.838c0-0.066,0.053-0.126,0.119-0.126h1.568c1.278,0,2.324,1.038,2.324,2.31c0,1.285-1.046,2.324-2.324,2.324
		h-1.568c-0.066,0-0.119-0.062-0.119-0.125V9.838z M29.597,13.538c0.86,0,1.489-0.647,1.489-1.517c0-0.86-0.629-1.51-1.489-1.51
		h-0.755v3.025L29.597,13.538L29.597,13.538z"/>
	<path d="M1.151,18.448H0.14c-0.072,0-0.125-0.06-0.125-0.126v-0.543c0-0.064,0.053-0.125,0.125-0.125h2.892
		c0.073,0,0.126,0.061,0.126,0.125v0.543c0,0.066-0.053,0.126-0.126,0.126H2.019v3.714c0,0.066-0.06,0.126-0.125,0.126H1.278
		c-0.066,0-0.127-0.06-0.127-0.126V18.448z"/>
	<path d="M3.847,17.779c0-0.064,0.06-0.125,0.125-0.125h0.615c0.073,0,0.126,0.061,0.126,0.125v1.756H6.87v-1.756
		c0-0.064,0.054-0.125,0.126-0.125h0.608c0.066,0,0.127,0.061,0.127,0.125v4.383c0,0.066-0.061,0.126-0.127,0.126H6.996
		c-0.072,0-0.126-0.06-0.126-0.126v-1.826H4.713v1.826c0,0.066-0.053,0.126-0.126,0.126H3.972c-0.065,0-0.125-0.06-0.125-0.126
		V17.779z"/>
	<path d="M8.937,17.779c0-0.064,0.061-0.125,0.127-0.125h0.615c0.066,0,0.127,0.061,0.127,0.125v4.383
		c0,0.066-0.061,0.126-0.127,0.126H9.063c-0.066,0-0.127-0.06-0.127-0.126V17.779z"/>
	<path d="M11.008,17.708c0-0.065,0.06-0.119,0.126-0.119H11.3l2.754,2.927h0.006v-2.736c0-0.064,0.054-0.125,0.125-0.125h0.609
		c0.066,0,0.125,0.061,0.125,0.125v4.455c0,0.066-0.061,0.121-0.125,0.121h-0.159l-2.767-3.039H11.86v2.846
		c0,0.066-0.053,0.126-0.125,0.126h-0.603c-0.065,0-0.125-0.06-0.125-0.126V17.708L11.008,17.708z"/>
	<path d="M16.126,17.812c0-0.084,0.064-0.158,0.159-0.158h0.582c0.086,0,0.157,0.074,0.157,0.158v1.789l1.67-1.881
		c0.025-0.033,0.065-0.066,0.127-0.066h0.662c0.123,0,0.189,0.14,0.104,0.238l-1.729,1.947l1.854,2.217
		c0.065,0.086,0.013,0.231-0.12,0.231h-0.72c-0.065,0-0.106-0.026-0.12-0.047l-1.729-2.132v2.02c0,0.085-0.071,0.158-0.157,0.158
		h-0.581c-0.094,0-0.159-0.073-0.159-0.158L16.126,17.812L16.126,17.812z"/>
	<path d="M20.44,17.779c0-0.064,0.062-0.125,0.127-0.125h0.615c0.065,0,0.125,0.061,0.125,0.125v4.383
		c0,0.066-0.06,0.126-0.125,0.126h-0.615c-0.065,0-0.127-0.06-0.127-0.126V17.779z"/>
	<path d="M22.515,17.708c0-0.065,0.061-0.119,0.125-0.119h0.166l2.754,2.927h0.006v-2.736c0-0.064,0.053-0.125,0.125-0.125h0.61
		c0.065,0,0.125,0.061,0.125,0.125v4.455c0,0.066-0.06,0.121-0.125,0.121h-0.159l-2.767-3.039h-0.007v2.846
		c0,0.066-0.053,0.126-0.125,0.126H22.64c-0.064,0-0.125-0.06-0.125-0.126V17.708L22.515,17.708z"/>
	<path d="M29.676,17.589c0.597,0,1.165,0.231,1.614,0.616c0.055,0.053,0.062,0.133,0.008,0.186l-0.41,0.43
		c-0.054,0.054-0.111,0.054-0.173,0c-0.284-0.252-0.636-0.383-0.999-0.383c-0.828,0-1.482,0.707-1.482,1.535
		c0,0.819,0.654,1.516,1.49,1.516c0.371,0,0.653-0.112,0.787-0.166V20.76h-0.531c-0.072,0-0.127-0.054-0.127-0.119v-0.522
		c0-0.072,0.055-0.125,0.127-0.125h1.271c0.065,0,0.12,0.06,0.12,0.125v1.694c0,0.053-0.025,0.086-0.055,0.105
		c0,0-0.682,0.432-1.641,0.432c-1.316,0-2.377-1.048-2.377-2.371C27.299,18.654,28.358,17.589,29.676,17.589z"/>
</g>
</svg>
