<?xml version="1.0" encoding="utf-8"?>
<!-- Generator: Adobe Illustrator 15.1.0, SVG Export Plug-In . SVG Version: 6.00 Build 0)  -->
<!DOCTYPE svg PUBLIC "-//W3C//DTD SVG 1.1//EN" "http://www.w3.org/Graphics/SVG/1.1/DTD/svg11.dtd">
<svg version="1.1" id="Layer_1" xmlns="http://www.w3.org/2000/svg" xmlns:xlink="http://www.w3.org/1999/xlink" x="0px" y="0px"
	 width="32px" height="32px" viewBox="0 0 32 32" enable-background="new 0 0 32 32" xml:space="preserve">
<g>
	<path d="M16,0C7.178,0,0,7.178,0,16s7.178,16,16,16c8.822,0,16-7.178,16-16S24.822,0,16,0z M16,29.813
		C8.384,29.813,2.187,23.617,2.187,16C2.187,8.383,8.384,2.187,16,2.187c7.617,0,13.814,6.197,13.814,13.813
		C29.814,23.617,23.617,29.813,16,29.813z"/>
	<g>
		<path d="M5.593,14.667c0-0.04,0.036-0.076,0.077-0.076h0.375c0.044,0,0.077,0.036,0.077,0.076v1.067h1.312v-1.067
			c0-0.04,0.032-0.076,0.076-0.076h0.37c0.041,0,0.077,0.036,0.077,0.076v2.666c0,0.04-0.036,0.075-0.077,0.075h-0.37
			c-0.044,0-0.076-0.035-0.076-0.075v-1.112H6.121v1.112c0,0.04-0.032,0.075-0.077,0.075H5.67c-0.041,0-0.077-0.035-0.077-0.075
			V14.667z"/>
		<path d="M8.689,14.667c0-0.04,0.033-0.076,0.077-0.076h1.638c0.044,0,0.076,0.036,0.076,0.076v0.331
			c0,0.04-0.032,0.076-0.076,0.076H9.212v0.66h0.994c0.04,0,0.077,0.037,0.077,0.077v0.334c0,0.044-0.037,0.076-0.077,0.076H9.212
			v0.705h1.191c0.044,0,0.076,0.036,0.076,0.076v0.331c0,0.04-0.032,0.075-0.076,0.075H8.766c-0.044,0-0.077-0.035-0.077-0.075
			V14.667z"/>
		<path d="M11.056,14.667c0-0.04,0.036-0.076,0.077-0.076h0.374c0.041,0,0.077,0.036,0.077,0.076v2.666
			c0,0.04-0.036,0.075-0.077,0.075h-0.374c-0.041,0-0.077-0.035-0.077-0.075V14.667z"/>
		<path d="M12.316,14.667c0-0.04,0.032-0.076,0.076-0.076h1.152c0.483,0,0.877,0.386,0.877,0.865c0,0.371-0.245,0.673-0.596,0.814
			l0.552,1.022c0.028,0.052,0,0.116-0.069,0.116h-0.422c-0.036,0-0.056-0.02-0.064-0.035l-0.536-1.067h-0.446v1.027
			c0,0.04-0.036,0.075-0.077,0.075h-0.371c-0.043,0-0.076-0.035-0.076-0.075V14.667z M13.5,15.875c0.213,0,0.399-0.186,0.399-0.411
			c0-0.213-0.186-0.391-0.399-0.391h-0.656v0.801H13.5z"/>
		<path d="M14.997,14.667c0-0.04,0.032-0.076,0.076-0.076h0.371c0.04,0,0.076,0.036,0.076,0.076v2.258h1.026
			c0.045,0,0.077,0.036,0.077,0.076v0.331c0,0.04-0.032,0.075-0.077,0.075h-1.473c-0.044,0-0.076-0.035-0.076-0.075V14.667z"/>
		<path d="M18.245,14.551c0.805,0,1.449,0.648,1.449,1.454c0,0.804-0.645,1.445-1.449,1.445c-0.806,0-1.445-0.641-1.445-1.445
			C16.8,15.199,17.439,14.551,18.245,14.551z M18.245,16.926c0.507,0,0.926-0.415,0.926-0.921c0-0.507-0.419-0.93-0.926-0.93
			s-0.921,0.423-0.921,0.93C17.324,16.511,17.738,16.926,18.245,16.926z"/>
		<path d="M21.466,14.551c0.805,0,1.448,0.648,1.448,1.454c0,0.804-0.644,1.445-1.448,1.445c-0.806,0-1.445-0.641-1.445-1.445
			C20.021,15.199,20.66,14.551,21.466,14.551z M21.466,16.926c0.507,0,0.926-0.415,0.926-0.921c0-0.507-0.419-0.93-0.926-0.93
			c-0.508,0-0.922,0.423-0.922,0.93C20.544,16.511,20.958,16.926,21.466,16.926z"/>
		<path d="M23.735,14.611c0.005-0.032,0.028-0.061,0.073-0.061h0.064c0.032,0,0.056,0.016,0.068,0.041l0.885,1.9
			c0.009,0,0.009,0,0.013,0l0.885-1.9c0.013-0.024,0.033-0.041,0.069-0.041h0.064c0.044,0,0.067,0.029,0.072,0.061l0.475,2.705
			c0.012,0.057-0.021,0.092-0.072,0.092h-0.366c-0.036,0-0.068-0.032-0.077-0.06l-0.237-1.526c-0.004,0-0.012,0-0.012,0
			l-0.705,1.582c-0.007,0.024-0.031,0.045-0.067,0.045h-0.073c-0.035,0-0.056-0.021-0.068-0.045l-0.712-1.582c0,0-0.009,0-0.012,0
			l-0.233,1.526c-0.005,0.027-0.036,0.06-0.073,0.06h-0.361c-0.053,0-0.085-0.035-0.077-0.092L23.735,14.611z"/>
	</g>
</g>
</svg>
