<?xml version="1.0" encoding="utf-8"?>
<!-- Generator: Adobe Illustrator 15.1.0, SVG Export Plug-In . SVG Version: 6.00 Build 0)  -->
<!DOCTYPE svg PUBLIC "-//W3C//DTD SVG 1.1//EN" "http://www.w3.org/Graphics/SVG/1.1/DTD/svg11.dtd">
<svg version="1.1" id="Layer_1" xmlns="http://www.w3.org/2000/svg" xmlns:xlink="http://www.w3.org/1999/xlink" x="0px" y="0px"
	 width="32px" height="32px" viewBox="0 0 32 32" enable-background="new 0 0 32 32" xml:space="preserve">
<g>
	<path d="M0.001,13.951c0-0.061,0.057-0.117,0.117-0.117h0.576c0.067,0,0.117,0.057,0.117,0.117v1.641H2.83v-1.641
		c0-0.061,0.049-0.117,0.116-0.117h0.57c0.062,0,0.116,0.057,0.116,0.117v4.098c0,0.061-0.056,0.117-0.116,0.117h-0.57
		c-0.067,0-0.116-0.057-0.116-0.117V16.34H0.812v1.709c0,0.061-0.049,0.117-0.117,0.117H0.118c-0.062,0-0.117-0.057-0.117-0.117
		V13.951L0.001,13.951z"/>
	<path d="M4.76,13.951c0-0.061,0.05-0.117,0.117-0.117h2.519c0.068,0,0.119,0.057,0.119,0.117v0.508c0,0.062-0.05,0.118-0.119,0.118
		H5.563v1.015h1.528c0.062,0,0.118,0.057,0.118,0.118v0.513c0,0.068-0.057,0.117-0.118,0.117H5.563v1.083h1.832
		c0.068,0,0.119,0.056,0.119,0.118v0.508c0,0.061-0.05,0.117-0.119,0.117H4.877c-0.067,0-0.117-0.057-0.117-0.117V13.951z"/>
	<path d="M8.399,13.951c0-0.061,0.057-0.117,0.117-0.117h0.575c0.062,0,0.118,0.057,0.118,0.117v4.098
		c0,0.061-0.057,0.117-0.118,0.117H8.517c-0.062,0-0.117-0.057-0.117-0.117V13.951z"/>
	<path d="M10.337,13.951c0-0.061,0.049-0.117,0.117-0.117h1.77c0.743,0,1.35,0.594,1.35,1.33c0,0.57-0.377,1.034-0.916,1.251
		l0.848,1.571c0.043,0.08,0,0.18-0.105,0.18h-0.648c-0.057,0-0.087-0.031-0.1-0.057l-0.823-1.641h-0.687v1.579
		c0,0.062-0.057,0.117-0.119,0.117h-0.568c-0.068,0-0.117-0.058-0.117-0.117V13.951z M12.155,15.809
		c0.328,0,0.613-0.285,0.613-0.632c0-0.329-0.285-0.601-0.613-0.601h-1.008v1.23h1.008V15.809z"/>
	<path d="M14.458,13.951c0-0.061,0.05-0.117,0.118-0.117h0.569c0.062,0,0.116,0.057,0.116,0.117v3.473h1.579
		c0.067,0,0.117,0.057,0.117,0.117v0.509c0,0.062-0.05,0.116-0.117,0.116h-2.265c-0.068,0-0.118-0.055-0.118-0.116V13.951z"/>
	<path d="M19.452,13.771c1.238,0,2.229,0.996,2.229,2.234c0,1.237-0.99,2.223-2.229,2.223s-2.223-0.984-2.223-2.223
		C17.229,14.77,18.215,13.771,19.452,13.771z M19.452,17.423c0.779,0,1.424-0.637,1.424-1.417c0-0.779-0.645-1.429-1.424-1.429
		s-1.416,0.649-1.416,1.429C18.036,16.786,18.673,17.423,19.452,17.423z"/>
	<path d="M24.403,13.771c1.236,0,2.228,0.996,2.228,2.234c0,1.237-0.989,2.223-2.228,2.223s-2.223-0.984-2.223-2.223
		C22.183,14.77,23.166,13.771,24.403,13.771z M24.403,17.423c0.779,0,1.424-0.637,1.424-1.417c0-0.779-0.645-1.429-1.424-1.429
		c-0.78,0-1.418,0.649-1.418,1.429C22.985,16.786,23.623,17.423,24.403,17.423z"/>
	<path d="M27.894,13.865c0.008-0.049,0.045-0.094,0.112-0.094h0.101c0.049,0,0.084,0.024,0.104,0.062l1.361,2.921
		c0.013,0,0.013,0,0.02,0l1.359-2.921c0.02-0.038,0.051-0.062,0.105-0.062h0.1c0.068,0,0.104,0.043,0.111,0.094l0.729,4.158
		c0.02,0.086-0.03,0.143-0.11,0.143h-0.563c-0.055,0-0.104-0.05-0.116-0.093l-0.365-2.347c-0.007,0-0.019,0-0.019,0l-1.084,2.433
		c-0.012,0.038-0.049,0.069-0.104,0.069h-0.11c-0.056,0-0.086-0.031-0.104-0.069l-1.097-2.433c0,0-0.012,0-0.018,0l-0.357,2.347
		c-0.008,0.043-0.057,0.093-0.112,0.093h-0.558c-0.08,0-0.129-0.057-0.116-0.143L27.894,13.865z"/>
</g>
</svg>
