<?xml version="1.0" encoding="utf-8"?>
<!-- Generator: Adobe Illustrator 16.0.4, SVG Export Plug-In . SVG Version: 6.00 Build 0)  -->
<!DOCTYPE svg PUBLIC "-//W3C//DTD SVG 1.1//EN" "http://www.w3.org/Graphics/SVG/1.1/DTD/svg11.dtd">
<svg version="1.1" id="Layer_1" xmlns="http://www.w3.org/2000/svg" xmlns:xlink="http://www.w3.org/1999/xlink" x="0px" y="0px"
	 width="200px" height="26px" viewBox="0 0 200 26" enable-background="new 0 0 200 26" xml:space="preserve">
<g>
	<path d="M48.179,0.303c7.054,0,12.698,5.678,12.698,12.734c0,7.055-5.645,12.661-12.698,12.661s-12.664-5.605-12.664-12.661
		C35.515,5.98,41.125,0.303,48.179,0.303z M48.179,21.113c4.444,0,8.113-3.634,8.113-8.077c0-4.444-3.669-8.148-8.113-8.148
		c-4.445,0-8.078,3.705-8.078,8.148C40.102,17.479,43.734,21.113,48.179,21.113z"/>
	<path d="M72.105,1.324c0-0.351,0.282-0.67,0.669-0.67h3.247c0.352,0,0.67,0.32,0.67,0.67v19.789h8.994
		c0.387,0,0.67,0.317,0.67,0.671v2.893c0,0.352-0.283,0.669-0.67,0.669H72.774c-0.387,0-0.669-0.317-0.669-0.669V1.324z"/>
	<path d="M98.035,21.891l1.271-2.189c0.284-0.493,0.884-0.493,1.199-0.246c0.178,0.107,3.035,2.187,5.328,2.187
		c1.835,0,3.207-1.2,3.207-2.715c0-1.798-1.515-3.035-4.478-4.233c-3.314-1.341-6.63-3.456-6.63-7.62
		c0-3.138,2.328-6.771,7.936-6.771c3.6,0,6.349,1.834,7.057,2.363c0.351,0.213,0.457,0.81,0.208,1.164l-1.338,2.009
		c-0.284,0.425-0.812,0.706-1.234,0.425c-0.283-0.177-2.964-1.941-4.906-1.941c-2.007,0-3.101,1.342-3.101,2.47
		c0,1.658,1.302,2.786,4.16,3.95c3.421,1.376,7.373,3.421,7.373,7.971c0,3.635-3.141,6.983-8.112,6.983
		c-4.446,0-7.054-2.079-7.761-2.748C97.896,22.629,97.719,22.453,98.035,21.891z"/>
	<path d="M131.655,4.888h-5.398c-0.387,0-0.67-0.316-0.67-0.671V1.324c0-0.351,0.283-0.67,0.67-0.67h15.417
		c0.386,0,0.668,0.32,0.668,0.67v2.893c0,0.355-0.282,0.671-0.668,0.671h-5.398v19.789c0,0.352-0.316,0.669-0.671,0.669h-3.278
		c-0.354,0-0.671-0.317-0.671-0.669V4.888z"/>
	<path d="M155.045,1.324c0-0.351,0.283-0.67,0.671-0.67h14.354c0.39,0,0.67,0.32,0.67,0.67v2.893c0,0.355-0.28,0.671-0.67,0.671
		h-10.44v5.784h8.713c0.354,0,0.67,0.317,0.67,0.671v2.928c0,0.386-0.316,0.67-0.67,0.67h-8.713v6.172h10.44
		c0.39,0,0.67,0.317,0.67,0.671v2.893c0,0.352-0.28,0.669-0.67,0.669h-14.354c-0.388,0-0.671-0.317-0.671-0.669V1.324z"/>
	<path d="M184.377,1.324c0-0.351,0.284-0.67,0.671-0.67h14.355c0.39,0,0.671,0.32,0.671,0.67v2.893c0,0.355-0.281,0.671-0.671,0.671
		h-10.44v5.784h8.713c0.354,0,0.669,0.317,0.669,0.671v2.928c0,0.386-0.315,0.67-0.669,0.67h-8.713v6.172h10.44
		c0.39,0,0.671,0.317,0.671,0.671v2.893c0,0.352-0.281,0.669-0.671,0.669h-14.355c-0.387,0-0.671-0.317-0.671-0.669V1.324z"/>
	<g>
		<path d="M26.682,11.38v3.24c0,0.393-0.319,0.674-0.67,0.674H20.78v9.383c0,0.352-0.318,0.67-0.67,0.67h-3.249
			c-0.384,0-0.67-0.318-0.67-0.67v-9.383H4.692v9.383c0,0.352-0.282,0.67-0.666,0.67H0.745c-0.355,0-0.67-0.318-0.67-0.67V1.323
			c0-0.352,0.315-0.67,0.67-0.67h3.281c0.384,0,0.666,0.318,0.666,0.67v9.386h11.499V1.323c0-0.352,0.286-0.67,0.67-0.67h3.249
			c0.352,0,0.67,0.318,0.67,0.67v9.386h5.231C26.362,10.709,26.682,11.023,26.682,11.38z"/>
	</g>
</g>
</svg>
