<?xml version="1.0" encoding="utf-8"?>
<!-- Generator: Adobe Illustrator 15.1.0, SVG Export Plug-In . SVG Version: 6.00 Build 0)  -->
<!DOCTYPE svg PUBLIC "-//W3C//DTD SVG 1.1//EN" "http://www.w3.org/Graphics/SVG/1.1/DTD/svg11.dtd">
<svg version="1.1" id="Layer_1" xmlns="http://www.w3.org/2000/svg" xmlns:xlink="http://www.w3.org/1999/xlink" x="0px" y="0px"
	 width="32px" height="32px" viewBox="0 0 32 32" enable-background="new 0 0 32 32" xml:space="preserve">
<g>
	<path d="M23.741,14.738h-2.882V9.569c0-0.193-0.175-0.37-0.368-0.37h-1.788c-0.214,0-0.369,0.177-0.369,0.37v5.148v0.021H12v-0.021
		V9.569c0-0.193-0.155-0.37-0.368-0.37H9.824c-0.194,0-0.369,0.177-0.369,0.37v12.862c0,0.193,0.175,0.369,0.369,0.369h1.808
		c0.213,0,0.368-0.176,0.368-0.369v-5.169h4.027h2.307v5.169c0,0.193,0.155,0.369,0.369,0.369h1.788
		c0.193,0,0.368-0.176,0.368-0.369v-5.169h2.882c0.193,0,0.369-0.155,0.369-0.369v-1.787C24.11,14.913,23.935,14.738,23.741,14.738z
		"/>
	<path d="M16,0C7.178,0,0,7.177,0,16c0,8.822,7.178,16,16,16s16-7.178,16-16C32,7.177,24.822,0,16,0z M16,29.814
		C8.383,29.814,2.186,23.617,2.186,16S8.383,2.187,16,2.187S29.813,8.383,29.813,16S23.617,29.814,16,29.814z"/>
</g>
</svg>
