<?xml version="1.0" encoding="utf-8"?>
<!-- Generator: Adobe Illustrator 15.1.0, SVG Export Plug-In . SVG Version: 6.00 Build 0)  -->
<!DOCTYPE svg PUBLIC "-//W3C//DTD SVG 1.1//EN" "http://www.w3.org/Graphics/SVG/1.1/DTD/svg11.dtd">
<svg version="1.1" id="Layer_1" xmlns="http://www.w3.org/2000/svg" xmlns:xlink="http://www.w3.org/1999/xlink" x="0px" y="0px"
	 width="32px" height="32px" viewBox="0 0 32 32" enable-background="new 0 0 32 32" xml:space="preserve">
<g>
	<path d="M31.193,13.243h-6.291V1.956c0-0.421-0.383-0.807-0.807-0.807h-3.902c-0.467,0-0.807,0.385-0.807,0.807v11.243v0.044H5.557
		v-0.044V1.956c0-0.421-0.339-0.807-0.805-0.807H0.807C0.381,1.149,0,1.534,0,1.956v28.088c0,0.421,0.381,0.807,0.807,0.807h3.945
		c0.466,0,0.805-0.386,0.805-0.807V18.756h8.795h5.033v11.288c0,0.421,0.342,0.807,0.809,0.807h3.902
		c0.424,0,0.805-0.386,0.805-0.807V18.756h6.293c0.425,0,0.807-0.339,0.807-0.805v-3.902C32,13.625,31.618,13.243,31.193,13.243z"/>
</g>
</svg>
