<?xml version="1.0" encoding="utf-8"?>
<!-- Generator: Adobe Illustrator 16.0.4, SVG Export Plug-In . SVG Version: 6.00 Build 0)  -->
<!DOCTYPE svg PUBLIC "-//W3C//DTD SVG 1.1//EN" "http://www.w3.org/Graphics/SVG/1.1/DTD/svg11.dtd">
<svg version="1.1" id="Layer_1" xmlns="http://www.w3.org/2000/svg" xmlns:xlink="http://www.w3.org/1999/xlink" x="0px" y="0px"
	 width="32px" height="32px" viewBox="0 0 32 32" enable-background="new 0 0 32 32" xml:space="preserve">
<g>
	<path d="M7.697,13.969c1.128,0,2.031,0.908,2.031,2.037s-0.903,2.025-2.031,2.025c-1.129,0-2.026-0.896-2.026-2.025
		S6.568,13.969,7.697,13.969z M7.697,17.298c0.711,0,1.298-0.581,1.298-1.292s-0.587-1.304-1.298-1.304
		c-0.712,0-1.293,0.593-1.293,1.304S6.985,17.298,7.697,17.298z"/>
	<path d="M11.525,14.132c0-0.056,0.045-0.107,0.106-0.107h0.52c0.057,0,0.107,0.052,0.107,0.107v3.166h1.439
		c0.062,0,0.106,0.051,0.106,0.107v0.463c0,0.057-0.045,0.107-0.106,0.107h-2.066c-0.062,0-0.106-0.051-0.106-0.107V14.132z"/>
	<path d="M15.674,17.423l0.203-0.351c0.046-0.079,0.142-0.079,0.192-0.039c0.028,0.017,0.485,0.35,0.853,0.35
		c0.293,0,0.513-0.192,0.513-0.435c0-0.288-0.242-0.485-0.716-0.678c-0.53-0.214-1.062-0.553-1.062-1.219
		c0-0.502,0.373-1.083,1.271-1.083c0.575,0,1.016,0.293,1.129,0.378c0.056,0.034,0.073,0.13,0.033,0.187l-0.214,0.321
		c-0.046,0.068-0.13,0.113-0.198,0.068c-0.045-0.028-0.474-0.311-0.785-0.311c-0.32,0-0.496,0.214-0.496,0.395
		c0,0.266,0.209,0.446,0.666,0.632c0.548,0.221,1.18,0.548,1.18,1.275c0,0.582-0.502,1.117-1.298,1.117
		c-0.712,0-1.129-0.332-1.242-0.439C15.652,17.541,15.624,17.513,15.674,17.423z"/>
	<path d="M21.054,14.702h-0.864c-0.062,0-0.107-0.051-0.107-0.107v-0.463c0-0.056,0.046-0.107,0.107-0.107h2.467
		c0.062,0,0.107,0.052,0.107,0.107v0.463c0,0.057-0.046,0.107-0.107,0.107h-0.863v3.166c0,0.057-0.051,0.107-0.107,0.107h-0.524
		c-0.057,0-0.107-0.051-0.107-0.107V14.702z"/>
	<path d="M24.796,14.132c0-0.056,0.045-0.107,0.107-0.107H27.2c0.062,0,0.106,0.052,0.106,0.107v0.463
		c0,0.057-0.045,0.107-0.106,0.107h-1.671v0.926h1.395c0.056,0,0.106,0.051,0.106,0.107v0.468c0,0.062-0.051,0.107-0.106,0.107
		h-1.395v0.987H27.2c0.062,0,0.106,0.051,0.106,0.107v0.463c0,0.057-0.045,0.107-0.106,0.107h-2.297
		c-0.062,0-0.107-0.051-0.107-0.107V14.132z"/>
	<path d="M29.489,14.132c0-0.056,0.045-0.107,0.106-0.107h2.297c0.062,0,0.107,0.052,0.107,0.107v0.463
		c0,0.057-0.045,0.107-0.107,0.107h-1.67v0.926h1.394c0.057,0,0.107,0.051,0.107,0.107v0.468c0,0.062-0.051,0.107-0.107,0.107
		h-1.394v0.987h1.67c0.062,0,0.107,0.051,0.107,0.107v0.463c0,0.057-0.045,0.107-0.107,0.107h-2.297
		c-0.062,0-0.106-0.051-0.106-0.107V14.132z"/>
	<g>
		<path d="M4.257,15.741v0.518c0,0.063-0.051,0.108-0.106,0.108H3.313v1.501c0,0.057-0.051,0.107-0.107,0.107h-0.52
			c-0.062,0-0.107-0.051-0.107-0.107v-1.501h-1.84v1.501c0,0.057-0.045,0.107-0.106,0.107H0.107C0.051,17.976,0,17.925,0,17.868
			v-3.736c0-0.057,0.051-0.107,0.107-0.107h0.525c0.062,0,0.106,0.051,0.106,0.107v1.502h1.84v-1.502
			c0-0.057,0.046-0.107,0.107-0.107h0.52c0.057,0,0.107,0.051,0.107,0.107v1.502H4.15C4.206,15.634,4.257,15.684,4.257,15.741z"/>
	</g>
</g>
</svg>
