<?xml version="1.0" encoding="utf-8"?>
<!-- Generator: Adobe Illustrator 15.1.0, SVG Export Plug-In . SVG Version: 6.00 Build 0)  -->
<!DOCTYPE svg PUBLIC "-//W3C//DTD SVG 1.1//EN" "http://www.w3.org/Graphics/SVG/1.1/DTD/svg11.dtd">
<svg version="1.1" id="Layer_1" xmlns="http://www.w3.org/2000/svg" xmlns:xlink="http://www.w3.org/1999/xlink" x="0px" y="0px"
	 width="32px" height="32px" viewBox="0 0 32 32" enable-background="new 0 0 32 32" xml:space="preserve">
<g>
	<path d="M23.973,0H8.029C3.639,0,0.066,3.573,0.066,7.964v16.071C0.066,28.427,3.639,32,8.029,32h15.943
		c4.389,0,7.961-3.573,7.961-7.965V7.964C31.934,3.574,28.363,0,23.973,0z M28.986,24.035c0,2.765-2.252,5.016-5.014,5.016H8.029
		c-2.766,0-5.014-2.251-5.014-5.016V13.656h6.301c-0.459,0.977-0.719,2.064-0.719,3.214c0,4.172,3.396,7.565,7.564,7.565
		c4.172,0,7.566-3.395,7.566-7.565c0-1.147-0.26-2.237-0.721-3.214h5.977v10.379H28.986z M13.023,16.87
		c0-1.731,1.41-3.14,3.141-3.14c1.732,0,3.141,1.408,3.141,3.14s-1.408,3.14-3.141,3.14C14.434,20.01,13.023,18.604,13.023,16.87z
		 M28.986,10.705h-8.443c-1.236-0.881-2.748-1.398-4.379-1.398c-1.63,0-3.141,0.52-4.378,1.398H3.018V7.964
		c0-2.765,2.248-5.014,5.014-5.014h15.941c2.762,0,5.014,2.249,5.014,5.014V10.705L28.986,10.705z"/>
	<path d="M25.789,4.739h-2.734c-0.486,0-0.885,0.397-0.885,0.886v2.734c0,0.486,0.396,0.886,0.885,0.886h2.734
		c0.486,0,0.887-0.397,0.887-0.886V5.625C26.674,5.139,26.275,4.739,25.789,4.739z"/>
</g>
</svg>
