<?xml version="1.0" encoding="utf-8"?>
<!-- Generator: Adobe Illustrator 15.1.0, SVG Export Plug-In . SVG Version: 6.00 Build 0)  -->
<!DOCTYPE svg PUBLIC "-//W3C//DTD SVG 1.1//EN" "http://www.w3.org/Graphics/SVG/1.1/DTD/svg11.dtd">
<svg version="1.1" id="Layer_1" xmlns="http://www.w3.org/2000/svg" xmlns:xlink="http://www.w3.org/1999/xlink" x="0px" y="0px"
	 width="32px" height="32px" viewBox="0 0 32 32" enable-background="new 0 0 32 32" xml:space="preserve">
<g>
	<path d="M16,0C7.177,0,0,7.178,0,16s7.177,16,16,16c8.823,0,16-7.178,16-16S24.823,0,16,0z M16,29.813
		C8.383,29.813,2.187,23.616,2.187,16C2.187,8.383,8.383,2.187,16,2.187c7.617,0,13.813,6.196,13.813,13.813
		C29.813,23.616,23.617,29.813,16,29.813z"/>
	<g>
		<path d="M19.503,8.966h-7.024c-1.934,0-3.509,1.574-3.509,3.509v7.081c0,1.935,1.575,3.509,3.509,3.509h7.024
			c1.935,0,3.508-1.574,3.508-3.509v-7.081C23.011,10.54,21.438,8.966,19.503,8.966z M21.712,19.556
			c0,1.218-0.991,2.209-2.209,2.209h-7.024c-1.218,0-2.208-0.991-2.208-2.209v-4.574h2.776c-0.203,0.431-0.316,0.91-0.316,1.417
			c0,1.838,1.496,3.333,3.333,3.333c1.838,0,3.334-1.495,3.334-3.333c0-0.507-0.114-0.986-0.317-1.417h2.633V19.556z M14.679,16.398
			c0-0.764,0.621-1.384,1.384-1.384c0.764,0,1.384,0.62,1.384,1.384c0,0.763-0.62,1.383-1.384,1.383
			C15.3,17.781,14.679,17.161,14.679,16.398z M21.712,13.683h-3.721c-0.544-0.389-1.21-0.617-1.929-0.617
			c-0.718,0-1.384,0.229-1.929,0.617H10.27v-1.208c0-1.219,0.991-2.209,2.208-2.209h7.024c1.218,0,2.209,0.99,2.209,2.209V13.683z"
			/>
		<path d="M20.304,11.054h-1.205c-0.215,0-0.39,0.175-0.39,0.39v1.205c0,0.214,0.175,0.39,0.39,0.39h1.205
			c0.214,0,0.39-0.176,0.39-0.39v-1.205C20.693,11.229,20.518,11.054,20.304,11.054z"/>
	</g>
</g>
</svg>
