<?xml version="1.0" encoding="utf-8"?>
<!-- Generator: Adobe Illustrator 15.1.0, SVG Export Plug-In . SVG Version: 6.00 Build 0)  -->
<!DOCTYPE svg PUBLIC "-//W3C//DTD SVG 1.1//EN" "http://www.w3.org/Graphics/SVG/1.1/DTD/svg11.dtd">
<svg version="1.1" id="Layer_1" xmlns="http://www.w3.org/2000/svg" xmlns:xlink="http://www.w3.org/1999/xlink" x="0px" y="0px"
	 width="32px" height="32px" viewBox="0 0 32 32" enable-background="new 0 0 32 32" xml:space="preserve">
<g>
	<path d="M16,0C7.178,0,0,7.178,0,16s7.178,16,16,16c8.823,0,16-7.178,16-16S24.823,0,16,0z M16,29.813
		C8.384,29.813,2.187,23.616,2.187,16C2.187,8.383,8.384,2.187,16,2.187c7.618,0,13.814,6.196,13.814,13.813
		C29.814,23.616,23.618,29.813,16,29.813z"/>
	<path d="M21.043,14.736c0.035-0.111,0.084-0.226,0.146-0.341c0.107-0.151,0.254-0.257,0.441-0.314
		c0.188-0.058,0.45-0.087,0.79-0.087h1.631v-2.675h-7.73v2.675h1.646c0.106,0,0.229,0.029,0.367,0.087
		c0.139,0.058,0.252,0.136,0.342,0.234c0.169,0.214,0.254,0.473,0.254,0.776v0.147h-5.791c0-0.134,0.026-0.279,0.08-0.435
		s0.134-0.296,0.24-0.421c0.116-0.143,0.276-0.243,0.482-0.301c0.205-0.058,0.392-0.087,0.562-0.087h1.177v-2.675h-7.73v2.675h2.02
		c0.223,0,0.399,0.038,0.528,0.114s0.247,0.167,0.354,0.274c0.098,0.098,0.16,0.209,0.188,0.334c0.026,0.125,0.044,0.25,0.053,0.375
		v2.126c0,0.116-0.046,0.228-0.141,0.334c-0.093,0.107-0.189,0.18-0.287,0.215c-0.231,0.125-0.468,0.196-0.709,0.214
		c-0.24,0.019-0.494,0.026-0.762,0.026H7.989v2.676h7.69v-2.676h-1.646c-0.169,0-0.33-0.06-0.481-0.18
		c-0.151-0.121-0.263-0.262-0.334-0.422c-0.09-0.188-0.125-0.388-0.107-0.602h5.845v0.094c0,0.053-0.007,0.127-0.02,0.221
		c-0.014,0.094-0.043,0.189-0.087,0.287c-0.027,0.062-0.074,0.129-0.141,0.201c-0.067,0.07-0.141,0.136-0.221,0.193
		c-0.08,0.059-0.165,0.106-0.254,0.147c-0.09,0.04-0.165,0.06-0.228,0.06h-1.686v2.676h7.718V18.1H22.34
		c-0.196,0-0.386-0.031-0.568-0.094s-0.346-0.16-0.488-0.294c-0.098-0.08-0.172-0.207-0.221-0.381s-0.073-0.337-0.073-0.488v-1.752
		C20.989,14.966,21.007,14.848,21.043,14.736z"/>
</g>
</svg>
