<?xml version="1.0" encoding="utf-8"?>
<!-- Generator: Adobe Illustrator 15.1.0, SVG Export Plug-In . SVG Version: 6.00 Build 0)  -->
<!DOCTYPE svg PUBLIC "-//W3C//DTD SVG 1.1//EN" "http://www.w3.org/Graphics/SVG/1.1/DTD/svg11.dtd">
<svg version="1.1" id="Layer_1" xmlns="http://www.w3.org/2000/svg" xmlns:xlink="http://www.w3.org/1999/xlink" x="0px" y="0px"
	 width="32px" height="32px" viewBox="0 0 32 32" enable-background="new 0 0 32 32" xml:space="preserve">
<path d="M26.021,13.487c0.069-0.221,0.166-0.447,0.289-0.676c0.215-0.302,0.506-0.51,0.879-0.625
	c0.371-0.117,0.895-0.174,1.568-0.174H32V6.696H16.636v5.316h3.271c0.212,0,0.456,0.059,0.729,0.174
	c0.275,0.114,0.501,0.27,0.679,0.463c0.338,0.427,0.506,0.94,0.506,1.543v0.293H10.312c0-0.267,0.053-0.555,0.158-0.865
	c0.106-0.309,0.266-0.588,0.479-0.837c0.229-0.283,0.549-0.482,0.957-0.599c0.407-0.115,0.778-0.173,1.116-0.173h2.34V6.696H0v5.315
	h4.014c0.442,0,0.793,0.076,1.049,0.228c0.256,0.15,0.492,0.332,0.705,0.545c0.193,0.195,0.317,0.417,0.371,0.664
	c0.053,0.248,0.088,0.496,0.105,0.744v4.228c0,0.229-0.092,0.451-0.279,0.662c-0.186,0.213-0.376,0.354-0.57,0.426
	c-0.461,0.25-0.931,0.392-1.408,0.427c-0.479,0.037-0.983,0.055-1.516,0.055H0.08v5.313h15.284v-5.313h-3.271
	c-0.338,0-0.656-0.121-0.957-0.359c-0.302-0.24-0.522-0.52-0.664-0.838c-0.179-0.371-0.25-0.771-0.214-1.197h11.616v0.188
	c0,0.104-0.014,0.252-0.04,0.438c-0.026,0.188-0.085,0.377-0.173,0.571c-0.055,0.125-0.146,0.256-0.279,0.397
	c-0.133,0.144-0.279,0.271-0.438,0.386c-0.159,0.116-0.328,0.213-0.506,0.293s-0.328,0.12-0.453,0.12h-3.35v5.314h15.338v-5.129
	H28.6c-0.391,0-0.767-0.062-1.129-0.188c-0.365-0.125-0.688-0.318-0.971-0.586c-0.195-0.158-0.342-0.41-0.438-0.756
	c-0.1-0.347-0.146-0.668-0.146-0.972v-3.481C25.913,13.944,25.949,13.71,26.021,13.487z"/>
</svg>
