<?xml version="1.0" encoding="utf-8"?>
<!-- Generator: Adobe Illustrator 15.1.0, SVG Export Plug-In . SVG Version: 6.00 Build 0)  -->
<!DOCTYPE svg PUBLIC "-//W3C//DTD SVG 1.1//EN" "http://www.w3.org/Graphics/SVG/1.1/DTD/svg11.dtd">
<svg version="1.1" id="Layer_1" xmlns="http://www.w3.org/2000/svg" xmlns:xlink="http://www.w3.org/1999/xlink" x="0px" y="0px"
	 width="32px" height="32px" viewBox="0 0 32 32" enable-background="new 0 0 32 32" xml:space="preserve">
<g>
	<path d="M31.406,20.089H0.596c-0.016,0-0.029,0.007-0.039,0.021c-0.011,0.011-0.014,0.027-0.01,0.041
		c0.158,0.595,0.357,1.189,0.59,1.774c0.008,0.019,0.026,0.031,0.047,0.031h29.631c0.021,0,0.039-0.013,0.045-0.031
		c0.234-0.586,0.436-1.183,0.594-1.774c0.004-0.014,0.001-0.03-0.01-0.041C31.438,20.096,31.423,20.089,31.406,20.089z"/>
	<path d="M2.948,25.111c-0.019,0-0.036,0.01-0.044,0.024c-0.008,0.017-0.008,0.036,0.004,0.052c0.438,0.623,0.923,1.22,1.445,1.773
		c0.01,0.01,0.022,0.018,0.037,0.018h23.226c0.014,0,0.026-0.008,0.034-0.018c0.522-0.555,1.01-1.15,1.445-1.773
		c0.012-0.016,0.014-0.035,0.006-0.052c-0.011-0.016-0.026-0.024-0.045-0.024H2.948z"/>
	<path d="M8.705,30.132c-0.023,0-0.043,0.017-0.048,0.038c-0.005,0.023,0.005,0.046,0.024,0.059C10.966,31.402,13.427,32,16,32
		c2.574,0,5.037-0.596,7.318-1.771c0.02-0.013,0.031-0.035,0.023-0.059c-0.005-0.021-0.023-0.038-0.047-0.038H8.705L8.705,30.132z"
		/>
	<path d="M31.977,15.114c-0.002-0.026-0.022-0.048-0.051-0.048H16.051v-3.154h15.355c0,0,0.002,0,0.003,0
		c0.026,0,0.05-0.021,0.05-0.051c0-0.01-0.003-0.02-0.008-0.026c-0.158-0.587-0.355-1.179-0.588-1.759
		c-0.008-0.02-0.025-0.031-0.047-0.031H16.051V6.891h13.006c0,0,0,0,0.002,0c0.026,0,0.049-0.022,0.049-0.05
		c0-0.016-0.008-0.03-0.019-0.039c-0.437-0.62-0.92-1.212-1.438-1.763c-0.008-0.01-0.021-0.016-0.034-0.016H16.051V1.869h7.246
		h0.001c0.022-0.002,0.052-0.021,0.052-0.051c0-0.022-0.018-0.041-0.037-0.047C21.032,0.596,18.57,0,16,0
		C7.411,0,0.391,6.632,0.02,15.1c-0.002,0.006,0,0.014,0.002,0.02l0,0c0,0.005,0,0.013,0.002,0.021C0.008,15.445,0,15.727,0,16
		c0,0.282,0.009,0.572,0.025,0.887c0.002,0.026,0.023,0.047,0.05,0.047h31.85c0.027,0,0.048-0.021,0.05-0.047
		C31.992,16.57,32,16.281,32,16S31.993,15.43,31.977,15.114z M13.67,8.297l-2.135,2.081l0.504,2.938
		c0.003,0.018-0.004,0.037-0.02,0.048c-0.009,0.007-0.02,0.01-0.029,0.01c-0.008,0-0.016-0.002-0.023-0.005l-2.639-1.387
		l-2.639,1.387c-0.017,0.009-0.037,0.007-0.053-0.004c-0.015-0.012-0.022-0.03-0.02-0.049l0.504-2.938L4.986,8.298
		c-0.014-0.013-0.02-0.034-0.014-0.051c0.006-0.019,0.022-0.031,0.041-0.034l2.948-0.429l1.32-2.673
		c0.017-0.033,0.071-0.033,0.089,0l1.32,2.673l2.949,0.429c0.02,0.002,0.034,0.016,0.041,0.034
		C13.688,8.264,13.684,8.283,13.67,8.297z"/>
</g>
</svg>
