<?xml version="1.0" encoding="utf-8"?>
<!-- Generator: Adobe Illustrator 15.1.0, SVG Export Plug-In . SVG Version: 6.00 Build 0)  -->
<!DOCTYPE svg PUBLIC "-//W3C//DTD SVG 1.1//EN" "http://www.w3.org/Graphics/SVG/1.1/DTD/svg11.dtd">
<svg version="1.1" id="Layer_1" xmlns="http://www.w3.org/2000/svg" xmlns:xlink="http://www.w3.org/1999/xlink" x="0px" y="0px"
	 width="32px" height="32px" viewBox="0 0 32 32" enable-background="new 0 0 32 32" xml:space="preserve">
<g>
	<g>
		<path d="M24.64,18.293H7.36c-0.008,0-0.017,0.005-0.021,0.012c-0.006,0.007-0.008,0.016-0.005,0.023
			c0.089,0.333,0.2,0.667,0.331,0.995c0.004,0.011,0.015,0.018,0.025,0.018H24.31c0.012,0,0.021-0.007,0.026-0.018
			c0.131-0.328,0.242-0.663,0.331-0.995c0.003-0.008,0.001-0.017-0.005-0.023C24.657,18.298,24.649,18.293,24.64,18.293z"/>
		<path d="M23.321,21.11H8.68c-0.011,0-0.021,0.005-0.025,0.015c-0.005,0.009-0.004,0.021,0.002,0.029
			c0.245,0.349,0.518,0.683,0.811,0.994c0.006,0.006,0.013,0.009,0.021,0.009h13.026c0.008,0,0.015-0.003,0.02-0.009
			c0.293-0.311,0.566-0.646,0.812-0.994c0.006-0.009,0.007-0.021,0.002-0.029C23.342,21.115,23.332,21.11,23.321,21.11z"/>
		<path d="M20.093,23.926h-8.184c-0.014,0-0.024,0.01-0.027,0.022c-0.003,0.012,0.003,0.025,0.014,0.031
			c1.281,0.66,2.661,0.994,4.104,0.994s2.824-0.334,4.104-0.994c0.012-0.006,0.018-0.02,0.015-0.031
			C20.116,23.936,20.105,23.926,20.093,23.926z"/>
	</g>
	<g>
		<path d="M16,0C7.178,0,0,7.178,0,16s7.178,16,16,16s16-7.178,16-16S24.822,0,16,0z M16,29.814C8.384,29.814,2.187,23.617,2.187,16
			S8.384,2.187,16,2.187c7.617,0,13.813,6.196,13.813,13.813S23.617,29.814,16,29.814z"/>
		<path d="M24.959,15.503c-0.001-0.015-0.013-0.026-0.027-0.026h-8.903v-1.77h8.611c0.001,0,0.001,0,0.002,0
			c0.016,0,0.028-0.012,0.028-0.027c0-0.006-0.002-0.011-0.005-0.016c-0.089-0.329-0.199-0.661-0.329-0.986
			c-0.005-0.011-0.015-0.018-0.026-0.018h-8.281v-1.77h7.293c0.001,0,0.001,0,0.002,0c0.015,0,0.027-0.013,0.027-0.028
			c0-0.009-0.004-0.017-0.011-0.021c-0.244-0.348-0.516-0.68-0.807-0.988c-0.005-0.006-0.012-0.009-0.02-0.009h-6.485v-1.77h4.064
			l0,0c0.013-0.002,0.028-0.013,0.028-0.028c0-0.013-0.009-0.023-0.021-0.026C18.822,7.36,17.442,7.026,16,7.026
			c-4.816,0-8.754,3.72-8.963,8.469c0,0.004,0.001,0.007,0.002,0.011l0,0c0,0.003,0,0.007,0.002,0.012
			c-0.01,0.172-0.015,0.33-0.015,0.482c0,0.158,0.005,0.321,0.015,0.497c0.001,0.016,0.014,0.027,0.028,0.027h17.862
			c0.015,0,0.026-0.012,0.027-0.027c0.01-0.177,0.015-0.339,0.015-0.497C24.974,15.843,24.969,15.68,24.959,15.503z M14.693,11.68
			l-1.198,1.167l0.283,1.647c0.002,0.011-0.002,0.021-0.012,0.027c-0.004,0.004-0.01,0.006-0.016,0.006
			c-0.005,0-0.009-0.001-0.014-0.004l-1.479-0.777l-1.479,0.777c-0.01,0.006-0.021,0.005-0.029-0.002
			c-0.009-0.006-0.013-0.017-0.011-0.027l0.282-1.647L9.823,11.68c-0.008-0.008-0.01-0.019-0.007-0.028
			c0.004-0.011,0.013-0.018,0.022-0.02l1.654-0.24l0.74-1.499c0.01-0.02,0.041-0.02,0.05,0l0.74,1.499l1.654,0.24
			c0.011,0.002,0.02,0.009,0.022,0.02C14.703,11.661,14.7,11.672,14.693,11.68z"/>
	</g>
</g>
</svg>
