<?xml version="1.0" encoding="utf-8"?>
<!-- Generator: Adobe Illustrator 15.1.0, SVG Export Plug-In . SVG Version: 6.00 Build 0)  -->
<!DOCTYPE svg PUBLIC "-//W3C//DTD SVG 1.1//EN" "http://www.w3.org/Graphics/SVG/1.1/DTD/svg11.dtd">
<svg version="1.1" id="Layer_1" xmlns="http://www.w3.org/2000/svg" xmlns:xlink="http://www.w3.org/1999/xlink" x="0px" y="0px"
	 width="32px" height="32px" viewBox="0 0 32 32" enable-background="new 0 0 32 32" xml:space="preserve">
<path d="M31.08,5.229H0.921C0.413,5.229,0,5.643,0,6.15V25.85c0,0.508,0.413,0.922,0.921,0.922H31.08c0.508,0,0.92-0.414,0.92-0.922
	V6.15C32,5.643,31.588,5.229,31.08,5.229z M28.521,7.07L16,17.443L3.479,7.07H28.521z M1.843,8.109l10.825,8.967l-10.825,7.07V8.109
	z M4.018,24.926l10.135-6.619l1.26,1.041c0.171,0.146,0.379,0.213,0.588,0.213c0.208,0,0.417-0.067,0.588-0.213l1.26-1.041
	l10.135,6.619H4.018z M30.156,24.146l-10.823-7.07l10.823-8.967V24.146z"/>
</svg>
