<?xml version="1.0" encoding="utf-8"?>
<!-- Generator: Adobe Illustrator 15.1.0, SVG Export Plug-In . SVG Version: 6.00 Build 0)  -->
<!DOCTYPE svg PUBLIC "-//W3C//DTD SVG 1.1//EN" "http://www.w3.org/Graphics/SVG/1.1/DTD/svg11.dtd">
<svg version="1.1" id="Layer_1" xmlns="http://www.w3.org/2000/svg" xmlns:xlink="http://www.w3.org/1999/xlink" x="0px" y="0px"
	 width="32px" height="32px" viewBox="0 0 32 32" enable-background="new 0 0 32 32" xml:space="preserve">
<g>
	<path d="M16,0C7.178,0,0,7.178,0,16s7.178,16,16,16c8.823,0,16-7.178,16-16S24.823,0,16,0z M16,29.814
		C8.384,29.814,2.187,23.617,2.187,16C2.187,8.384,8.384,2.187,16,2.187S29.813,8.384,29.813,16
		C29.813,23.617,23.616,29.814,16,29.814z"/>
	<path d="M24.554,10.159H7.446c-0.289,0-0.523,0.234-0.523,0.523v11.175c0,0.288,0.234,0.522,0.523,0.522h17.107
		c0.289,0,0.523-0.234,0.523-0.522V10.683C25.077,10.394,24.843,10.159,24.554,10.159z M23.104,11.205L16,17.089l-7.104-5.884
		H23.104z M7.969,11.794l6.141,5.086l-6.141,4.012V11.794z M9.202,21.334l5.75-3.756l0.715,0.592c0.097,0.08,0.215,0.12,0.333,0.12
		c0.119,0,0.236-0.04,0.334-0.12l0.714-0.592l5.75,3.756H9.202z M24.031,20.892l-6.141-4.012l6.141-5.086V20.892z"/>
</g>
</svg>
