<?xml version="1.0" encoding="utf-8"?>
<!-- Generator: Adobe Illustrator 15.1.0, SVG Export Plug-In . SVG Version: 6.00 Build 0)  -->
<!DOCTYPE svg PUBLIC "-//W3C//DTD SVG 1.1//EN" "http://www.w3.org/Graphics/SVG/1.1/DTD/svg11.dtd">
<svg version="1.1" id="Layer_1" xmlns="http://www.w3.org/2000/svg" xmlns:xlink="http://www.w3.org/1999/xlink" x="0px" y="0px"
	 width="32px" height="32px" viewBox="0 0 32 32" enable-background="new 0 0 32 32" xml:space="preserve">
<g>
	<path d="M16,0C7.178,0,0,7.178,0,16s7.178,16,16,16s16-7.178,16-16S24.822,0,16,0z M16,29.813C8.383,29.813,2.186,23.616,2.186,16
		C2.186,8.383,8.383,2.187,16,2.187c7.616,0,13.813,6.196,13.813,13.813C29.813,23.616,23.616,29.813,16,29.813z"/>
	<g>
		<path d="M9.247,14.172c0.805,0,1.449,0.648,1.449,1.453c0,0.548-0.318,1.031-0.785,1.288l0.503,0.794
			c0.036,0.056,0,0.12-0.064,0.12H9.923c-0.017,0-0.053-0.016-0.064-0.04l-0.431-0.729c-0.064,0.009-0.133,0.012-0.181,0.012
			c-0.805,0-1.445-0.64-1.445-1.445S8.442,14.172,9.247,14.172z M9.247,16.547c0.507,0,0.925-0.414,0.925-0.921
			c0-0.507-0.418-0.929-0.925-0.929c-0.507,0-0.922,0.422-0.922,0.929C8.325,16.133,8.74,16.547,9.247,16.547z"/>
		<path d="M11.188,14.289c0-0.04,0.036-0.076,0.077-0.076h0.382c0.045,0,0.077,0.036,0.077,0.076v1.646
			c0,0.342,0.233,0.611,0.584,0.611c0.35,0,0.587-0.27,0.587-0.607v-1.65c0-0.04,0.032-0.076,0.077-0.076h0.382
			c0.041,0,0.077,0.036,0.077,0.076v1.675c0,0.611-0.487,1.106-1.123,1.106c-0.632,0-1.119-0.495-1.119-1.106V14.289z"/>
		<path d="M13.716,16.926l1.251-2.709c0.012-0.024,0.032-0.044,0.068-0.044h0.041c0.04,0,0.056,0.021,0.068,0.044l1.24,2.709
			c0.024,0.052-0.007,0.104-0.068,0.104h-0.35c-0.061,0-0.089-0.024-0.117-0.08l-0.197-0.435h-1.203L14.25,16.95
			c-0.016,0.04-0.052,0.08-0.117,0.08h-0.35C13.723,17.03,13.691,16.978,13.716,16.926z M15.454,16.068l-0.402-0.885H15.04
			l-0.395,0.885H15.454z"/>
		<path d="M16.75,14.289c0-0.04,0.033-0.076,0.077-0.076h0.37c0.041,0,0.076,0.036,0.076,0.076v2.258h1.027
			c0.044,0,0.076,0.036,0.076,0.077v0.33c0,0.04-0.032,0.076-0.076,0.076h-1.474c-0.044,0-0.077-0.036-0.077-0.076V14.289z"/>
		<path d="M18.783,14.289c0-0.04,0.036-0.076,0.077-0.076h0.374c0.04,0,0.076,0.036,0.076,0.076v2.665
			c0,0.04-0.036,0.076-0.076,0.076H18.86c-0.041,0-0.077-0.036-0.077-0.076V14.289z"/>
		<path d="M20.422,14.696h-0.615c-0.045,0-0.077-0.037-0.077-0.077v-0.331c0-0.04,0.032-0.076,0.077-0.076h1.758
			c0.044,0,0.077,0.036,0.077,0.076v0.331c0,0.04-0.033,0.077-0.077,0.077h-0.615v2.258c0,0.04-0.036,0.076-0.076,0.076h-0.375
			c-0.04,0-0.076-0.036-0.076-0.076V14.696z"/>
		<path d="M22.732,15.674l-0.918-1.345c-0.032-0.053,0-0.116,0.064-0.116h0.41c0.033,0,0.053,0.02,0.065,0.036l0.644,0.925
			l0.644-0.925c0.012-0.017,0.032-0.036,0.064-0.036h0.415c0.064,0,0.097,0.063,0.064,0.116l-0.931,1.34v1.284
			c0,0.04-0.035,0.076-0.076,0.076h-0.37c-0.044,0-0.076-0.036-0.076-0.076V15.674z"/>
	</g>
</g>
</svg>
