<?xml version="1.0" encoding="utf-8"?>
<!-- Generator: Adobe Illustrator 15.1.0, SVG Export Plug-In . SVG Version: 6.00 Build 0)  -->
<!DOCTYPE svg PUBLIC "-//W3C//DTD SVG 1.1//EN" "http://www.w3.org/Graphics/SVG/1.1/DTD/svg11.dtd">
<svg version="1.1" id="Layer_1" xmlns="http://www.w3.org/2000/svg" xmlns:xlink="http://www.w3.org/1999/xlink" x="0px" y="0px"
	 width="32px" height="32px" viewBox="0 0 32 32" enable-background="new 0 0 32 32" xml:space="preserve">
<g>
	<path d="M2.82,12.434c1.57,0,2.828,1.266,2.828,2.836c0,1.068-0.621,2.013-1.532,2.515l0.981,1.548c0.07,0.109,0,0.234-0.125,0.234
		H4.14c-0.033,0-0.103-0.03-0.125-0.077l-0.842-1.423c-0.126,0.017-0.26,0.022-0.354,0.022C1.249,18.089,0,16.841,0,15.27
		C0,13.699,1.25,12.434,2.82,12.434z M2.82,17.068c0.99,0,1.807-0.81,1.807-1.799c0-0.99-0.816-1.813-1.807-1.813
		c-0.989,0-1.799,0.823-1.799,1.813S1.831,17.068,2.82,17.068z"/>
	<path d="M6.607,12.661c0-0.077,0.07-0.147,0.149-0.147h0.745c0.087,0,0.148,0.07,0.148,0.147v3.213
		c0,0.668,0.457,1.194,1.141,1.194s1.146-0.526,1.146-1.188V12.66c0-0.077,0.062-0.148,0.148-0.148h0.746
		c0.079,0,0.15,0.071,0.15,0.148v3.27c0,1.193-0.95,2.158-2.191,2.158c-1.232,0-2.184-0.966-2.184-2.158V12.661L6.607,12.661z"/>
	<path d="M11.542,17.809l2.442-5.289c0.022-0.045,0.062-0.086,0.133-0.086h0.078c0.078,0,0.109,0.041,0.133,0.086l2.419,5.289
		c0.047,0.102-0.016,0.203-0.134,0.203h-0.682c-0.119,0-0.174-0.047-0.229-0.156l-0.385-0.851H12.97l-0.387,0.851
		c-0.031,0.076-0.102,0.156-0.229,0.156h-0.683C11.556,18.012,11.494,17.909,11.542,17.809z M14.933,16.133l-0.785-1.727h-0.023
		l-0.77,1.727H14.933z"/>
	<path d="M17.463,12.661c0-0.077,0.062-0.147,0.149-0.147h0.723c0.078,0,0.148,0.07,0.148,0.147v4.407h2.005
		c0.085,0,0.149,0.07,0.149,0.148v0.646c0,0.076-0.064,0.147-0.149,0.147h-2.876c-0.088,0-0.149-0.071-0.149-0.147V12.661z"/>
	<path d="M21.431,12.661c0-0.077,0.071-0.147,0.149-0.147h0.729c0.078,0,0.148,0.07,0.148,0.147v5.2c0,0.078-0.07,0.149-0.148,0.149
		H21.58c-0.078,0-0.149-0.071-0.149-0.149V12.661z"/>
	<path d="M24.629,13.456h-1.2c-0.088,0-0.152-0.071-0.152-0.149v-0.646c0-0.077,0.064-0.147,0.152-0.147h3.432
		c0.086,0,0.148,0.07,0.148,0.147v0.646c0,0.078-0.062,0.149-0.148,0.149h-1.202v4.407c0,0.076-0.071,0.147-0.149,0.147h-0.73
		c-0.078,0-0.149-0.071-0.149-0.147V13.456L24.629,13.456z"/>
	<path d="M29.138,15.365l-1.791-2.625c-0.062-0.102,0-0.227,0.125-0.227h0.803c0.062,0,0.102,0.038,0.125,0.07l1.257,1.807
		l1.258-1.807c0.022-0.032,0.063-0.07,0.126-0.07h0.811c0.125,0,0.188,0.125,0.125,0.227l-1.814,2.617v2.506
		c0,0.076-0.07,0.147-0.148,0.147H29.29c-0.087,0-0.15-0.071-0.15-0.147L29.138,15.365L29.138,15.365z"/>
</g>
</svg>
