<?xml version="1.0" encoding="utf-8"?>
<!-- Generator: Adobe Illustrator 16.0.4, SVG Export Plug-In . SVG Version: 6.00 Build 0)  -->
<!DOCTYPE svg PUBLIC "-//W3C//DTD SVG 1.1//EN" "http://www.w3.org/Graphics/SVG/1.1/DTD/svg11.dtd">
<svg version="1.1" id="Layer_1" xmlns="http://www.w3.org/2000/svg" xmlns:xlink="http://www.w3.org/1999/xlink" x="0px" y="0px"
	 width="32px" height="32px" viewBox="0 0 32 32" enable-background="new 0 0 32 32" xml:space="preserve">
<g>
	<path d="M16,0C7.178,0,0,7.178,0,16s7.178,16,16,16s16-7.178,16-16S24.822,0,16,0z M16,29.812C8.383,29.812,2.187,23.616,2.187,16
		C2.187,8.383,8.383,2.187,16,2.187S29.813,8.383,29.813,16C29.813,23.616,23.617,29.812,16,29.812z"/>
	<path d="M12.432,14.99v-1.905l2,1.999c0.105,0.105,0.277,0.105,0.382,0l0.593-0.592c0.105-0.105,0.105-0.277,0-0.383l-3.473-3.473
		c-0.105-0.105-0.277-0.105-0.383,0l-3.473,3.473c-0.104,0.105-0.104,0.277,0,0.383l0.593,0.592c0.105,0.106,0.276,0.106,0.383,0
		l2-1.999v1.904l-2.975,2.976c-0.105,0.105-0.105,0.276,0,0.383l0.592,0.592c0.105,0.105,0.277,0.105,0.383,0l2-2v0.376
		c0,0.001,0,0.001,0,0.001v3.854c0,0.149,0.121,0.271,0.271,0.271h0.837c0.149,0,0.271-0.121,0.271-0.271v-4.23l2,1.998
		c0.105,0.106,0.277,0.105,0.382,0.001l0.593-0.593c0.105-0.105,0.105-0.276,0-0.383L12.432,14.99z"/>
	<path d="M20.945,14.99v-1.905l2,1.999c0.105,0.105,0.277,0.105,0.382,0l0.593-0.592c0.105-0.105,0.105-0.277,0-0.383l-3.473-3.473
		c-0.105-0.105-0.277-0.105-0.383,0l-3.473,3.473c-0.104,0.105-0.105,0.277,0,0.383l0.593,0.592c0.105,0.106,0.277,0.106,0.383,0
		l2-1.999v1.904l-2.975,2.976c-0.105,0.105-0.105,0.276,0,0.383l0.592,0.592c0.106,0.105,0.277,0.105,0.383,0l2-2v0.376
		c0,0.001,0,0.001,0,0.002v3.854c0,0.149,0.121,0.271,0.271,0.271h0.838c0.148,0,0.27-0.121,0.27-0.271v-3.855V16.94l2,1.998
		c0.105,0.106,0.277,0.105,0.383,0.001l0.593-0.593c0.104-0.105,0.104-0.276-0.001-0.383L20.945,14.99z"/>
</g>
</svg>
