<?xml version="1.0" encoding="utf-8"?>
<!-- Generator: Adobe Illustrator 16.0.4, SVG Export Plug-In . SVG Version: 6.00 Build 0)  -->
<!DOCTYPE svg PUBLIC "-//W3C//DTD SVG 1.1//EN" "http://www.w3.org/Graphics/SVG/1.1/DTD/svg11.dtd">
<svg version="1.1" id="Layer_1" xmlns="http://www.w3.org/2000/svg" xmlns:xlink="http://www.w3.org/1999/xlink" x="0px" y="0px"
	 width="200px" height="200px" viewBox="0 0 200 200" enable-background="new 0 0 200 200" xml:space="preserve">
<g>
	<path d="M100.001,0C44.861,0,0,44.862,0,100.001C0,155.141,44.861,200,100.001,200C155.142,200,200,155.141,200,100.001
		C200,44.862,155.142,0,100.001,0z M100.001,186.335c-47.604,0-86.333-38.729-86.333-86.334s38.729-86.333,86.333-86.333
		c47.608,0,86.334,38.728,86.334,86.333S147.609,186.335,100.001,186.335z"/>
	<path d="M97.133,45.868c-1.089,1.594-26.643,39.499-26.643,73.201c0,15.104,11.399,27.583,26.039,29.312v3.7
		c0,1.919,1.556,3.475,3.471,3.475c1.916,0,3.474-1.556,3.474-3.475v-3.7c14.64-1.729,26.037-14.206,26.037-29.312
		c0-33.702-25.553-71.607-26.641-73.201C101.577,43.97,98.424,43.97,97.133,45.868z M103.474,141.36v-12.17l9.396-9.403
		c1.356-1.36,1.356-3.557,0-4.915s-3.555-1.358-4.908,0l-4.488,4.494v-14.501l9.396-9.405c1.356-1.36,1.356-3.556,0-4.917
		c-1.356-1.355-3.555-1.355-4.908,0l-4.488,4.497V75.623c0-1.919-1.558-3.476-3.474-3.476c-1.915,0-3.471,1.556-3.471,3.476V95.04
		l-4.489-4.497c-1.356-1.355-3.554-1.355-4.909,0c-1.356,1.36-1.356,3.557,0,4.917l9.398,9.405v14.501l-4.489-4.494
		c-1.356-1.358-3.554-1.358-4.909,0c-1.356,1.358-1.356,3.555,0,4.915l9.398,9.403v12.17c-10.799-1.682-19.095-11.024-19.095-22.292
		c0-25.072,15.913-53.831,22.565-64.758c6.653,10.927,22.566,39.686,22.566,64.758C122.566,130.336,114.272,139.677,103.474,141.36z
		"/>
</g>
</svg>
