<?xml version="1.0" encoding="utf-8"?>
<!-- Generator: Adobe Illustrator 16.0.4, SVG Export Plug-In . SVG Version: 6.00 Build 0)  -->
<!DOCTYPE svg PUBLIC "-//W3C//DTD SVG 1.1//EN" "http://www.w3.org/Graphics/SVG/1.1/DTD/svg11.dtd">
<svg version="1.1" id="Layer_1" xmlns="http://www.w3.org/2000/svg" xmlns:xlink="http://www.w3.org/1999/xlink" x="0px" y="0px"
	 width="200px" height="200px" viewBox="0 0 200 200" enable-background="new 0 0 200 200" xml:space="preserve">
<g id="Leaf">
	<g>
		<path d="M105.163,2.547c-2.325-3.417-8.001-3.417-10.326,0c-1.959,2.869-47.956,71.098-47.956,131.759
			c0,27.193,20.518,49.652,46.87,52.765v6.658c0,3.454,2.801,6.255,6.249,6.255s6.249-2.801,6.249-6.255v-6.658
			c26.352-3.112,46.869-25.571,46.869-52.765C153.118,73.645,107.122,5.416,105.163,2.547z M106.249,174.432v-21.902l16.917-16.929
			c2.441-2.447,2.441-6.402,0-8.85c-2.441-2.44-6.396-2.44-8.837,0l-8.08,8.093v-26.102l16.917-16.929
			c2.441-2.447,2.441-6.402,0-8.849c-2.441-2.441-6.396-2.441-8.837,0l-8.08,8.092V56.105c0-3.454-2.801-6.255-6.249-6.255
			s-6.249,2.801-6.249,6.255v34.951l-8.08-8.092c-2.441-2.441-6.396-2.441-8.837,0c-2.441,2.447-2.441,6.402,0,8.849l16.917,16.929
			v26.102l-8.08-8.093c-2.441-2.44-6.396-2.44-8.837,0c-2.441,2.447-2.441,6.402,0,8.85l16.917,16.929v21.902
			c-19.438-3.026-34.371-19.84-34.371-40.125c0-45.13,28.646-96.894,40.62-116.563c11.974,19.669,40.62,71.433,40.62,116.563
			C140.62,154.592,125.687,171.405,106.249,174.432z"/>
	</g>
</g>
</svg>
