<?xml version="1.0" encoding="utf-8"?>
<!-- Generator: Adobe Illustrator 15.1.0, SVG Export Plug-In . SVG Version: 6.00 Build 0)  -->
<!DOCTYPE svg PUBLIC "-//W3C//DTD SVG 1.1//EN" "http://www.w3.org/Graphics/SVG/1.1/DTD/svg11.dtd">
<svg version="1.1" id="Layer_1" xmlns="http://www.w3.org/2000/svg" xmlns:xlink="http://www.w3.org/1999/xlink" x="0px" y="0px"
	 width="32px" height="32px" viewBox="0 0 32 32" enable-background="new 0 0 32 32" xml:space="preserve">
<g>
	<g>
		<path d="M16,0C7.178,0,0,7.178,0,16s7.178,16,16,16c8.822,0,16-7.178,16-16S24.822,0,16,0z M16,29.814
			C8.383,29.814,2.186,23.617,2.186,16C2.186,8.382,8.383,2.186,16,2.186S29.812,8.383,29.812,16S23.617,29.814,16,29.814z"/>
	</g>
	<g>
		<path d="M24.065,14.297c0-1.491-1.228-2.682-2.731-2.682h-3.408c-0.137,0-0.238,0.112-0.238,0.238v8.295
			c0,0.125,0.102,0.236,0.238,0.236h0.814c0.126,0,0.238-0.111,0.238-0.236v-3.195h1.893l1.666,3.32
			c0.025,0.051,0.1,0.111,0.201,0.111h0.978c0.212,0,0.3-0.199,0.212-0.363l-1.717-3.182C23.301,16.402,24.065,15.449,24.065,14.297
			z M21.234,15.875h-2.23V12.83h2.23c0.814,0,1.528,0.677,1.528,1.492C22.763,15.187,22.049,15.875,21.234,15.875z"/>
		<path d="M14.865,15.289c0.496,0,0.926-0.183,1.279-0.541s0.532-0.792,0.532-1.291c0-0.502-0.181-0.937-0.533-1.291
			s-0.788-0.537-1.294-0.537c-0.502,0-0.938,0.181-1.294,0.533c-0.356,0.352-0.539,0.784-0.539,1.28v0.83h-1.422v-0.83
			c0-0.498-0.181-0.929-0.538-1.28c-0.357-0.353-0.792-0.533-1.294-0.533s-0.937,0.181-1.292,0.537
			c-0.355,0.354-0.536,0.789-0.536,1.291c0,0.498,0.181,0.933,0.536,1.291c0.354,0.358,0.783,0.541,1.275,0.541h0.832v1.424H9.746
			c-0.492,0-0.92,0.183-1.274,0.54s-0.536,0.79-0.536,1.286c0,0.505,0.182,0.942,0.536,1.297s0.79,0.535,1.292,0.535
			c0.501,0,0.938-0.179,1.294-0.532s0.538-0.782,0.538-1.279v-0.83h1.422v0.83c0,0.495,0.184,0.926,0.539,1.279
			s0.792,0.532,1.294,0.532c0.504,0,0.938-0.179,1.293-0.537c0.354-0.354,0.534-0.791,0.534-1.296c0-0.495-0.182-0.928-0.532-1.284
			c-0.354-0.358-0.784-0.541-1.278-0.541h-0.832v-1.424H14.865z M14.035,13.456c0-0.225,0.077-0.412,0.238-0.573
			c0.162-0.159,0.35-0.237,0.577-0.237c0.226,0,0.413,0.079,0.573,0.237c0.16,0.161,0.238,0.349,0.238,0.573
			c0,0.227-0.08,0.416-0.24,0.578c-0.161,0.16-0.348,0.238-0.571,0.238h-0.815V13.456L14.035,13.456z M10.578,18.544
			c0,0.223-0.078,0.409-0.24,0.57c-0.16,0.162-0.348,0.238-0.569,0.238c-0.228,0-0.414-0.076-0.576-0.238
			c-0.159-0.16-0.237-0.352-0.237-0.575s0.078-0.41,0.237-0.569c0.162-0.163,0.351-0.24,0.576-0.24h0.812L10.578,18.544
			L10.578,18.544z M10.578,14.272H9.768c-0.227,0-0.415-0.078-0.576-0.238c-0.16-0.161-0.238-0.35-0.238-0.576
			s0.078-0.413,0.238-0.573c0.161-0.159,0.348-0.235,0.57-0.235c0.227,0,0.416,0.078,0.576,0.235c0.162,0.161,0.24,0.349,0.24,0.573
			V14.272L10.578,14.272z M13.017,16.712h-1.422V15.29h1.422V16.712z M14.851,17.729c0.224,0,0.409,0.077,0.571,0.238
			c0.16,0.161,0.24,0.35,0.24,0.571c0,0.226-0.078,0.414-0.238,0.575c-0.159,0.162-0.348,0.238-0.573,0.238
			c-0.228,0-0.415-0.076-0.577-0.238c-0.161-0.161-0.238-0.351-0.238-0.57v-0.814H14.851z"/>
	</g>
</g>
</svg>
