<?xml version="1.0" encoding="utf-8"?>
<!-- Generator: Adobe Illustrator 15.1.0, SVG Export Plug-In . SVG Version: 6.00 Build 0)  -->
<!DOCTYPE svg PUBLIC "-//W3C//DTD SVG 1.1//EN" "http://www.w3.org/Graphics/SVG/1.1/DTD/svg11.dtd">
<svg version="1.1" id="Layer_1" xmlns="http://www.w3.org/2000/svg" xmlns:xlink="http://www.w3.org/1999/xlink" x="0px" y="0px"
	 width="32px" height="32px" viewBox="0 0 32 32" enable-background="new 0 0 32 32" xml:space="preserve">
<g>
	<rect x="11.659" y="15.326" width="1.422" height="1.422"/>
	<path d="M9.826,12.684c-0.223,0-0.409,0.077-0.57,0.236c-0.16,0.16-0.238,0.346-0.238,0.573c0,0.227,0.078,0.415,0.238,0.577
		c0.161,0.16,0.35,0.238,0.576,0.238h0.811v-0.815c0-0.226-0.078-0.412-0.24-0.573C10.242,12.762,10.053,12.684,9.826,12.684z"/>
	<path d="M15.486,14.07c0.16-0.162,0.24-0.352,0.24-0.578c0-0.225-0.078-0.412-0.237-0.573c-0.161-0.158-0.349-0.237-0.574-0.237
		c-0.228,0-0.415,0.078-0.577,0.237c-0.161,0.161-0.238,0.349-0.238,0.573v0.816h0.815C15.139,14.309,15.325,14.23,15.486,14.07z"/>
	<path d="M9.256,18.006c-0.16,0.159-0.238,0.346-0.238,0.569c0,0.227,0.078,0.415,0.238,0.575c0.162,0.162,0.35,0.238,0.576,0.238
		c0.223,0,0.409-0.076,0.57-0.238c0.162-0.161,0.24-0.349,0.24-0.57v-0.814h-0.81C9.605,17.766,9.418,17.843,9.256,18.006z"/>
	<path d="M14.915,19.389c0.226,0,0.414-0.076,0.573-0.238c0.16-0.16,0.238-0.35,0.238-0.574c0-0.223-0.08-0.41-0.24-0.571
		c-0.162-0.161-0.348-0.237-0.571-0.237H14.1v0.813c0,0.222,0.077,0.409,0.238,0.569C14.5,19.312,14.688,19.389,14.915,19.389z"/>
</g>
<g>
	<path d="M21.299,12.868h-2.23v3.045h2.23c0.814,0,1.528-0.689,1.528-1.554C22.827,13.544,22.113,12.868,21.299,12.868z"/>
	<path d="M16,0C7.164,0,0,7.164,0,16s7.164,16,16,16s16-7.164,16-16S24.836,0,16,0z M14.93,16.749c0.495,0,0.926,0.183,1.279,0.541
		c0.352,0.356,0.532,0.789,0.532,1.284c0,0.505-0.181,0.941-0.534,1.296c-0.354,0.358-0.789,0.537-1.293,0.537
		c-0.502,0-0.938-0.179-1.294-0.532s-0.539-0.784-0.539-1.279v-0.83h-1.422v0.83c0,0.497-0.181,0.926-0.538,1.279
		s-0.793,0.532-1.294,0.532c-0.502,0-0.937-0.181-1.292-0.535s-0.536-0.792-0.536-1.297c0-0.496,0.181-0.929,0.536-1.286
		s0.783-0.54,1.275-0.54h0.832v-1.424H9.811c-0.492,0-0.922-0.183-1.275-0.541C8.181,14.426,8,13.991,8,13.493
		c0-0.502,0.181-0.937,0.536-1.291c0.355-0.356,0.79-0.537,1.292-0.537s0.937,0.181,1.294,0.533c0.357,0.352,0.538,0.782,0.538,1.28
		v0.83h1.422v-0.83c0-0.496,0.183-0.928,0.539-1.28c0.356-0.352,0.792-0.533,1.294-0.533c0.506,0,0.941,0.183,1.294,0.537
		c0.354,0.354,0.533,0.789,0.533,1.291c0,0.499-0.18,0.933-0.532,1.291c-0.353,0.358-0.783,0.541-1.279,0.541h-0.832v1.424H14.93z
		 M23.992,20.059c0.088,0.164,0,0.363-0.212,0.363h-0.978c-0.102,0-0.176-0.061-0.201-0.111l-1.666-3.32h-1.893v3.195
		c0,0.125-0.112,0.236-0.238,0.236H17.99c-0.137,0-0.238-0.111-0.238-0.236V11.89c0-0.125,0.102-0.238,0.238-0.238h3.408
		c1.504,0,2.731,1.191,2.731,2.682c0,1.153-0.765,2.105-1.854,2.543L23.992,20.059z"/>
</g>
</svg>
