<?xml version="1.0" encoding="utf-8"?>
<!-- Generator: Adobe Illustrator 15.1.0, SVG Export Plug-In . SVG Version: 6.00 Build 0)  -->
<!DOCTYPE svg PUBLIC "-//W3C//DTD SVG 1.1//EN" "http://www.w3.org/Graphics/SVG/1.1/DTD/svg11.dtd">
<svg version="1.1" id="Layer_1" xmlns="http://www.w3.org/2000/svg" xmlns:xlink="http://www.w3.org/1999/xlink" x="0px" y="0px"
	 width="32px" height="32px" viewBox="0 0 32 32" enable-background="new 0 0 32 32" xml:space="preserve">
<g>
	<circle cx="15.993" cy="15.996" r="2.861"/>
	<path d="M22.372,10.947c0.021,0.001,0.04,0.003,0.06,0.003c0.326,0,0.651-0.125,0.9-0.372c0.049-0.051,0.093-0.104,0.133-0.159
		c0.006-0.008,0.012-0.017,0.018-0.022c0.035-0.056,0.067-0.11,0.097-0.168c0.004-0.011,0.01-0.02,0.014-0.028
		c0.025-0.06,0.048-0.118,0.064-0.179c0.002-0.008,0.004-0.016,0.005-0.021c0.109-0.422,0.001-0.891-0.33-1.221
		c-2.023-2.022-4.682-3.034-7.338-3.034c-2.657,0-5.314,1.011-7.337,3.034c-0.281,0.281-0.403,0.66-0.366,1.025l0,0
		c0.006,0.065,0.02,0.131,0.036,0.194c0.002,0.006,0.003,0.015,0.005,0.021c0.018,0.062,0.039,0.121,0.064,0.181
		c0.004,0.01,0.01,0.021,0.015,0.028c0.026,0.059,0.06,0.113,0.096,0.168c0.005,0.006,0.011,0.015,0.017,0.022
		c0.041,0.056,0.084,0.108,0.134,0.159c0.247,0.248,0.573,0.372,0.897,0.372c0.326,0,0.65-0.124,0.899-0.372
		c1.528-1.527,3.534-2.291,5.54-2.291s4.012,0.763,5.54,2.291C21.768,10.811,22.066,10.934,22.372,10.947z"/>
	<path d="M6.693,6.391c0.324,0,0.649-0.125,0.898-0.373c2.316-2.315,5.359-3.475,8.4-3.475c3.043,0,6.085,1.159,8.4,3.475
		c0.248,0.25,0.574,0.373,0.898,0.373c0.325,0,0.65-0.125,0.898-0.373c0.498-0.496,0.498-1.302,0-1.799
		C23.38,1.406,19.688,0,15.992,0C12.299,0,8.605,1.406,5.793,4.218c-0.497,0.497-0.497,1.302,0,1.8
		C6.042,6.266,6.368,6.391,6.693,6.391z"/>
	<path d="M15.993,26.255c2.771,0,5.376-1.081,7.338-3.043c0.33-0.331,0.438-0.797,0.33-1.22c-0.001-0.008-0.003-0.016-0.005-0.021
		c-0.018-0.062-0.039-0.121-0.064-0.18c-0.005-0.01-0.01-0.021-0.014-0.03c-0.028-0.058-0.061-0.112-0.098-0.165
		c-0.006-0.009-0.012-0.017-0.017-0.023c-0.039-0.055-0.084-0.108-0.133-0.159c-0.249-0.247-0.574-0.372-0.899-0.372
		c-0.326,0-0.649,0.125-0.898,0.372c-1.481,1.481-3.448,2.297-5.54,2.297c-2.091,0-4.058-0.813-5.539-2.297
		c-0.248-0.247-0.573-0.372-0.899-0.372c-0.324,0-0.65,0.125-0.898,0.372c-0.049,0.051-0.094,0.104-0.133,0.159
		c-0.006,0.008-0.012,0.016-0.017,0.023c-0.036,0.053-0.069,0.108-0.096,0.165c-0.005,0.011-0.009,0.021-0.015,0.03
		c-0.025,0.059-0.049,0.117-0.065,0.18c-0.002,0.008-0.003,0.014-0.005,0.021c-0.11,0.423,0,0.889,0.331,1.22
		C10.617,25.174,13.223,26.255,15.993,26.255z"/>
	<path d="M7.432,11.079c-1.719,3.039-1.718,6.794,0,9.833c0.094-0.143,0.202-0.276,0.325-0.398c0.31-0.31,0.687-0.527,1.097-0.646
		c-1.285-2.412-1.285-5.333,0-7.745c-0.412-0.117-0.787-0.335-1.097-0.645C7.632,11.354,7.523,11.221,7.432,11.079z"/>
	<path d="M24.559,20.914c0.844-1.482,1.295-3.166,1.295-4.918c0-1.754-0.451-3.436-1.295-4.919
		c-0.094,0.141-0.203,0.276-0.328,0.401c-0.309,0.308-0.683,0.526-1.09,0.644c0.629,1.178,0.965,2.5,0.965,3.875
		c0,1.373-0.334,2.694-0.965,3.874c0.406,0.117,0.781,0.335,1.09,0.645C24.354,20.639,24.464,20.771,24.559,20.914z"/>
	<path d="M25.294,25.602c-0.325,0-0.651,0.123-0.899,0.373c-2.246,2.246-5.229,3.481-8.4,3.481c-3.171,0-6.155-1.235-8.4-3.481
		c-0.248-0.25-0.574-0.373-0.898-0.373c-0.326,0-0.651,0.123-0.9,0.373c-0.497,0.496-0.497,1.301,0,1.797
		C8.521,30.498,12.143,32,15.993,32c3.853,0,7.474-1.502,10.2-4.229c0.496-0.496,0.496-1.301,0-1.799
		C25.945,25.725,25.619,25.602,25.294,25.602z"/>
	<path d="M5.628,7.425C5.359,7.3,5.109,7.131,4.895,6.916C4.682,6.702,4.514,6.457,4.391,6.191c-5.322,5.438-5.322,14.168,0,19.608
		c0.123-0.264,0.289-0.51,0.504-0.727c0.217-0.216,0.465-0.384,0.733-0.509C0.986,19.807,0.986,12.186,5.628,7.425z"/>
	<path d="M27.6,6.191c-0.125,0.267-0.293,0.512-0.507,0.726c-0.215,0.215-0.464,0.385-0.733,0.509
		c2.254,2.309,3.494,5.344,3.494,8.571c0,3.226-1.239,6.262-3.494,8.569c0.271,0.125,0.52,0.293,0.733,0.51
		c0.218,0.216,0.384,0.463,0.505,0.727c2.582-2.638,4.004-6.113,4.004-9.805S30.18,8.829,27.6,6.191z"/>
</g>
</svg>
