<?xml version="1.0" encoding="utf-8"?>
<!-- Generator: Adobe Illustrator 15.1.0, SVG Export Plug-In . SVG Version: 6.00 Build 0)  -->
<!DOCTYPE svg PUBLIC "-//W3C//DTD SVG 1.1//EN" "http://www.w3.org/Graphics/SVG/1.1/DTD/svg11.dtd">
<svg version="1.1" id="Layer_1" xmlns="http://www.w3.org/2000/svg" xmlns:xlink="http://www.w3.org/1999/xlink" x="0px" y="0px"
	 width="32px" height="32px" viewBox="0 0 32 32" enable-background="new 0 0 32 32" xml:space="preserve">
<g>
	<path d="M16,0C7.177,0,0,7.178,0,16c0,8.822,7.177,16,16,16c8.823,0,16-7.178,16-16C32,7.178,24.822,0,16,0z M16,29.814
		C8.383,29.814,2.186,23.617,2.186,16C2.186,8.383,8.383,2.187,16,2.187S29.813,8.383,29.813,16
		C29.813,23.617,23.616,29.814,16,29.814z"/>
	<path id="RSS_2_" d="M12.732,19.176c0.34,0.34,0.546,0.801,0.547,1.313c-0.001,0.513-0.208,0.974-0.546,1.312l-0.001,0.001
		c-0.34,0.339-0.804,0.545-1.319,0.545s-0.978-0.208-1.317-0.546c-0.338-0.338-0.547-0.799-0.547-1.312s0.208-0.975,0.547-1.313l0,0
		c0.339-0.338,0.801-0.546,1.317-0.546S12.392,18.838,12.732,19.176z M12.732,19.176L12.732,19.176L12.732,19.176L12.732,19.176z
		 M10.096,21.802C10.096,21.802,10.096,21.802,10.096,21.802C10.096,21.801,10.096,21.801,10.096,21.802L10.096,21.802z
		 M9.551,13.097v2.682c1.75,0.001,3.405,0.688,4.645,1.929c1.239,1.237,1.923,2.896,1.926,4.651h0v0.005h2.692
		c-0.002-2.554-1.04-4.867-2.719-6.547C14.417,14.138,12.105,13.099,9.551,13.097z M9.556,8.323v2.679
		c6.257,0.004,11.343,5.099,11.347,11.361h2.688c-0.001-3.871-1.574-7.377-4.117-9.922C16.93,9.898,13.425,8.324,9.556,8.323z"/>
</g>
</svg>
