<?xml version="1.0" encoding="utf-8"?>
<!-- Generator: Adobe Illustrator 15.1.0, SVG Export Plug-In . SVG Version: 6.00 Build 0)  -->
<!DOCTYPE svg PUBLIC "-//W3C//DTD SVG 1.1//EN" "http://www.w3.org/Graphics/SVG/1.1/DTD/svg11.dtd">
<svg version="1.1" id="Layer_1" xmlns="http://www.w3.org/2000/svg" xmlns:xlink="http://www.w3.org/1999/xlink" x="0px" y="0px"
	 width="32px" height="32px" viewBox="0 0 32 32" enable-background="new 0 0 32 32" xml:space="preserve">
<g>
	<path d="M0.207,10.745c-0.053,0-0.104,0.021-0.141,0.058c-0.039,0.038-0.06,0.088-0.06,0.143v6.033c0,0.111,0.091,0.201,0.2,0.201
		c3.895,0.002,7.559,1.523,10.312,4.282c2.752,2.75,4.27,6.417,4.276,10.327c0,0.012,0.001,0.021,0.003,0.034
		c0.012,0.1,0.096,0.177,0.198,0.177h6.06c0.053,0,0.104-0.021,0.142-0.059c0.038-0.039,0.061-0.088,0.061-0.142
		c-0.006-5.612-2.198-10.896-6.178-14.878C11.1,12.943,5.816,10.749,0.207,10.745z"/>
	<path d="M22.668,9.329C16.658,3.316,8.68,0.004,0.208,0C0.154,0,0.104,0.021,0.066,0.059S0.008,0.146,0.008,0.201V6.23
		c0,0.111,0.09,0.201,0.2,0.201C14.169,6.439,25.535,17.82,25.545,31.8c0,0.11,0.092,0.199,0.201,0.199h6.047
		c0.053,0,0.105-0.021,0.143-0.058c0.037-0.039,0.058-0.088,0.058-0.143C31.99,23.322,28.68,15.342,22.668,9.329z"/>
	<path d="M4.408,23.198c-2.428,0-4.401,1.975-4.401,4.399c0,2.428,1.974,4.401,4.401,4.401c2.427,0,4.4-1.976,4.4-4.401
		C8.811,25.173,6.835,23.198,4.408,23.198z"/>
</g>
</svg>
