<?xml version="1.0" encoding="utf-8"?>
<!-- Generator: Adobe Illustrator 16.0.0, SVG Export Plug-In . SVG Version: 6.00 Build 0)  -->
<!DOCTYPE svg PUBLIC "-//W3C//DTD SVG 1.1//EN" "http://www.w3.org/Graphics/SVG/1.1/DTD/svg11.dtd">
<svg version="1.1" id="Layer_1" xmlns="http://www.w3.org/2000/svg" xmlns:xlink="http://www.w3.org/1999/xlink" x="0px" y="0px"
	 width="36px" height="36px" viewBox="32 3.37 36 36" enable-background="new 32 3.37 36 36" xml:space="preserve">
<g>
	<g>
		<path d="M63.062,25.589c-2.631,0-4.766,2.134-4.766,4.77c0,2.628,2.135,4.757,4.766,4.757c2.637,0,4.767-2.129,4.767-4.757
			C67.829,27.723,65.699,25.589,63.062,25.589z"/>
		<path d="M63.062,30.359"/>
	</g>
	<path d="M35.727,31.353c0.471,2.135,2.379,3.802,4.651,3.802c2.303,0,4.225-1.632,4.669-3.802H35.727z"/>
	<path d="M40.378,30.395"/>
	<path d="M63.062,30.359"/>
	<path d="M63.062,30.359"/>
	<g>
		<path d="M41.248,20.401"/>
	</g>
	<path d="M62.685,22.34l-1.237-4.153c-0.04-0.156,0.19-0.231,0.19-0.231l1.967-0.582l-0.271-2.769l-2.312-0.195
		c-0.657,0.08-0.809-0.542-0.809-0.542l-0.271-0.963c-0.19-0.732-0.847-0.652-0.847-0.652h-4.581
		c-0.655,0.501,0.116,0.888,0.116,0.888h2.809c0.271-0.045,0.423,0.27,0.423,0.27l1.562,9.676c-1.766,0.798-3.342,2.29-4.198,4.609
		h-5.103c-3.275-2.466-1.811-6.008-1.811-6.008h1.27v-2.574H32.905v2.574h2.547c-3.545,3.39-3.275,8.396-3.275,8.396h24.74
		c0.165-3.262,2.845-5.866,6.146-5.866c1.443,0,2.757,0.519,3.809,1.349h0.958C67.616,23.539,65.313,22.296,62.685,22.34z"/>
</g>
</svg>
