<?xml version="1.0" encoding="utf-8"?>
<!-- Generator: Adobe Illustrator 16.0.4, SVG Export Plug-In . SVG Version: 6.00 Build 0)  -->
<!DOCTYPE svg PUBLIC "-//W3C//DTD SVG 1.1//EN" "http://www.w3.org/Graphics/SVG/1.1/DTD/svg11.dtd">
<svg version="1.1" id="Layer_1" xmlns="http://www.w3.org/2000/svg" xmlns:xlink="http://www.w3.org/1999/xlink" x="0px" y="0px"
	 width="32px" height="32px" viewBox="0 0 32 32" enable-background="new 0 0 32 32" xml:space="preserve">
<g>
	<g id="Layer_2">
	</g>
	<path d="M27.876,29.465c-2.046,0-3.709-1.664-3.709-3.71s1.663-3.71,3.709-3.71s3.71,1.664,3.71,3.71S29.922,29.465,27.876,29.465
		L27.876,29.465z M27.876,23.554c-1.213,0-2.2,0.987-2.2,2.201s0.987,2.201,2.2,2.201c1.214,0,2.201-0.987,2.201-2.201
		S29.09,23.554,27.876,23.554L27.876,23.554z"/>
	<path d="M22.958,26.401c-0.357,0-0.647-0.289-0.647-0.647c0-3.068,2.497-5.564,5.564-5.564c1.487,0,2.885,0.579,3.936,1.63
		c0.253,0.253,0.253,0.662,0,0.915c-0.252,0.253-0.662,0.253-0.914,0c-0.808-0.808-1.88-1.251-3.021-1.251
		c-2.355,0-4.271,1.916-4.271,4.271C23.605,26.112,23.315,26.401,22.958,26.401L22.958,26.401z"/>
	<path d="M12.572,6.576c-0.105-0.225-0.174-0.475-0.205-0.75c-0.092-0.802,0.118-1.525,0.629-2.168s1.168-1.01,1.971-1.102
		c0.685-0.079,1.31,0.062,1.877,0.424c0.566,0.362,0.974,0.846,1.223,1.451l-0.763,0.087c0.025,0.057,0.062,0.291,0.108,0.702
		c0.061,0.527-0.076,1.009-0.414,1.445c-0.337,0.435-0.78,0.684-1.327,0.746c-0.665,0.076-1.236-0.146-1.712-0.666
		c-0.095-0.128-0.166-0.229-0.213-0.303L12.572,6.576z"/>
	<path d="M24.912,11.48c-1.162,0.053-2.084,0.808-2.084,1.733c0,0.926,0.922,1.68,2.084,1.734V11.48z"/>
	<path d="M24.656,18.45c-0.115-0.387-1.673-3.731-2.147-4.747c-0.106-0.228-0.335-0.374-0.586-0.374h-1.136
		c0.229-0.165,0.381-0.432,0.381-0.736c-0.001-0.5-0.406-0.905-0.905-0.905h-0.001l-3.226,0.001l-1.115-3.07
		c-0.026-0.071-0.062-0.135-0.102-0.195c-0.1-0.202-0.244-0.375-0.453-0.488c-0.475-0.259-1.184-0.335-1.64-0.205
		c-0.453,0.129-1.052,0.388-1.311,1.246l-1.422,6.029c-0.054,0.252-0.029,0.637,0.078,0.933c0.174,0.475,0.712,1.078,1.361,1.165
		l3.85,0.345c-0.145-0.002-0.338-0.003-0.58,0.001h-5.579V12.14v-0.093V9.92H0v2.126v0.093v5.351h5.541
		c-0.305,0.1-0.531,0.389-0.521,0.705c0.01,0.333,0.449,1.02,0.782,1.492c-2.403,1.396-4.373,5.291-4.373,5.291
		s-0.053,0.119-0.049,0.259c0.011,0.357,0.29,0.647,0.647,0.647h1.307c0.068,1.984,1.701,3.58,3.703,3.58s3.635-1.596,3.703-3.58
		h8.485c0.059,0,1.448-0.016,2.342-1.355c0.213-0.288,2.916-3.979,3.096-4.7C24.821,19.201,24.819,18.996,24.656,18.45z
		 M1.228,11.147h7.669v0.899H1.228V11.147z M1.228,13.273h3.331v1.141h1.055v-1.141h3.283v2.99H1.228V13.273z M7.038,27.956
		c-1.17,0-2.126-0.919-2.194-2.071h4.389C9.165,27.037,8.208,27.956,7.038,27.956z M11.91,24.077
		c-0.058,0.156-0.206,0.254-0.364,0.254c-0.045,0-0.091-0.008-0.135-0.023c-0.201-0.075-0.304-0.299-0.229-0.5
		c0.005-0.014,0.543-1.531-0.301-2.751c-0.528-0.763-2.097-0.762-2.656-0.698c-0.213,0.024-0.406-0.127-0.431-0.341
		c-0.024-0.213,0.128-0.405,0.342-0.43c0.101-0.012,2.484-0.271,3.383,1.027C12.599,22.172,11.939,24,11.91,24.077z M23.415,19.492
		c-0.162,0.442-2,3.062-2.898,4.283c-0.007,0.008-0.013,0.018-0.019,0.026c-0.501,0.759-1.249,0.787-1.272,0.788h-3.078
		c-0.934-0.679-1.967-1.807-1.775-3.408c0.216-1.812,2.39-2.817,2.503-3.322c0.051-0.233-0.067-0.33-0.172-0.373l2.107,0.188
		l-1.72,5.104c-0.174,0.689,0.366,1.251,0.689,1.358c0.577,0.192,1.51,0.108,1.854-1.358c0.074-0.312,1.834-5.695,1.834-5.695
		c0.26-0.841-0.452-1.791-1.422-1.93l-4.992-0.822l0.124-0.58c-0.014-0.018-1.414-2.838-1.414-2.838
		c-0.095-0.192-0.016-0.425,0.177-0.52c0.191-0.096,0.425-0.017,0.52,0.175l1.307,2.638c0.105,0.203,0.404,0.296,0.633,0.296
		l3.145-0.002c-0.129,0.118-0.211,0.287-0.211,0.476c0,0.357,0.289,0.647,0.647,0.647h1.529c0.893,1.917,1.823,3.949,1.905,4.198
		C23.506,19.122,23.506,19.122,23.415,19.492z"/>
</g>
</svg>
