<?xml version="1.0" encoding="utf-8"?>
<!-- Generator: Adobe Illustrator 16.0.4, SVG Export Plug-In . SVG Version: 6.00 Build 0)  -->
<!DOCTYPE svg PUBLIC "-//W3C//DTD SVG 1.1//EN" "http://www.w3.org/Graphics/SVG/1.1/DTD/svg11.dtd">
<svg version="1.1" id="Layer_1" xmlns="http://www.w3.org/2000/svg" xmlns:xlink="http://www.w3.org/1999/xlink" x="0px" y="0px"
	 width="200px" height="200px" viewBox="0 0 200 200" enable-background="new 0 0 200 200" xml:space="preserve">
<g>
	<path d="M168.108,0H31.892c-2.682,0-4.865,2.183-4.865,4.865v190.27c0,2.682,2.183,4.865,4.865,4.865h136.216
		c2.682,0,4.864-2.184,4.864-4.865V4.865C172.973,2.183,170.79,0,168.108,0z M167.567,194.595H32.433V5.405h135.135V194.595z"/>
	<path d="M159.459,13.514H40.541v172.973h118.918V13.514z M132.433,136.577c0,1.096-0.993,2.099-2.097,2.099H120.17
		c-1.216,0-2.1-1.003-2.1-2.099v-30.502H82.044v30.502c0,1.096-0.883,2.099-2.099,2.099H69.671c-1.11,0-2.104-1.003-2.104-2.099
		V63.423c0-1.107,0.994-2.1,2.104-2.1h10.274c1.216,0,2.099,0.993,2.099,2.1v29.282h36.025V63.423c0-1.107,0.884-2.1,2.1-2.1h10.167
		c1.104,0,2.096,0.993,2.096,2.1L132.433,136.577L132.433,136.577z"/>
</g>
</svg>
