<?xml version="1.0" encoding="utf-8"?>
<!-- Generator: Adobe Illustrator 16.0.4, SVG Export Plug-In . SVG Version: 6.00 Build 0)  -->
<!DOCTYPE svg PUBLIC "-//W3C//DTD SVG 1.1//EN" "http://www.w3.org/Graphics/SVG/1.1/DTD/svg11.dtd">
<svg version="1.1" id="Layer_1" xmlns="http://www.w3.org/2000/svg" xmlns:xlink="http://www.w3.org/1999/xlink" x="0px" y="0px"
	 width="200px" height="200px" viewBox="0 0 200 200" enable-background="new 0 0 200 200" xml:space="preserve">
<g>
	<g>
		<path d="M134.053,50H65.945c-1.341,0-2.433,1.092-2.433,2.433v95.134c0,1.342,1.092,2.434,2.433,2.434h68.107
			c1.342,0,2.434-1.092,2.434-2.434V52.433C136.486,51.092,135.395,50,134.053,50z M133.783,147.297H66.216V52.703h67.567V147.297
			L133.783,147.297z"/>
		<path d="M129.729,56.757H70.271v86.485h59.458V56.757z M116.217,118.289c0,0.547-0.498,1.049-1.049,1.049h-5.084
			c-0.607,0-1.049-0.502-1.049-1.049v-15.252H91.021v15.252c0,0.547-0.441,1.049-1.05,1.049h-5.137
			c-0.555,0-1.052-0.502-1.052-1.049V81.711c0-0.553,0.497-1.049,1.052-1.049h5.137c0.608,0,1.05,0.496,1.05,1.049v14.642h18.012
			V81.711c0-0.553,0.443-1.049,1.051-1.049h5.084c0.551,0,1.047,0.496,1.047,1.049L116.217,118.289L116.217,118.289z"/>
	</g>
	<path d="M100.001,0C44.861,0,0,44.862,0,100.001C0,155.141,44.861,200,100.001,200C155.142,200,200,155.141,200,100.001
		C200,44.862,155.142,0,100.001,0z M100.001,186.335c-47.604,0-86.333-38.729-86.333-86.334s38.729-86.333,86.333-86.333
		c47.608,0,86.334,38.728,86.334,86.333S147.609,186.335,100.001,186.335z"/>
</g>
</svg>
