<?xml version="1.0" encoding="utf-8"?>
<!-- Generator: Adobe Illustrator 15.1.0, SVG Export Plug-In . SVG Version: 6.00 Build 0)  -->
<!DOCTYPE svg PUBLIC "-//W3C//DTD SVG 1.1//EN" "http://www.w3.org/Graphics/SVG/1.1/DTD/svg11.dtd">
<svg version="1.1" id="Layer_1" xmlns="http://www.w3.org/2000/svg" xmlns:xlink="http://www.w3.org/1999/xlink" x="0px" y="0px"
	 width="32px" height="32px" viewBox="0 0 32 32" enable-background="new 0 0 32 32" xml:space="preserve">
<g>
	<path d="M16,0C7.177,0,0,7.178,0,16c0,8.822,7.177,16,16,16c8.823,0,16-7.178,16-16C32,7.178,24.823,0,16,0z M16,29.813
		C8.383,29.813,2.187,23.617,2.187,16C2.187,8.383,8.383,2.187,16,2.187c7.617,0,13.813,6.196,13.813,13.814
		C29.813,23.617,23.617,29.813,16,29.813z"/>
	<g>
		<path d="M17.918,10.054c-2.168-2.168-5.696-2.168-7.864,0c-2.168,2.167-2.168,5.695,0,7.864c1.917,1.917,4.896,2.136,7.058,0.662
			l4.898,4.898c0.125,0.125,0.327,0.125,0.451,0l1.017-1.017c0.125-0.124,0.125-0.326,0-0.451l-4.898-4.898
			C20.054,14.95,19.835,11.971,17.918,10.054z M16.914,16.914c-1.614,1.614-4.242,1.614-5.856,0c-1.615-1.614-1.615-4.242,0-5.856
			c1.614-1.614,4.242-1.614,5.856,0C18.528,12.672,18.528,15.3,16.914,16.914z"/>
		<path d="M11.529,11.698c-0.092,0.091-0.092,0.239,0,0.331c0.091,0.091,0.239,0.091,0.33,0c1.153-1.153,3.029-1.153,4.183,0
			c0.091,0.091,0.239,0.091,0.331,0c0.091-0.092,0.091-0.24,0-0.331C15.037,10.363,12.864,10.363,11.529,11.698z"/>
	</g>
</g>
</svg>
