<?xml version="1.0" encoding="utf-8"?>
<!-- Generator: Adobe Illustrator 15.1.0, SVG Export Plug-In . SVG Version: 6.00 Build 0)  -->
<!DOCTYPE svg PUBLIC "-//W3C//DTD SVG 1.1//EN" "http://www.w3.org/Graphics/SVG/1.1/DTD/svg11.dtd">
<svg version="1.1" id="Layer_1" xmlns="http://www.w3.org/2000/svg" xmlns:xlink="http://www.w3.org/1999/xlink" x="0px" y="0px"
	 width="32px" height="32px" viewBox="0 0 32 32" enable-background="new 0 0 32 32" xml:space="preserve">
<g>
	<path d="M20.051,3.436c-4.581-4.58-12.034-4.582-16.616,0c-4.58,4.582-4.58,12.037,0,16.619c4.053,4.051,10.347,4.512,14.917,1.398
		l10.35,10.35c0.264,0.264,0.691,0.264,0.955,0l2.146-2.146c0.264-0.264,0.264-0.69,0-0.954L21.451,18.352
		C24.564,13.781,24.104,7.488,20.051,3.436z M17.932,17.932c-3.413,3.412-8.964,3.412-12.375,0c-3.412-3.41-3.412-8.961,0-12.375
		c3.411-3.412,8.963-3.412,12.375,0C21.34,8.969,21.34,14.521,17.932,17.932z"/>
	<path d="M6.551,6.911c-0.192,0.192-0.192,0.505,0,0.698c0.192,0.192,0.505,0.192,0.698,0c2.438-2.438,6.4-2.438,8.838,0
		c0.191,0.192,0.506,0.192,0.698,0s0.191-0.506,0-0.698C13.963,4.089,9.373,4.089,6.551,6.911z"/>
</g>
</svg>
