<?xml version="1.0" encoding="utf-8"?>
<!-- Generator: Adobe Illustrator 15.1.0, SVG Export Plug-In . SVG Version: 6.00 Build 0)  -->
<!DOCTYPE svg PUBLIC "-//W3C//DTD SVG 1.1//EN" "http://www.w3.org/Graphics/SVG/1.1/DTD/svg11.dtd">
<svg version="1.1" id="Layer_1" xmlns="http://www.w3.org/2000/svg" xmlns:xlink="http://www.w3.org/1999/xlink" x="0px" y="0px"
	 width="32px" height="32px" viewBox="0 0 32 32" enable-background="new 0 0 32 32" xml:space="preserve">
<g>
	<path d="M5.862,16.986V16.09c0-0.16-0.129-0.289-0.287-0.289H0.324c-0.16,0-0.29,0.129-0.29,0.289v0.896
		c0,0.16,0.129,0.289,0.29,0.289h5.251C5.733,17.275,5.862,17.146,5.862,16.986z"/>
	<path d="M16.125,5.83h0.895c0.16,0,0.289-0.13,0.289-0.289V0.29c0-0.159-0.131-0.289-0.289-0.289h-0.895
		c-0.16,0-0.29,0.13-0.29,0.289v5.251C15.834,5.7,15.964,5.83,16.125,5.83z"/>
	<path d="M8.274,9.283c0.112,0.113,0.295,0.113,0.408,0L9.315,8.65c0.112-0.113,0.112-0.297,0-0.409L5.604,4.527
		c-0.113-0.112-0.297-0.112-0.41,0L4.561,5.16c-0.111,0.113-0.111,0.297,0,0.408L8.274,9.283z"/>
	<path d="M6.85,21.051l-0.344-0.826c-0.061-0.147-0.23-0.219-0.377-0.158l-4.852,2.011c-0.146,0.062-0.217,0.229-0.156,0.379
		l0.342,0.826c0.062,0.146,0.23,0.217,0.378,0.157l4.851-2.01C6.84,21.367,6.912,21.197,6.85,21.051z"/>
	<path d="M20.256,6.473l0.828,0.344c0.146,0.061,0.314-0.01,0.377-0.158l2.01-4.852c0.062-0.146-0.01-0.316-0.156-0.377
		l-0.826-0.343c-0.148-0.062-0.316,0.009-0.379,0.157L20.1,6.096C20.038,6.242,20.107,6.413,20.256,6.473z"/>
	<path d="M11.684,6.659c0.062,0.147,0.229,0.218,0.377,0.157l0.826-0.342c0.147-0.062,0.217-0.231,0.157-0.377l-2.009-4.853
		c-0.062-0.147-0.23-0.218-0.378-0.157L9.831,1.43C9.682,1.492,9.612,1.661,9.673,1.809L11.684,6.659z"/>
	<path d="M1.278,11.001l4.851,2.008c0.147,0.062,0.315-0.008,0.377-0.155l0.343-0.828c0.062-0.146-0.009-0.317-0.158-0.379
		L1.839,9.639C1.692,9.578,1.522,9.646,1.461,9.796L1.12,10.622C1.059,10.771,1.13,10.939,1.278,11.001z"/>
	<path d="M31.881,19.667l-2.322-2.324h1.391c0.16,0,0.289-0.13,0.287-0.288v-0.896c0-0.161-0.129-0.29-0.288-0.29h-1.39l2.322-2.324
		c0.113-0.111,0.113-0.297,0-0.409l-0.632-0.632c-0.113-0.113-0.296-0.113-0.409,0l-3.365,3.365H24.29l2.324-2.324
		c0.112-0.111,0.112-0.297,0-0.409l-0.487-0.487v-0.689c0-0.16-0.129-0.289-0.29-0.291h-3.286l3.744-3.741
		c0.111-0.112,0.111-0.297,0-0.407L25.66,6.885c-0.112-0.113-0.296-0.113-0.408,0l-2.386,2.387
		c-1.748-1.517-3.956-2.348-6.293-2.348c-5.301,0-9.616,4.312-9.616,9.615c0,2.337,0.831,4.545,2.35,6.292l-2.455,2.455
		c-0.112,0.112-0.111,0.296,0,0.409l0.635,0.632c0.111,0.112,0.295,0.112,0.408,0l3.741-3.741v3.286c0,0.159,0.13,0.288,0.29,0.288
		h0.689l0.486,0.488c0.114,0.112,0.297,0.112,0.41,0l2.323-2.322v3.182l-3.364,3.366c-0.113,0.112-0.113,0.296,0,0.409l0.631,0.632
		c0.113,0.112,0.297,0.112,0.409,0l2.324-2.323v1.391c0,0.16,0.13,0.291,0.29,0.291l0.894-0.002c0.16,0.002,0.289-0.129,0.289-0.289
		v-1.391l2.323,2.323c0.113,0.112,0.298,0.112,0.409,0l0.634-0.631c0.113-0.114,0.113-0.298,0-0.41l-3.366-3.365v-3.183l2.323,2.322
		c0.113,0.112,0.298,0.112,0.409,0l0.488-0.488h0.688c0.159,0,0.29-0.128,0.29-0.288v-3.286l2.25,2.251l0.001,4.761
		c-0.001,0.159,0.13,0.288,0.289,0.288h0.896c0.16,0,0.289-0.13,0.289-0.288v-3.287l0.983,0.983c0.111,0.112,0.296,0.112,0.408,0
		l0.633-0.635c0.112-0.111,0.112-0.295,0-0.408l-0.981-0.981h3.285c0.16,0,0.289-0.131,0.289-0.291v-0.895
		c0-0.161-0.129-0.29-0.289-0.29H24.8l-2.251-2.251h3.286c0.16,0,0.29-0.131,0.29-0.289v-0.689l0.486-0.486
		c0.113-0.113,0.113-0.297,0-0.409l-2.323-2.323h3.183l3.367,3.364c0.113,0.113,0.296,0.113,0.409,0l0.632-0.632
		C31.995,19.963,31.995,19.779,31.881,19.667z M24.934,13.143l-2.729,2.727h-2.092c-0.092-0.446-0.266-0.867-0.518-1.247l1.48-1.479
		H24.934z M16.572,18.745c-0.317,0-0.62-0.07-0.898-0.198l2.837-2.838c0.127,0.277,0.197,0.582,0.197,0.896
		C18.71,17.785,17.75,18.745,16.572,18.745z M8.432,16.538c0-4.489,3.652-8.14,8.14-8.14c1.941,0,3.779,0.677,5.246,1.918
		l-1.437,1.437c0,0.001-0.001,0.001-0.003,0.002l-8.658,8.658c0,0.002-0.002,0.003-0.004,0.004l-1.367,1.368
		C9.108,20.318,8.432,18.48,8.432,16.538z M13.11,24.966v-3.854l1.479-1.479c0.379,0.25,0.801,0.427,1.245,0.521v2.09L13.11,24.966z
		 M20.034,24.966l-2.726-2.725v-2.093c0.451-0.094,0.871-0.272,1.243-0.519l1.481,1.481L20.034,24.966L20.034,24.966z
		 M24.934,20.068h-3.856l-1.479-1.48c0.245-0.373,0.424-0.793,0.518-1.245h2.091L24.934,20.068z"/>
</g>
</svg>
