<?xml version="1.0" encoding="utf-8"?>
<!-- Generator: Adobe Illustrator 15.1.0, SVG Export Plug-In . SVG Version: 6.00 Build 0)  -->
<!DOCTYPE svg PUBLIC "-//W3C//DTD SVG 1.1//EN" "http://www.w3.org/Graphics/SVG/1.1/DTD/svg11.dtd">
<svg version="1.1" id="Layer_1" xmlns="http://www.w3.org/2000/svg" xmlns:xlink="http://www.w3.org/1999/xlink" x="0px" y="0px"
	 width="32px" height="32px" viewBox="0 0 32 32" enable-background="new 0 0 32 32" xml:space="preserve">
<g>
	<path d="M16,0C7.177,0,0,7.178,0,16s7.177,16,16,16c8.823,0,16-7.178,16-16S24.822,0,16,0z M16,29.813
		C8.383,29.813,2.187,23.616,2.187,16C2.187,8.383,8.383,2.187,16,2.187c7.617,0,13.814,6.196,13.814,13.813
		C29.813,23.616,23.616,29.813,16,29.813z"/>
	<g>
		<path d="M9.346,17.015l0.145-0.25c0.032-0.057,0.1-0.057,0.136-0.028c0.021,0.013,0.347,0.25,0.608,0.25
			c0.209,0,0.366-0.137,0.366-0.31c0-0.206-0.172-0.347-0.511-0.484c-0.378-0.153-0.757-0.394-0.757-0.869
			c0-0.358,0.266-0.773,0.906-0.773c0.41,0,0.724,0.209,0.804,0.27c0.041,0.024,0.053,0.093,0.024,0.133l-0.153,0.23
			c-0.032,0.048-0.092,0.08-0.141,0.048c-0.032-0.021-0.338-0.221-0.559-0.221c-0.229,0-0.354,0.153-0.354,0.282
			c0,0.189,0.149,0.317,0.475,0.45c0.391,0.157,0.841,0.391,0.841,0.91c0,0.415-0.358,0.797-0.926,0.797
			c-0.507,0-0.805-0.238-0.885-0.314C9.33,17.099,9.31,17.078,9.346,17.015z"/>
		<path d="M11.692,14.667c0-0.04,0.037-0.076,0.076-0.076h0.375c0.04,0,0.077,0.036,0.077,0.076v2.666
			c0,0.04-0.037,0.075-0.077,0.075h-0.375c-0.04,0-0.076-0.035-0.076-0.075V14.667z"/>
		<path d="M13.246,14.611c0.004-0.032,0.028-0.061,0.073-0.061h0.064c0.032,0,0.057,0.016,0.068,0.041l0.886,1.9
			c0.008,0,0.008,0,0.012,0l0.885-1.9c0.013-0.024,0.032-0.041,0.069-0.041h0.064c0.044,0,0.068,0.029,0.072,0.061l0.475,2.705
			c0.012,0.057-0.02,0.092-0.073,0.092h-0.366c-0.036,0-0.068-0.032-0.076-0.06l-0.237-1.526c-0.004,0-0.013,0-0.013,0l-0.704,1.582
			c-0.008,0.024-0.032,0.045-0.068,0.045h-0.073c-0.036,0-0.057-0.021-0.068-0.045l-0.713-1.582c0,0-0.008,0-0.012,0l-0.233,1.526
			c-0.004,0.027-0.036,0.06-0.072,0.06h-0.362c-0.052,0-0.085-0.035-0.076-0.092L13.246,14.611z"/>
		<path d="M16.467,14.667c0-0.04,0.032-0.076,0.076-0.076h0.946c0.495,0,0.901,0.402,0.901,0.89c0,0.499-0.406,0.905-0.897,0.905
			h-0.504v0.947c0,0.04-0.035,0.075-0.076,0.075h-0.37c-0.044,0-0.076-0.035-0.076-0.075V14.667z M17.457,15.896
			c0.225,0,0.414-0.181,0.414-0.419c0-0.221-0.189-0.39-0.414-0.39h-0.468v0.809H17.457z"/>
		<path d="M18.85,14.667c0-0.04,0.032-0.076,0.077-0.076h0.37c0.04,0,0.076,0.036,0.076,0.076v2.258h1.026
			c0.044,0,0.076,0.036,0.076,0.076v0.331c0,0.04-0.032,0.075-0.076,0.075h-1.473c-0.045,0-0.077-0.035-0.077-0.075V14.667z"/>
		<path d="M20.882,14.667c0-0.04,0.033-0.076,0.077-0.076h1.638c0.045,0,0.077,0.036,0.077,0.076v0.331
			c0,0.04-0.032,0.076-0.077,0.076h-1.191v0.66h0.994c0.041,0,0.077,0.037,0.077,0.077v0.334c0,0.044-0.036,0.076-0.077,0.076
			h-0.994v0.705h1.191c0.045,0,0.077,0.036,0.077,0.076v0.331c0,0.04-0.032,0.075-0.077,0.075h-1.638
			c-0.044,0-0.077-0.035-0.077-0.075V14.667z"/>
	</g>
</g>
</svg>
