<?xml version="1.0" encoding="utf-8"?>
<!-- Generator: Adobe Illustrator 15.1.0, SVG Export Plug-In . SVG Version: 6.00 Build 0)  -->
<!DOCTYPE svg PUBLIC "-//W3C//DTD SVG 1.1//EN" "http://www.w3.org/Graphics/SVG/1.1/DTD/svg11.dtd">
<svg version="1.1" id="Layer_1" xmlns="http://www.w3.org/2000/svg" xmlns:xlink="http://www.w3.org/1999/xlink" x="0px" y="0px"
	 width="32px" height="32px" viewBox="0 0 32 32" enable-background="new 0 0 32 32" xml:space="preserve">
<g>
	<path d="M0.045,18.432l0.349-0.6c0.076-0.135,0.239-0.135,0.326-0.064c0.049,0.026,0.831,0.597,1.459,0.597
		c0.5,0,0.877-0.328,0.877-0.742c0-0.491-0.414-0.831-1.226-1.158c-0.907-0.366-1.815-0.944-1.815-2.084
		c0-0.858,0.639-1.854,2.172-1.854c0.983,0,1.736,0.504,1.93,0.647c0.096,0.058,0.125,0.224,0.058,0.318l-0.366,0.551
		c-0.078,0.116-0.222,0.192-0.336,0.116c-0.078-0.049-0.812-0.53-1.342-0.53c-0.55,0-0.85,0.367-0.85,0.677
		c0,0.452,0.357,0.76,1.139,1.078c0.938,0.377,2.018,0.938,2.018,2.184c0,0.994-0.858,1.91-2.221,1.91
		c-1.216,0-1.93-0.57-2.123-0.754C0.007,18.633-0.042,18.585,0.045,18.432z"/>
	<path d="M5.671,12.805c0-0.096,0.087-0.184,0.184-0.184h0.897c0.097,0,0.185,0.087,0.185,0.184v6.389
		c0,0.096-0.088,0.184-0.185,0.184H5.855c-0.097,0-0.184-0.088-0.184-0.184V12.805z"/>
	<path d="M9.396,12.67c0.012-0.077,0.067-0.146,0.174-0.146h0.154c0.077,0,0.135,0.039,0.166,0.098l2.123,4.555
		c0.019,0,0.019,0,0.028,0l2.123-4.555c0.028-0.059,0.076-0.098,0.164-0.098h0.155c0.104,0,0.164,0.069,0.172,0.146l1.139,6.486
		c0.029,0.133-0.047,0.221-0.174,0.221h-0.878c-0.087,0-0.163-0.078-0.185-0.146l-0.567-3.657c-0.011,0-0.03,0-0.03,0l-1.688,3.792
		c-0.021,0.06-0.078,0.107-0.164,0.107h-0.176c-0.086,0-0.135-0.049-0.164-0.107l-1.707-3.792c0,0-0.02,0-0.028,0l-0.56,3.657
		c-0.012,0.067-0.088,0.146-0.175,0.146H8.431c-0.125,0-0.203-0.088-0.184-0.221L9.396,12.67z"/>
	<path d="M17.118,12.805c0-0.096,0.076-0.184,0.183-0.184h2.269c1.188,0,2.16,0.965,2.16,2.133c0,1.196-0.975,2.171-2.15,2.171
		h-1.206v2.269c0,0.096-0.087,0.184-0.185,0.184h-0.888c-0.106,0-0.183-0.088-0.183-0.184V12.805z M19.492,15.749
		c0.539,0,0.993-0.435,0.993-1.004c0-0.53-0.454-0.937-0.993-0.937h-1.12v1.939L19.492,15.749L19.492,15.749z"/>
	<path d="M22.83,12.805c0-0.096,0.079-0.184,0.187-0.184h0.887c0.096,0,0.184,0.087,0.184,0.184v5.416h2.462
		c0.104,0,0.183,0.086,0.183,0.182v0.793c0,0.097-0.076,0.183-0.183,0.183h-3.532c-0.105,0-0.186-0.086-0.186-0.183L22.83,12.805
		L22.83,12.805z"/>
	<path d="M27.704,12.805c0-0.096,0.078-0.184,0.186-0.184h3.926c0.105,0,0.185,0.087,0.185,0.184v0.793
		c0,0.096-0.078,0.182-0.185,0.182h-2.856v1.582h2.383c0.099,0,0.185,0.089,0.185,0.185v0.8c0,0.106-0.086,0.184-0.185,0.184h-2.383
		v1.688h2.856c0.105,0,0.185,0.087,0.185,0.183v0.793c0,0.096-0.078,0.184-0.185,0.184H27.89c-0.106,0-0.186-0.088-0.186-0.184
		V12.805L27.704,12.805z"/>
</g>
</svg>
