<?xml version="1.0" encoding="utf-8"?>
<!-- Generator: Adobe Illustrator 16.0.4, SVG Export Plug-In . SVG Version: 6.00 Build 0)  -->
<!DOCTYPE svg PUBLIC "-//W3C//DTD SVG 1.1//EN" "http://www.w3.org/Graphics/SVG/1.1/DTD/svg11.dtd">
<svg version="1.1" id="Layer_1" xmlns="http://www.w3.org/2000/svg" xmlns:xlink="http://www.w3.org/1999/xlink" x="0px" y="0px"
	 width="32px" height="32px" viewBox="0 0 32 32" enable-background="new 0 0 32 32" xml:space="preserve">
<g>
	<path d="M16.001,0C7.178,0,0,7.179,0,16c0,8.822,7.178,16,16.001,16C24.823,32,32,24.822,32,16C32,7.179,24.823,0,16.001,0z
		 M16.001,29.814C8.384,29.814,2.187,23.617,2.187,16S8.384,2.187,16.001,2.187c7.616,0,13.813,6.196,13.813,13.813
		S23.617,29.814,16.001,29.814z"/>
	<g>
		<path d="M10.399,13.078c-0.1,0.101-0.1,0.264,0,0.364l1.903,1.902H8.277c-0.143,0-0.258,0.115-0.258,0.258v0.796
			c0,0.143,0.115,0.257,0.258,0.257h4.024L10.4,18.559c-0.101,0.1-0.101,0.263-0.001,0.363l0.563,0.563
			c0.101,0.101,0.265,0.101,0.364,0l3.304-3.304c0.101-0.1,0.101-0.264,0-0.364l-3.304-3.302c-0.101-0.101-0.264-0.101-0.364,0
			L10.399,13.078z"/>
		<path d="M21.601,18.923c0.101-0.102,0.101-0.265,0-0.365l-1.902-1.902h4.025c0.142,0,0.258-0.115,0.258-0.257v-0.796
			c0-0.143-0.116-0.258-0.258-0.258h-4.024l1.901-1.902c0.101-0.101,0.101-0.264,0-0.364l-0.563-0.562
			c-0.101-0.101-0.264-0.101-0.364,0l-3.303,3.304c-0.101,0.1-0.101,0.263,0,0.363l3.304,3.303c0.101,0.101,0.264,0.101,0.363,0
			L21.601,18.923z"/>
	</g>
	<path d="M16.875,24.619c0,0.149-0.121,0.27-0.271,0.27h-1.209c-0.148,0-0.27-0.12-0.27-0.27V7.382c0-0.149,0.121-0.271,0.27-0.271
		h1.209c0.149,0,0.271,0.121,0.271,0.271V24.619z"/>
</g>
</svg>
