<?xml version="1.0" encoding="utf-8"?>
<!-- Generator: Adobe Illustrator 16.0.4, SVG Export Plug-In . SVG Version: 6.00 Build 0)  -->
<!DOCTYPE svg PUBLIC "-//W3C//DTD SVG 1.1//EN" "http://www.w3.org/Graphics/SVG/1.1/DTD/svg11.dtd">
<svg version="1.1" id="Layer_1" xmlns="http://www.w3.org/2000/svg" xmlns:xlink="http://www.w3.org/1999/xlink" x="0px" y="0px"
	 width="32px" height="32px" viewBox="0 0 32 32" enable-background="new 0 0 32 32" xml:space="preserve">
<g>
	<path d="M16,0C7.178,0,0,7.178,0,16s7.178,16,16,16c8.823,0,16-7.178,16-16S24.823,0,16,0z M16,29.813
		C8.384,29.813,2.187,23.616,2.187,16C2.187,8.383,8.384,2.187,16,2.187c7.617,0,13.813,6.196,13.813,13.813
		C29.813,23.616,23.617,29.813,16,29.813z"/>
	<path d="M24.486,17.697l-1.288-1.288h0.771c0.089,0.001,0.161-0.072,0.161-0.161v-0.496c0-0.088-0.072-0.159-0.161-0.16h-0.77
		l1.287-1.287c0.062-0.063,0.062-0.165,0-0.228l-0.351-0.351c-0.062-0.063-0.164-0.063-0.227,0l-1.865,1.865h-1.765l1.287-1.287
		c0.063-0.063,0.063-0.165,0-0.228l-0.27-0.271v-0.382c0-0.089-0.071-0.16-0.161-0.16h-1.821l1.248-1.248H23.2
		c0.089,0,0.161-0.072,0.161-0.16V11.36c0-0.089-0.072-0.161-0.161-0.161h-1.82l0.544-0.545c0.062-0.062,0.062-0.164,0-0.227
		l-0.351-0.351c-0.062-0.062-0.164-0.062-0.228,0l-0.544,0.544v-1.82c0-0.089-0.072-0.161-0.161-0.161h-0.495
		c-0.089,0.001-0.161,0.072-0.161,0.161v2.638l-1.247,1.248l-0.001-1.821c0-0.066-0.04-0.124-0.099-0.148
		c-0.019-0.008-0.039-0.012-0.06-0.012c-0.001,0-0.001-0.001-0.002-0.001s-0.001,0-0.001,0h-0.382l-0.27-0.27
		c-0.016-0.016-0.033-0.027-0.053-0.035c-0.059-0.024-0.128-0.014-0.175,0.034L16.41,11.72V9.958l1.864-1.866
		c0.063-0.062,0.063-0.164,0-0.227l-0.351-0.351l-0.001-0.001c-0.013-0.014-0.029-0.022-0.046-0.03
		c-0.002-0.001-0.004-0.003-0.006-0.004c-0.059-0.024-0.128-0.013-0.175,0.034L16.41,8.8V8.031c0-0.044-0.02-0.084-0.049-0.113
		s-0.069-0.048-0.114-0.047h-0.496c-0.088,0-0.16,0.071-0.16,0.16v0.77l-1.287-1.286V7.514c-0.01-0.009-0.021-0.014-0.032-0.021
		c-0.007-0.004-0.013-0.011-0.021-0.014c-0.059-0.023-0.128-0.013-0.175,0.034l-0.351,0.351c-0.063,0.063-0.063,0.165,0,0.227
		l1.865,1.866v1.764l-1.287-1.286c0,0,0,0,0-0.001c-0.063-0.063-0.165-0.062-0.228,0l-0.271,0.271h-0.382
		c-0.089,0-0.16,0.071-0.16,0.16v1.821l-1.248-1.248V8.8c0-0.089-0.072-0.16-0.16-0.16h-0.496c-0.089,0-0.161,0.071-0.161,0.16v1.82
		l-0.545-0.544c-0.062-0.062-0.164-0.062-0.227,0l-0.351,0.352c-0.062,0.062-0.062,0.164,0,0.227l0.544,0.545H8.8
		c-0.089-0.001-0.161,0.071-0.161,0.16v0.496c0.001,0.088,0.072,0.161,0.161,0.161h2.638l1.248,1.247h-1.821
		c-0.089,0-0.161,0.071-0.161,0.16v0.383l-0.27,0.27c-0.028,0.028-0.042,0.064-0.045,0.102c-0.004,0.045,0.01,0.092,0.045,0.126
		l1.286,1.287H9.957l-1.866-1.865c-0.062-0.062-0.164-0.062-0.227,0l-0.351,0.351l0,0v0.001c-0.002,0.002-0.003,0.004-0.005,0.007
		c-0.013,0.014-0.023,0.029-0.03,0.046c0,0.001,0,0.002,0,0.002c-0.007,0.02-0.011,0.039-0.011,0.059
		c0,0.041,0.016,0.082,0.047,0.113l1.287,1.287H8.03c-0.053,0-0.097,0.027-0.126,0.067c-0.021,0.027-0.034,0.059-0.034,0.094
		l0.001,0.497c-0.001,0.088,0.071,0.159,0.16,0.16h0.77l-1.287,1.287c-0.031,0.031-0.047,0.072-0.047,0.114
		c0,0.041,0.016,0.082,0.047,0.112l0.351,0.352c0.062,0.063,0.164,0.063,0.227,0l1.865-1.865h1.765l-1.287,1.287
		c-0.016,0.016-0.027,0.034-0.035,0.054c-0.023,0.058-0.012,0.127,0.035,0.173l0.27,0.271v0.382c0,0.022,0.005,0.044,0.013,0.062
		c0.024,0.059,0.081,0.099,0.148,0.099h1.82l-1.246,1.247H8.801c-0.045,0-0.085,0.018-0.114,0.048
		c-0.029,0.029-0.048,0.069-0.048,0.113v0.496c0,0.089,0.072,0.161,0.161,0.161h1.82l-0.543,0.543c-0.001,0-0.001,0.001-0.001,0.001
		v0.001c-0.062,0.062-0.062,0.164,0,0.227l0.351,0.351c0.062,0.062,0.164,0.062,0.228,0v-0.001c0.001,0,0.001,0,0.001,0l0.271-0.271
		l0.272-0.271v1.82c0,0.089,0.072,0.161,0.161,0.161h0.495c0.022-0.001,0.044-0.006,0.063-0.014
		c0.059-0.024,0.099-0.081,0.099-0.148v-2.638l1.246-1.247l0.001,1.821c0,0.089,0.071,0.161,0.16,0.161h0.382l0.271,0.27
		c0.062,0.062,0.164,0.063,0.227,0l0,0c0.001-0.001,0.001-0.001,0.001-0.001l1.286-1.286v1.764l-1.864,1.865
		c-0.063,0.063-0.063,0.165,0,0.228l0.351,0.35c0.047,0.048,0.116,0.06,0.175,0.035c0.02-0.008,0.038-0.02,0.053-0.035l1.286-1.286
		v0.771c0,0.088,0.072,0.159,0.161,0.159h0.496c0.022,0,0.044-0.005,0.063-0.014c0.059-0.023,0.099-0.081,0.099-0.147V23.2
		l1.287,1.285c0.047,0.048,0.116,0.06,0.175,0.035c0.019-0.008,0.037-0.02,0.053-0.035l0.351-0.351c0.062-0.062,0.063-0.165,0-0.228
		l-1.865-1.865l-0.001-1.763l1.288,1.287c0.047,0.048,0.116,0.059,0.175,0.034c0.02-0.008,0.037-0.019,0.053-0.035l0.27-0.269h0.382
		c0.044,0,0.085-0.019,0.113-0.048c0.03-0.029,0.048-0.069,0.048-0.114v-1.821l1.248,1.248v2.638c0,0.089,0.072,0.16,0.16,0.16
		h0.496c0.089,0,0.161-0.071,0.16-0.16v-1.821l0.545,0.545c0.062,0.062,0.165,0.062,0.227-0.001l0.351-0.351
		c0.063-0.062,0.063-0.163,0.001-0.227l-0.545-0.544L23.2,20.8c0.089,0.001,0.161-0.071,0.16-0.16v-0.496
		c0-0.088-0.071-0.16-0.16-0.16h-2.639l-1.246-1.247h1.82c0.089,0,0.161-0.071,0.161-0.16v-0.382l0.27-0.271
		c0.045-0.044,0.056-0.107,0.038-0.163c-0.008-0.023-0.02-0.046-0.038-0.065l-1.286-1.286h1.763l1.866,1.865
		c0.062,0.062,0.164,0.062,0.227,0l0.351-0.351C24.549,17.861,24.549,17.76,24.486,17.697z M18.498,14.081h2.137l-1.511,1.511h-1.16
		c-0.052-0.25-0.15-0.482-0.287-0.689L18.498,14.081z M16.41,12.878l1.508-1.51v2.135l0.002-0.002v0.003l-0.821,0.82
		c0,0,0,0-0.001-0.001h0.001c-0.21-0.139-0.442-0.236-0.688-0.287V12.878z M14.08,13.502l0.002,0.002l-0.001-2.137l1.51,1.51v1.159
		c-0.111,0.023-0.217,0.059-0.32,0.1c-0.013,0.005-0.026,0.007-0.038,0.012c-0.116,0.049-0.227,0.107-0.331,0.176L14.08,13.502
		L14.08,13.502z M11.366,14.081h2.136l-0.001-0.001h0.002l0.82,0.821l0,0h-0.001c-0.139,0.21-0.236,0.443-0.287,0.689h-1.158
		L11.366,14.081z M13.503,17.919h-2.136l1.51-1.51h1.159c0.008,0.038,0.023,0.072,0.034,0.109c0.055,0.205,0.134,0.402,0.252,0.581
		L13.503,17.919z M15.288,19.426l-1.207,1.207v-2.136l0.82-0.82c0.206,0.136,0.438,0.235,0.688,0.287l0.001,1.159L15.288,19.426z
		 M16.001,17.179c-0.653,0-1.182-0.529-1.182-1.182c0-0.653,0.528-1.183,1.182-1.183c0.652,0,1.182,0.529,1.182,1.183
		C17.183,16.649,16.653,17.179,16.001,17.179z M17.919,18.498L17.919,18.498v2.134l-1.511-1.51l0.001-1.158
		c0.246-0.052,0.479-0.147,0.689-0.286l0,0c0-0.001,0.001-0.001,0.001-0.001l0.819,0.819V18.498z M20.633,17.919h-2.136L17.678,17.1
		c0.139-0.211,0.236-0.443,0.287-0.69h1.159L20.633,17.919z"/>
</g>
</svg>
