<?xml version="1.0" encoding="utf-8"?>
<!-- Generator: Adobe Illustrator 16.0.4, SVG Export Plug-In . SVG Version: 6.00 Build 0)  -->
<!DOCTYPE svg PUBLIC "-//W3C//DTD SVG 1.1//EN" "http://www.w3.org/Graphics/SVG/1.1/DTD/svg11.dtd">
<svg version="1.1" id="Layer_1" xmlns="http://www.w3.org/2000/svg" xmlns:xlink="http://www.w3.org/1999/xlink" x="0px" y="0px"
	 width="200px" height="200px" viewBox="0 0 200 200" enable-background="new 0 0 200 200" xml:space="preserve">
<g>
	<path d="M195.454,15.442H4.545C2.04,15.442,0,17.482,0,19.988v131.818c0,2.507,2.04,4.546,4.545,4.546h15.85v23.66
		c0,2.507,2.039,4.546,4.545,4.546H175.06c2.506,0,4.546-2.039,4.546-4.546v-23.66h15.849c2.507,0,4.546-2.039,4.546-4.546V19.988
		C200,17.482,197.961,15.442,195.454,15.442z M175.709,180.012c0,0.358-0.292,0.649-0.649,0.649H24.94
		c-0.358,0-0.649-0.291-0.649-0.649v-23.66h151.418V180.012z M195.454,152.455h-15.849H20.395H4.545
		c-0.358,0-0.649-0.291-0.649-0.649V67.391H67.1c1.076,0,1.948-0.872,1.948-1.948s-0.872-1.948-1.948-1.948H3.896V19.988
		c0-0.358,0.291-0.649,0.649-0.649h190.909c0.358,0,0.649,0.291,0.649,0.649v43.506H95.437c-1.076,0-1.948,0.872-1.948,1.948
		s0.872,1.948,1.948,1.948h100.667v84.415C196.104,152.164,195.812,152.455,195.454,152.455z"/>
	<path d="M86.15,63.494h-9.957c-1.076,0-1.948,0.872-1.948,1.948s0.872,1.948,1.948,1.948h9.957c1.076,0,1.948-0.872,1.948-1.948
		S87.227,63.494,86.15,63.494z"/>
</g>
</svg>
