<?xml version="1.0" encoding="utf-8"?>
<!-- Generator: Adobe Illustrator 16.0.4, SVG Export Plug-In . SVG Version: 6.00 Build 0)  -->
<!DOCTYPE svg PUBLIC "-//W3C//DTD SVG 1.1//EN" "http://www.w3.org/Graphics/SVG/1.1/DTD/svg11.dtd">
<svg version="1.1" id="Layer_1" xmlns="http://www.w3.org/2000/svg" xmlns:xlink="http://www.w3.org/1999/xlink" x="0px" y="0px"
	 width="200px" height="200px" viewBox="0 0 200 200" enable-background="new 0 0 200 200" xml:space="preserve">
<g>
	<path d="M147.727,57.096H52.272c-1.598,0-2.897,1.3-2.897,2.898v65.909c0,1.598,1.3,2.897,2.897,2.897h7.3v11.205
		c0,1.599,1.3,2.898,2.897,2.898h75.061c1.598,0,2.897-1.3,2.897-2.898v-11.205h7.3c1.598,0,2.897-1.3,2.897-2.897V59.994
		C150.625,58.396,149.325,57.096,147.727,57.096z M137.229,139.705H62.771v-10.904h74.459V139.705z M147.427,81.122H97.719
		c-0.882,0-1.6,0.717-1.6,1.599s0.718,1.6,1.6,1.6h49.708v41.282H52.573V84.32H83.55c0.882,0,1.6-0.717,1.6-1.599
		s-0.718-1.6-1.6-1.6H52.573V60.295h94.854V81.122z"/>
	<path d="M88.097,84.32h4.979c0.882,0,1.599-0.718,1.599-1.6s-0.717-1.599-1.599-1.599h-4.979c-0.882,0-1.599,0.717-1.599,1.599
		S87.215,84.32,88.097,84.32z"/>
	<path d="M100.001,0C44.861,0,0,44.862,0,100.001C0,155.141,44.861,200,100.001,200C155.142,200,200,155.141,200,100.001
		C200,44.862,155.142,0,100.001,0z M100.001,186.335c-47.604,0-86.333-38.729-86.333-86.334s38.729-86.333,86.333-86.333
		c47.608,0,86.334,38.728,86.334,86.333S147.609,186.335,100.001,186.335z"/>
</g>
</svg>
