<?xml version="1.0" encoding="utf-8"?>
<!-- Generator: Adobe Illustrator 15.1.0, SVG Export Plug-In . SVG Version: 6.00 Build 0)  -->
<!DOCTYPE svg PUBLIC "-//W3C//DTD SVG 1.1//EN" "http://www.w3.org/Graphics/SVG/1.1/DTD/svg11.dtd">
<svg version="1.1" id="Layer_1" xmlns="http://www.w3.org/2000/svg" xmlns:xlink="http://www.w3.org/1999/xlink" x="0px" y="0px"
	 width="32px" height="32px" viewBox="0 0 32 32" enable-background="new 0 0 32 32" xml:space="preserve">
<path d="M31.711,10.3L21.7,0.288c-0.384-0.384-1.007-0.384-1.392,0L2.791,17.809c-0.139,0.137-0.232,0.312-0.27,0.502L0.02,30.824
	c-0.064,0.322,0.037,0.654,0.269,0.889c0.233,0.23,0.565,0.333,0.889,0.268l12.515-2.502c0.189-0.037,0.363-0.131,0.502-0.269
	l17.519-17.521C32.096,11.307,32.096,10.684,31.711,10.3z M14.479,26.141v-2.779L28.234,9.605l1.391,1.391L14.479,26.141z
	 M2.656,27.662l1.635-8.176h3.217l0.001,5.006h5.005v3.217l-8.176,1.637L2.656,27.662z M13.646,22.525h-4.17v-4.172L23.23,4.6
	l4.168,4.172L13.646,22.525z M22.396,3.766L8.641,17.52H5.859L21.004,2.374L22.396,3.766z"/>
</svg>
