<?xml version="1.0" encoding="utf-8"?>
<!-- Generator: Adobe Illustrator 15.1.0, SVG Export Plug-In . SVG Version: 6.00 Build 0)  -->
<!DOCTYPE svg PUBLIC "-//W3C//DTD SVG 1.1//EN" "http://www.w3.org/Graphics/SVG/1.1/DTD/svg11.dtd">
<svg version="1.1" id="Layer_1" xmlns="http://www.w3.org/2000/svg" xmlns:xlink="http://www.w3.org/1999/xlink" x="0px" y="0px"
	 width="32px" height="32px" viewBox="0 0 32 32" enable-background="new 0 0 32 32" xml:space="preserve">
<g>
	<path d="M16,0C7.177,0,0,7.178,0,16s7.177,16,16,16c8.823,0,16-7.178,16-16S24.822,0,16,0z M16,29.813
		C8.383,29.813,2.187,23.617,2.187,16S8.383,2.187,16,2.187c7.618,0,13.814,6.196,13.814,13.813S23.617,29.813,16,29.813z"/>
	<path d="M23.412,13.311l-4.723-4.722c-0.182-0.182-0.475-0.182-0.656,0l-8.264,8.264C9.704,16.918,9.659,17,9.642,17.09
		l-1.181,5.903c-0.031,0.151,0.017,0.31,0.126,0.419c0.11,0.109,0.267,0.157,0.419,0.127l5.903-1.181
		c0.09-0.019,0.172-0.062,0.237-0.127l8.265-8.265C23.593,13.786,23.593,13.492,23.412,13.311z M15.283,20.783v-1.312l6.489-6.489
		l0.655,0.656L15.283,20.783z M9.705,21.501l0.771-3.856h1.518v2.361h2.361v1.518l-3.857,0.771L9.705,21.501z M14.89,19.078h-1.967
		V17.11l6.489-6.489l1.967,1.968L14.89,19.078z M19.018,10.228l-6.489,6.489h-1.312l7.145-7.145L19.018,10.228z"/>
</g>
</svg>
