<?xml version="1.0" encoding="utf-8"?>
<!-- Generator: Adobe Illustrator 15.1.0, SVG Export Plug-In . SVG Version: 6.00 Build 0)  -->
<!DOCTYPE svg PUBLIC "-//W3C//DTD SVG 1.1//EN" "http://www.w3.org/Graphics/SVG/1.1/DTD/svg11.dtd">
<svg version="1.1" id="Layer_1" xmlns="http://www.w3.org/2000/svg" xmlns:xlink="http://www.w3.org/1999/xlink" x="0px" y="0px"
	 width="32px" height="32px" viewBox="0 0 32 32" enable-background="new 0 0 32 32" xml:space="preserve">
<path d="M30.703,15.54c0-5.02-4.934-9.204-9.073-11.83c-0.528-0.335-1.946-1.13-2.371-1.368c-0.217-0.227-0.487-0.62-0.487-0.83
	c0-0.96-0.976-1.512-2.68-1.512c-1.594,0-2.553,0.481-2.669,1.332c-0.067,0.229-0.271,0.735-0.597,0.962
	c-0.273,0.152-1.885,1.053-2.456,1.415c-4.14,2.626-9.073,6.81-9.073,11.83c0,6.442,5.467,11.79,12.562,12.698
	c-0.799,0.898-1.02,2.002-1.028,2.053c-0.005,0.029,0.004,0.059,0.024,0.082c0.019,0.016,0.041,0.025,0.065,0.025
	c0.006,0,0.013,0,0.017-0.002c0.053-0.01,1.289-0.248,2.213-1.17c0.018-0.018,0.033-0.035,0.051-0.053
	c-0.008,0.133-0.012,0.264-0.012,0.396c0,1.307,0.705,2.348,0.734,2.393C15.941,31.984,15.969,32,16,32
	c0.029,0,0.059-0.016,0.076-0.039c0.029-0.043,0.736-1.086,0.736-2.391c0-0.135-0.006-0.266-0.013-0.398
	c0.019,0.018,0.034,0.037,0.052,0.055c0.924,0.922,2.159,1.158,2.211,1.168c0.006,0.002,0.013,0.002,0.019,0.002
	c0.022,0,0.047-0.01,0.063-0.025c0.021-0.021,0.031-0.053,0.025-0.082c-0.011-0.049-0.229-1.152-1.029-2.053
	C25.236,27.328,30.703,21.98,30.703,15.54z M28.65,15.54c0,2.453-0.978,4.71-2.601,6.523c0.853-1.588,1.29-3.271,1.306-5.039
	c0.027-3.335-1.438-6.412-3.043-8.775C26.592,10.246,28.65,12.803,28.65,15.54z M20.591,25.576
	c4.353-5.213,3.499-11.401,1.839-15.925c-0.578-1.577-1.271-3.01-1.945-4.235c0.017,0.01,0.033,0.021,0.047,0.028
	c0.312,0.199,0.652,0.423,1.002,0.662c2.023,2.276,5.008,6.403,4.969,10.914c-0.023,2.615-1.062,5.043-3.09,7.238
	C22.545,24.795,21.602,25.238,20.591,25.576z M9.264,24.648c-2.076-2.189-3.148-4.645-3.189-7.318
	C5.998,12.348,9.503,7.7,11.625,5.348c0.436-0.265,1.212-0.705,1.727-0.994c-0.781,1.352-1.623,3.013-2.303,4.873
	c-1.767,4.816-2.621,11.519,2.752,16.919C12.157,25.898,10.625,25.383,9.264,24.648z M11.852,9.52c1.246-3.398,3.082-6.181,4-7.459
	c0.075-0.004,0.155-0.006,0.239-0.006c0.146,0,0.277,0.006,0.394,0.016c2.037,5.873,4.438,18.601,0.238,24.22
	c-0.24,0.01-0.479,0.029-0.723,0.029c-0.27,0-0.532-0.02-0.797-0.033C9.279,21.076,10.092,14.317,11.852,9.52z M17.839,26.193
	c3.659-5.793,1.672-16.645,0.106-22.265c0.06,0.055,0.123,0.102,0.193,0.141c0.008,0.004,0.385,0.214,0.846,0.475
	c0.869,1.424,1.869,3.292,2.642,5.4c1.681,4.58,2.5,10.945-2.574,16.044C18.654,26.074,18.25,26.143,17.839,26.193z M3.35,15.54
	c0-3.273,2.944-6.294,5.688-8.4C7.117,9.761,5.159,13.41,5.218,17.34c0.031,2.025,0.604,3.93,1.705,5.693
	C4.716,21.092,3.35,18.451,3.35,15.54z"/>
</svg>
