<?xml version="1.0" encoding="utf-8"?>
<!-- Generator: Adobe Illustrator 15.1.0, SVG Export Plug-In . SVG Version: 6.00 Build 0)  -->
<!DOCTYPE svg PUBLIC "-//W3C//DTD SVG 1.1//EN" "http://www.w3.org/Graphics/SVG/1.1/DTD/svg11.dtd">
<svg version="1.1" id="Layer_1" xmlns="http://www.w3.org/2000/svg" xmlns:xlink="http://www.w3.org/1999/xlink" x="0px" y="0px"
	 width="32px" height="32px" viewBox="0 0 32 32" enable-background="new 0 0 32 32" xml:space="preserve">
<g>
	<path d="M16,0C7.177,0,0,7.178,0,16c0,8.822,7.177,16,16,16c8.822,0,16-7.178,16-16C32,7.178,24.822,0,16,0z M16,29.814
		C8.383,29.814,2.187,23.617,2.187,16C2.187,8.383,8.383,2.187,16,2.187S29.813,8.383,29.813,16
		C29.813,23.617,23.617,29.814,16,29.814z"/>
	<path id="Tumblr_1_" d="M16.895,20.521c-0.239-0.141-0.46-0.382-0.547-0.615c-0.089-0.235-0.078-0.711-0.078-1.538v-3.653h3.323
		v-2.542H16.27V8.876h-2.044c-0.092,0.734-0.259,1.34-0.503,1.816c-0.244,0.476-0.566,0.883-0.97,1.222
		c-0.402,0.34-1.057,0.601-1.621,0.782v2.018h1.952v4.997c0,0.651,0.069,1.149,0.208,1.493c0.138,0.341,0.384,0.665,0.741,0.971
		c0.356,0.302,0.787,0.537,1.292,0.703c0.505,0.164,0.892,0.245,1.549,0.245c0.578,0,1.116-0.057,1.615-0.172
		c0.498-0.116,1.054-0.317,1.668-0.604v-2.247c-0.72,0.469-1.443,0.702-2.172,0.702C17.576,20.803,17.214,20.708,16.895,20.521z"/>
</g>
</svg>
