<?xml version="1.0" encoding="utf-8"?>
<!-- Generator: Adobe Illustrator 15.1.0, SVG Export Plug-In . SVG Version: 6.00 Build 0)  -->
<!DOCTYPE svg PUBLIC "-//W3C//DTD SVG 1.1//EN" "http://www.w3.org/Graphics/SVG/1.1/DTD/svg11.dtd">
<svg version="1.1" id="Layer_1" xmlns="http://www.w3.org/2000/svg" xmlns:xlink="http://www.w3.org/1999/xlink" x="0px" y="0px"
	 width="32px" height="32px" viewBox="0 0 32 32" enable-background="new 0 0 32 32" xml:space="preserve">
<path id="Tumblr_2_" d="M18.809,26.152c-0.537-0.314-1.031-0.855-1.228-1.381c-0.2-0.526-0.175-1.598-0.175-3.453v-8.207h7.464V7.4
	h-7.464V0h-4.592c-0.205,1.648-0.582,3.011-1.131,4.079c-0.545,1.069-1.271,1.983-2.178,2.745c-0.902,0.763-2.373,1.35-3.64,1.756
	v4.531h4.383v11.224c0,1.465,0.153,2.582,0.466,3.353c0.311,0.77,0.863,1.496,1.665,2.184c0.8,0.677,1.767,1.205,2.902,1.579
	c1.134,0.368,2.003,0.55,3.479,0.55c1.3,0,2.507-0.128,3.628-0.387c1.118-0.26,2.367-0.713,3.745-1.354v-5.048
	c-1.616,1.055-3.241,1.578-4.876,1.578C20.34,26.789,19.525,26.576,18.809,26.152z"/>
</svg>
