<?xml version="1.0" encoding="utf-8"?>
<!-- Generator: Adobe Illustrator 15.1.0, SVG Export Plug-In . SVG Version: 6.00 Build 0)  -->
<!DOCTYPE svg PUBLIC "-//W3C//DTD SVG 1.1//EN" "http://www.w3.org/Graphics/SVG/1.1/DTD/svg11.dtd">
<svg version="1.1" id="Layer_1" xmlns="http://www.w3.org/2000/svg" xmlns:xlink="http://www.w3.org/1999/xlink" x="0px" y="0px"
	 width="32px" height="32px" viewBox="0 0 32 32" enable-background="new 0 0 32 32" xml:space="preserve">
<path d="M32,6.077c-1.178,0.521-2.443,0.875-3.771,1.033c1.355-0.813,2.398-2.101,2.887-3.635c-1.268,0.754-2.674,1.301-4.168,1.596
	c-1.197-1.276-2.904-2.074-4.793-2.074c-3.627,0-6.565,2.939-6.565,6.564c0,0.517,0.058,1.016,0.169,1.498
	C10.303,10.786,5.466,8.17,2.227,4.199c-0.564,0.97-0.888,2.097-0.888,3.3c0,2.277,1.159,4.288,2.923,5.464
	c-1.078-0.032-2.091-0.328-2.975-0.821c-0.001,0.027-0.001,0.057-0.001,0.084c0,3.18,2.263,5.833,5.267,6.439
	C6,18.811,5.42,18.893,4.824,18.893c-0.423,0-0.835-0.041-1.236-0.117c0.835,2.607,3.261,4.504,6.134,4.559
	c-2.246,1.762-5.078,2.811-8.154,2.811c-0.53,0-1.051-0.031-1.566-0.092c2.906,1.863,6.355,2.951,10.064,2.951
	c12.074,0,18.679-10.004,18.679-18.68c0-0.284-0.006-0.567-0.02-0.849C30.006,8.548,31.119,7.393,32,6.077z"/>
</svg>
