<?xml version="1.0" encoding="utf-8"?>
<!-- Generator: Adobe Illustrator 15.1.0, SVG Export Plug-In . SVG Version: 6.00 Build 0)  -->
<!DOCTYPE svg PUBLIC "-//W3C//DTD SVG 1.1//EN" "http://www.w3.org/Graphics/SVG/1.1/DTD/svg11.dtd">
<svg version="1.1" id="Layer_1" xmlns="http://www.w3.org/2000/svg" xmlns:xlink="http://www.w3.org/1999/xlink" x="0px" y="0px"
	 width="32px" height="32px" viewBox="0 0 32 32" enable-background="new 0 0 32 32" xml:space="preserve">
<g>
	<path d="M16,0C7.177,0,0,7.178,0,16s7.177,16,16,16c8.822,0,16-7.178,16-16S24.822,0,16,0z M16,29.814
		C8.383,29.814,2.187,23.617,2.187,16C2.187,8.383,8.383,2.187,16,2.187c7.616,0,13.813,6.197,13.813,13.813
		C29.813,23.617,23.616,29.814,16,29.814z"/>
	<path d="M23.34,11.448c-0.54,0.239-1.12,0.401-1.729,0.474c0.622-0.373,1.1-0.963,1.324-1.667
		c-0.582,0.345-1.227,0.596-1.913,0.731c-0.549-0.585-1.332-0.952-2.198-0.952c-1.663,0-3.011,1.349-3.011,3.012
		c0,0.236,0.026,0.465,0.078,0.686c-2.503-0.125-4.722-1.325-6.208-3.146c-0.259,0.445-0.408,0.962-0.408,1.514
		c0,1.045,0.532,1.968,1.34,2.507c-0.494-0.015-0.959-0.151-1.364-0.377c0,0.013,0,0.026,0,0.038c0,1.459,1.038,2.676,2.416,2.954
		c-0.253,0.068-0.52,0.105-0.793,0.105c-0.194,0-0.383-0.019-0.567-0.054c0.383,1.196,1.496,2.066,2.813,2.091
		c-1.031,0.809-2.329,1.289-3.741,1.289c-0.243,0-0.482-0.015-0.718-0.042c1.333,0.854,2.916,1.354,4.617,1.354
		c5.539,0,8.568-4.59,8.568-8.57c0-0.13-0.003-0.26-0.008-0.389C22.426,12.582,22.937,12.052,23.34,11.448z"/>
</g>
</svg>
