<?xml version="1.0" encoding="utf-8"?>
<!-- Generator: Adobe Illustrator 16.0.4, SVG Export Plug-In . SVG Version: 6.00 Build 0)  -->
<!DOCTYPE svg PUBLIC "-//W3C//DTD SVG 1.1//EN" "http://www.w3.org/Graphics/SVG/1.1/DTD/svg11.dtd">
<svg version="1.1" id="Layer_1" xmlns="http://www.w3.org/2000/svg" xmlns:xlink="http://www.w3.org/1999/xlink" x="0px" y="0px"
	 width="32px" height="32px" viewBox="0 0 32 32" enable-background="new 0 0 32 32" xml:space="preserve">
<g>
	<path d="M16.001,0C7.178,0,0,7.178,0,16s7.178,16,16.001,16C24.823,32,32,24.822,32,16S24.823,0,16.001,0z M16.001,29.813
		C8.384,29.813,2.187,23.616,2.187,16c0-7.617,6.197-13.813,13.814-13.813c7.616,0,13.813,6.196,13.813,13.813
		C29.814,23.616,23.617,29.813,16.001,29.813z"/>
	<g>
		<path d="M12.151,11.906c0.133,0.132,0.348,0.132,0.48,0L15.138,9.4v5.302c0,0.188,0.151,0.339,0.338,0.339h1.049
			c0.188,0,0.339-0.151,0.339-0.339V9.401l2.506,2.505c0.133,0.132,0.348,0.132,0.479,0l0.742-0.742
			c0.132-0.132,0.132-0.348,0-0.479l-4.352-4.351c-0.131-0.132-0.347-0.132-0.479,0l-4.35,4.352c-0.132,0.132-0.133,0.347,0,0.479
			L12.151,11.906z"/>
		<path d="M20.767,12.724h-1.745c-0.201,0-0.349,0.166-0.349,0.35v7.53c0,1.543-1.083,2.773-2.682,2.773s-2.664-1.23-2.664-2.792
			v-7.512c0-0.184-0.146-0.35-0.349-0.35h-1.745c-0.183,0-0.349,0.166-0.349,0.35v7.641c0,2.791,2.223,5.051,5.106,5.051
			c2.902,0,5.125-2.26,5.125-5.051v-7.641C21.116,12.89,20.95,12.724,20.767,12.724z"/>
	</g>
</g>
</svg>
