<?xml version="1.0" encoding="utf-8"?>
<!-- Generator: Adobe Illustrator 16.0.4, SVG Export Plug-In . SVG Version: 6.00 Build 0)  -->
<!DOCTYPE svg PUBLIC "-//W3C//DTD SVG 1.1//EN" "http://www.w3.org/Graphics/SVG/1.1/DTD/svg11.dtd">
<svg version="1.1" id="Layer_1" xmlns="http://www.w3.org/2000/svg" xmlns:xlink="http://www.w3.org/1999/xlink" x="0px" y="0px"
	 width="32px" height="32px" viewBox="0 0 32 32" enable-background="new 0 0 32 32" xml:space="preserve">
<path d="M16,0C7.177,0,0,7.178,0,16s7.177,16,16,16s16-7.178,16-16S24.823,0,16,0z M16,29.812C8.383,29.812,2.186,23.617,2.186,16
	S8.383,2.186,16,2.186S29.812,8.383,29.812,16S23.617,29.812,16,29.812z"/>
<g>
	<path d="M15.882,6.674c-0.094,0.153-2.29,3.756-2.29,5.035c0,1.328,1.08,2.408,2.408,2.408s2.408-1.081,2.408-2.408
		c0-1.279-2.196-4.882-2.29-5.035C16.068,6.591,15.932,6.591,15.882,6.674z"/>
	<path d="M15.882,17.949c-0.094,0.152-2.29,3.754-2.29,5.033c0,1.329,1.08,2.409,2.408,2.409s2.408-1.08,2.408-2.409
		c0-1.279-2.196-4.881-2.29-5.033C16.068,17.866,15.932,17.866,15.882,17.949z"/>
	<path d="M10.29,12.312C10.196,12.464,8,16.066,8,17.346c0,1.328,1.081,2.409,2.408,2.409c1.329,0,2.409-1.081,2.409-2.409
		c0-1.279-2.197-4.881-2.291-5.034C10.477,12.229,10.34,12.229,10.29,12.312z"/>
	<path d="M21.71,12.312c-0.05-0.083-0.187-0.083-0.236,0c-0.094,0.153-2.29,3.755-2.29,5.034c0,1.328,1.08,2.409,2.408,2.409
		S24,18.674,24,17.346C24,16.066,21.804,12.464,21.71,12.312z"/>
</g>
</svg>
