<?xml version="1.0" encoding="utf-8"?>
<!-- Generator: Adobe Illustrator 15.1.0, SVG Export Plug-In . SVG Version: 6.00 Build 0)  -->
<!DOCTYPE svg PUBLIC "-//W3C//DTD SVG 1.1//EN" "http://www.w3.org/Graphics/SVG/1.1/DTD/svg11.dtd">
<svg version="1.1" id="Layer_1" xmlns="http://www.w3.org/2000/svg" xmlns:xlink="http://www.w3.org/1999/xlink" x="0px" y="0px"
	 width="32px" height="32px" viewBox="0 0 32 32" enable-background="new 0 0 32 32" xml:space="preserve">
<g>
	<g>
		<path d="M24.824,23.82l-1.068-2.701c-0.201-0.52-0.391-0.912-0.568-1.176c-0.178-0.267-0.397-0.443-0.664-0.535v-0.055
			c1.053-0.42,1.576-1.193,1.576-2.316c0-0.84-0.274-1.455-0.83-1.844c-0.552-0.387-1.377-0.582-2.473-0.582h-2.301
			c-0.275,0-0.411,0.139-0.411,0.412v8.907c0,0.199,0.183,0.301,0.548,0.301h0.108c0.364,0,0.548-0.102,0.548-0.301v-3.945h1.232
			c0.558,0,0.986,0.095,1.289,0.279c0.303,0.188,0.554,0.539,0.754,1.062l1.041,2.684c0.056,0.146,0.237,0.221,0.549,0.221h0.136
			c0.384,0,0.575-0.073,0.575-0.221C24.863,23.967,24.852,23.9,24.824,23.82z M21.098,18.941h-1.809v-3.289h1.713
			c0.574,0,1.027,0.132,1.355,0.396c0.328,0.266,0.494,0.646,0.494,1.143c0,0.5-0.172,0.914-0.516,1.246
			C21.994,18.775,21.582,18.941,21.098,18.941z"/>
		<path d="M14.814,18.594c0.549,0,1.025-0.203,1.418-0.6c0.391-0.396,0.59-0.879,0.59-1.432c0-0.557-0.199-1.039-0.592-1.431
			c-0.391-0.394-0.873-0.595-1.434-0.595c-0.557,0-1.039,0.198-1.436,0.591c-0.395,0.391-0.596,0.868-0.596,1.417v0.92h-1.576v-0.92
			c0-0.549-0.201-1.026-0.596-1.417c-0.396-0.393-0.877-0.591-1.434-0.591c-0.557,0-1.038,0.198-1.432,0.595
			c-0.394,0.393-0.594,0.874-0.594,1.431c0,0.553,0.2,1.035,0.594,1.432s0.869,0.6,1.414,0.6h0.922v1.576H9.143
			c-0.545,0-1.021,0.203-1.414,0.6c-0.393,0.397-0.594,0.877-0.594,1.426c0,0.562,0.2,1.046,0.594,1.438
			c0.395,0.396,0.875,0.595,1.432,0.595c0.555,0,1.039-0.197,1.434-0.593c0.396-0.391,0.596-0.864,0.596-1.415v-0.923h1.576v0.923
			c0,0.549,0.202,1.024,0.598,1.415c0.396,0.396,0.878,0.593,1.435,0.593c0.56,0,1.042-0.199,1.433-0.597
			c0.394-0.393,0.593-0.877,0.593-1.438c0-0.547-0.199-1.026-0.591-1.422c-0.392-0.397-0.869-0.602-1.416-0.602h-0.922v-1.578h0.92
			v0.002H14.814z M13.895,16.562c0-0.25,0.086-0.458,0.265-0.636c0.179-0.177,0.388-0.263,0.639-0.263
			c0.25,0,0.458,0.086,0.636,0.263c0.176,0.178,0.262,0.385,0.262,0.636c0,0.252-0.086,0.461-0.266,0.641
			c-0.178,0.178-0.385,0.264-0.632,0.264h-0.903L13.895,16.562L13.895,16.562z M10.064,22.201c0,0.246-0.086,0.453-0.266,0.631
			C9.62,23.014,9.413,23.1,9.166,23.1c-0.25,0-0.458-0.086-0.639-0.268c-0.178-0.178-0.264-0.387-0.264-0.639
			c0-0.246,0.086-0.453,0.264-0.631c0.181-0.181,0.389-0.269,0.639-0.269h0.898V22.201z M10.064,17.467H9.166
			c-0.251,0-0.459-0.086-0.639-0.264c-0.178-0.18-0.264-0.389-0.264-0.641c0-0.25,0.086-0.457,0.264-0.636
			c0.18-0.176,0.387-0.262,0.634-0.262c0.251,0,0.46,0.086,0.639,0.262c0.179,0.18,0.267,0.387,0.267,0.636v0.903L10.064,17.467
			L10.064,17.467z M12.768,20.17H11.19v-1.576h1.576v1.576H12.768z M14.798,21.297c0.247,0,0.453,0.086,0.632,0.266
			c0.18,0.179,0.266,0.388,0.266,0.633c0,0.25-0.086,0.459-0.262,0.64c-0.178,0.181-0.386,0.267-0.636,0.267
			c-0.251,0-0.459-0.086-0.639-0.267c-0.179-0.181-0.265-0.385-0.265-0.633v-0.904L14.798,21.297L14.798,21.297z"/>
	</g>
	<path d="M8.529,4.779c0.326,0,0.592-0.207,0.592-0.461v-3.86C9.121,0.206,8.855,0,8.529,0c-0.326,0-0.59,0.206-0.59,0.459v3.859
		C7.939,4.572,8.204,4.779,8.529,4.779z"/>
	<path d="M23.471,4.779c0.327,0,0.592-0.207,0.592-0.461v-3.86C24.062,0.206,23.798,0,23.471,0c-0.326,0-0.592,0.206-0.592,0.459
		v3.859C22.88,4.572,23.146,4.779,23.471,4.779z"/>
	<path d="M30.592,2.388H25.45V4.32c0,1.018-0.888,1.847-1.979,1.847c-1.091,0-1.979-0.829-1.979-1.847V2.388H10.509V4.32
		c0,1.018-0.888,1.847-1.979,1.847c-1.09,0-1.979-0.829-1.979-1.847V2.388H1.41c-0.584,0-1.061,0.477-1.061,1.061v27.492
		C0.35,31.525,0.825,32,1.41,32h29.181c0.584,0,1.06-0.475,1.06-1.059V3.448C31.648,2.864,31.175,2.388,30.592,2.388z M29.898,30.25
		H2.102V9.904h27.796V30.25L29.898,30.25z"/>
</g>
</svg>
