<?xml version="1.0" encoding="utf-8"?>
<!-- Generator: Adobe Illustrator 15.1.0, SVG Export Plug-In . SVG Version: 6.00 Build 0)  -->
<!DOCTYPE svg PUBLIC "-//W3C//DTD SVG 1.1//EN" "http://www.w3.org/Graphics/SVG/1.1/DTD/svg11.dtd">
<svg version="1.1" id="Layer_1" xmlns="http://www.w3.org/2000/svg" xmlns:xlink="http://www.w3.org/1999/xlink" x="0px" y="0px"
	 width="32px" height="32px" viewBox="0 0 32 32" enable-background="new 0 0 32 32" xml:space="preserve">
<g>
	<g>
		<g>
			<path d="M20.508,19.728l-0.546-1.38c-0.103-0.266-0.199-0.467-0.291-0.602c-0.091-0.135-0.204-0.226-0.339-0.272v-0.028
				c0.536-0.214,0.805-0.609,0.805-1.184c0-0.429-0.142-0.743-0.424-0.941c-0.282-0.198-0.703-0.297-1.264-0.297h-1.175
				c-0.141,0-0.21,0.07-0.21,0.21v4.55c0,0.103,0.093,0.153,0.279,0.153H17.4c0.187,0,0.279-0.051,0.279-0.153v-2.016h0.63
				c0.284,0,0.504,0.048,0.658,0.144c0.154,0.095,0.282,0.275,0.385,0.542l0.532,1.372c0.028,0.074,0.121,0.111,0.28,0.111h0.069
				c0.196,0,0.294-0.037,0.294-0.111C20.528,19.802,20.521,19.769,20.508,19.728z M18.604,17.235H17.68v-1.68h0.876
				c0.293,0,0.523,0.067,0.692,0.203c0.168,0.135,0.252,0.33,0.252,0.584c0,0.254-0.088,0.467-0.263,0.637
				S18.852,17.235,18.604,17.235z"/>
			<path d="M15.394,17.057c0.281,0,0.524-0.104,0.724-0.306c0.2-0.203,0.301-0.449,0.301-0.731c0-0.284-0.102-0.53-0.302-0.73
				c-0.2-0.201-0.446-0.304-0.732-0.304c-0.284,0-0.53,0.102-0.732,0.301c-0.202,0.2-0.305,0.444-0.305,0.725v0.47h-0.805v-0.47
				c0-0.281-0.102-0.524-0.305-0.725c-0.202-0.2-0.448-0.301-0.732-0.301s-0.53,0.102-0.731,0.304
				c-0.201,0.201-0.303,0.446-0.303,0.73c0,0.282,0.102,0.528,0.303,0.731c0.201,0.202,0.443,0.306,0.722,0.306h0.471v0.806h-0.471
				c-0.278,0-0.521,0.104-0.722,0.307c-0.201,0.202-0.303,0.447-0.303,0.728c0,0.286,0.102,0.534,0.303,0.734
				c0.201,0.202,0.447,0.303,0.731,0.303c0.284,0,0.531-0.101,0.732-0.301c0.203-0.2,0.305-0.443,0.305-0.724v-0.471h0.805v0.471
				c0,0.279,0.103,0.523,0.305,0.724s0.448,0.301,0.732,0.301c0.286,0,0.532-0.101,0.732-0.303c0.201-0.201,0.302-0.448,0.302-0.734
				c0-0.28-0.102-0.525-0.301-0.728c-0.2-0.203-0.443-0.307-0.724-0.307h-0.47v-0.806H15.394z M14.924,16.02
				c0-0.127,0.044-0.233,0.135-0.324c0.091-0.09,0.198-0.134,0.326-0.134c0.128,0,0.234,0.044,0.325,0.134
				c0.09,0.091,0.134,0.197,0.134,0.324c0,0.129-0.044,0.235-0.136,0.327s-0.197,0.135-0.323,0.135h-0.461V16.02z M12.967,18.9
				c0,0.125-0.044,0.23-0.135,0.322c-0.092,0.092-0.197,0.136-0.323,0.136c-0.128,0-0.234-0.044-0.326-0.136
				c-0.091-0.091-0.135-0.197-0.135-0.326c0-0.126,0.044-0.232,0.135-0.322c0.092-0.092,0.198-0.136,0.326-0.136h0.458V18.9z
				 M12.967,16.481h-0.458c-0.128,0-0.235-0.043-0.326-0.135c-0.091-0.091-0.135-0.198-0.135-0.327c0-0.128,0.044-0.233,0.135-0.324
				c0.091-0.09,0.197-0.134,0.323-0.134c0.128,0,0.235,0.044,0.327,0.134c0.091,0.091,0.135,0.197,0.135,0.324V16.481z
				 M14.348,17.862h-0.805v-0.806h0.805V17.862z M15.385,18.438c0.126,0,0.231,0.044,0.323,0.135
				c0.091,0.091,0.136,0.197,0.136,0.323c0,0.129-0.044,0.234-0.135,0.326s-0.196,0.136-0.324,0.136
				c-0.128,0-0.234-0.044-0.326-0.136c-0.091-0.092-0.135-0.196-0.135-0.322v-0.462H15.385z"/>
		</g>
		<path d="M12.183,9.999c0.167,0,0.302-0.105,0.302-0.235V7.792c0-0.129-0.135-0.235-0.302-0.235c-0.167,0-0.302,0.105-0.302,0.235
			v1.972C11.881,9.894,12.017,9.999,12.183,9.999z"/>
		<path d="M19.816,9.999c0.167,0,0.302-0.105,0.302-0.235V7.792c0-0.129-0.135-0.235-0.302-0.235s-0.302,0.105-0.302,0.235v1.972
			C19.515,9.894,19.649,9.999,19.816,9.999z"/>
		<path d="M23.454,8.778h-2.627v0.986c0,0.521-0.453,0.944-1.011,0.944s-1.011-0.423-1.011-0.944V8.778h-5.611v0.986
			c0,0.521-0.454,0.944-1.012,0.944c-0.557,0-1.011-0.423-1.011-0.944V8.778H8.546c-0.298,0-0.541,0.243-0.541,0.542v14.046
			c0,0.298,0.243,0.54,0.541,0.54h14.908c0.298,0,0.541-0.242,0.541-0.54V9.319C23.995,9.021,23.752,8.778,23.454,8.778z
			 M23.101,23.012H8.899V12.618h14.201V23.012z"/>
	</g>
	<path d="M16,0C7.178,0,0,7.177,0,16c0,8.823,7.178,16,16,16c8.823,0,16-7.178,16-16C32,7.177,24.822,0,16,0z M16,29.813
		C8.383,29.813,2.187,23.617,2.187,16C2.187,8.382,8.383,2.187,16,2.187c7.618,0,13.814,6.196,13.814,13.813
		C29.813,23.617,23.617,29.813,16,29.813z"/>
</g>
</svg>
