<?xml version="1.0" encoding="utf-8"?>
<!-- Generator: Adobe Illustrator 15.1.0, SVG Export Plug-In . SVG Version: 6.00 Build 0)  -->
<!DOCTYPE svg PUBLIC "-//W3C//DTD SVG 1.1//EN" "http://www.w3.org/Graphics/SVG/1.1/DTD/svg11.dtd">
<svg version="1.1" id="Layer_1" xmlns="http://www.w3.org/2000/svg" xmlns:xlink="http://www.w3.org/1999/xlink" x="0px" y="0px"
	 width="32px" height="32px" viewBox="0 0 32 32" enable-background="new 0 0 32 32" xml:space="preserve">
<g>
	<path d="M16,0C7.177,0,0,7.178,0,16c0,8.822,7.177,16,16,16c8.822,0,16-7.178,16-16C32,7.178,24.822,0,16,0z M16,29.814
		C8.383,29.814,2.187,23.617,2.187,16C2.187,8.383,8.383,2.187,16,2.187S29.813,8.383,29.813,16
		C29.813,23.617,23.617,29.814,16,29.814z"/>
	<g>
		<g>
			<path d="M20.867,10.656c0,2.073-1.529,3.061-1.529,3.061s-1.529-0.988-1.529-3.061c0-2.074,1.529-3.057,1.529-3.057
				S20.867,8.582,20.867,10.656z"/>
			<path d="M16.779,11.961c1.876,0.88,2.12,2.684,2.12,2.684s-1.542,0.965-3.419,0.087c-1.878-0.88-2.12-2.684-2.12-2.684
				S14.902,11.082,16.779,11.961z"/>
		</g>
		<g>
			<path d="M10.53,18.009c0,0.88,0.706,1.586,1.657,1.586c0.698,0,1.263-0.379,1.519-0.927c0.075,0.571,0.443,0.915,1.029,0.915
				c0.44,0,0.698-0.233,0.898-0.492v0.436h0.871v-2.327h0.59v1.457c0,0.711,0.361,0.922,0.896,0.922c0.29,0,0.504-0.07,0.687-0.179
				V18.7c-0.127,0.07-0.271,0.109-0.431,0.109c-0.193,0-0.28-0.097-0.28-0.297v-1.313h0.722v-0.744h-0.722V15.67h-0.871v0.786h-0.59
				h-0.821h-0.05v1.714c0,0.41-0.212,0.623-0.544,0.623c-0.331,0-0.527-0.213-0.527-0.623v-1.714h-0.871v0.827
				c-0.262-0.525-0.814-0.884-1.493-0.884c-0.958,0-1.668,0.717-1.668,1.599V18.009z M11.39,17.985c0-0.452,0.298-0.837,0.797-0.837
				c0.482,0,0.808,0.396,0.808,0.849v0.012c0,0.452-0.299,0.835-0.796,0.835c-0.481,0-0.809-0.396-0.809-0.847V17.985z"/>
			<path d="M19.77,17.814c0-0.413,0.213-0.625,0.543-0.625c0.335,0,0.528,0.212,0.528,0.625v1.712h0.871v-1.988
				c0-0.705-0.385-1.14-1.043-1.14c-0.442,0-0.699,0.236-0.899,0.494v-3.175h-0.87v5.81l0,0v0.713
				c-0.206-0.247-0.494-0.458-0.958-0.458c-0.614,0-1.19,0.402-1.352,1.148c-0.029-0.323-0.132-0.591-0.324-0.782
				c-0.217-0.218-0.561-0.343-1.036-0.343c-0.521,0-0.854,0.096-1.191,0.245l0.217,0.665c0.282-0.103,0.517-0.167,0.848-0.167
				c0.436,0,0.66,0.2,0.66,0.562v0.051c-0.218-0.073-0.441-0.124-0.75-0.124c-0.727,0-1.238,0.311-1.238,0.979v0.01
				c0,0.608,0.475,0.94,1.056,0.94c0.422,0,0.715-0.154,0.927-0.389v0.332h0.842v-1.053c0.176,0.721,0.747,1.109,1.343,1.109
				c0.453,0,0.745-0.212,0.958-0.498v0.441h0.87v-4.182l0,0V17.814z M15.774,21.826c0,0.316-0.275,0.537-0.682,0.537
				c-0.281,0-0.475-0.137-0.475-0.37V21.98c0-0.274,0.228-0.424,0.601-0.424c0.211,0,0.407,0.046,0.556,0.116V21.826z
				 M18.911,21.379c0,0.51-0.339,0.848-0.745,0.848c-0.407,0-0.75-0.338-0.75-0.848v-0.011c0-0.517,0.343-0.849,0.75-0.849
				c0.406,0,0.745,0.339,0.745,0.849V21.379z"/>
			<path d="M13.888,20.692v-0.911c-0.515-0.022-0.803,0.252-0.979,0.676v-0.619h-0.147h-0.723h-1.163v-0.783h-0.87v0.783H9.657
				c0.036-0.071,0.068-0.15,0.1-0.237l1.181-3.145h-0.905l-0.671,2.091l-0.698-2.091H7.741l1.203,3.083
				c-0.074,0.154-0.154,0.2-0.303,0.2c-0.115,0-0.258-0.052-0.373-0.119l-0.292,0.629c0.222,0.131,0.458,0.211,0.773,0.211
				c0.435,0,0.682-0.163,0.889-0.58v0.704h0.367v1.455c0,0.711,0.361,0.923,0.894,0.923c0.293,0,0.505-0.069,0.686-0.178v-0.699
				c-0.125,0.069-0.269,0.11-0.429,0.11c-0.194,0-0.28-0.098-0.28-0.3v-1.312h1.163v2.326h0.87v-1.135
				c0-0.731,0.355-1.082,0.934-1.082H13.888z"/>
			<path d="M22.836,21.449c0-0.872-0.469-1.668-1.494-1.668c-0.896,0-1.52,0.723-1.52,1.598v0.013c0,0.938,0.682,1.586,1.604,1.586
				c0.557,0,0.97-0.218,1.256-0.572l-0.499-0.442c-0.241,0.224-0.452,0.315-0.745,0.315c-0.389,0-0.665-0.206-0.749-0.602h2.136
				C22.83,21.599,22.836,21.518,22.836,21.449z M20.676,21.134c0.069-0.396,0.304-0.653,0.666-0.653
				c0.365,0,0.595,0.263,0.646,0.653H20.676z"/>
		</g>
	</g>
</g>
</svg>
