<?xml version="1.0" encoding="utf-8"?>
<!-- Generator: Adobe Illustrator 15.1.0, SVG Export Plug-In . SVG Version: 6.00 Build 0)  -->
<!DOCTYPE svg PUBLIC "-//W3C//DTD SVG 1.1//EN" "http://www.w3.org/Graphics/SVG/1.1/DTD/svg11.dtd">
<svg version="1.1" id="Layer_1" xmlns="http://www.w3.org/2000/svg" xmlns:xlink="http://www.w3.org/1999/xlink" x="0px" y="0px"
	 width="32px" height="32px" viewBox="0 0 32 32" enable-background="new 0 0 32 32" xml:space="preserve">
<g>
	<g>
		<path d="M27.608,6.36c0,4.314-3.183,6.371-3.183,6.371s-3.182-2.057-3.182-6.371C21.244,2.046,24.427,0,24.427,0
			S27.608,2.046,27.608,6.36z"/>
		<path d="M19.103,9.078c3.904,1.832,4.412,5.584,4.412,5.584s-3.209,2.008-7.113,0.181c-3.906-1.833-4.41-5.585-4.41-5.585
			S15.198,7.249,19.103,9.078z"/>
	</g>
	<g>
		<path d="M6.101,21.66c0,1.832,1.469,3.299,3.448,3.299c1.451,0,2.628-0.787,3.159-1.928c0.157,1.188,0.921,1.906,2.143,1.906
			c0.916,0,1.451-0.486,1.867-1.027v0.908h1.812v-4.842h1.229v3.031c0,1.479,0.751,1.918,1.862,1.918
			c0.604,0,1.051-0.146,1.43-0.371v-1.457c-0.263,0.148-0.562,0.229-0.896,0.229c-0.403,0-0.582-0.199-0.582-0.615v-2.732h1.501
			V18.43h-1.503v-1.637h-1.812v1.637H18.53h-1.707h-0.105v3.564c0,0.854-0.439,1.297-1.131,1.297c-0.689,0-1.096-0.441-1.096-1.297
			V18.43h-1.812v1.719c-0.545-1.094-1.693-1.84-3.105-1.84c-1.992,0-3.471,1.494-3.471,3.328v0.023H6.101z M7.89,21.609
			c0-0.938,0.621-1.738,1.659-1.738c1.001,0,1.681,0.822,1.681,1.766v0.023c0,0.941-0.621,1.738-1.655,1.738
			c-1.003,0-1.683-0.824-1.683-1.762L7.89,21.609L7.89,21.609z"/>
		<path d="M25.325,21.256c0-0.857,0.443-1.301,1.131-1.301c0.695,0,1.098,0.441,1.098,1.301v3.562h1.812v-4.137
			c0-1.469-0.799-2.373-2.17-2.373c-0.92,0-1.453,0.492-1.871,1.025v-6.605h-1.811v12.089l0,0v1.484
			c-0.429-0.514-1.027-0.955-1.992-0.955c-1.278,0-2.479,0.838-2.812,2.391c-0.062-0.672-0.274-1.229-0.674-1.627
			c-0.451-0.451-1.167-0.715-2.156-0.715c-1.083,0-1.776,0.199-2.478,0.514l0.449,1.381c0.586-0.213,1.075-0.348,1.765-0.348
			c0.905,0,1.373,0.416,1.373,1.172v0.105c-0.453-0.152-0.919-0.26-1.562-0.26c-1.513,0-2.575,0.645-2.575,2.035v0.02
			c0,1.27,0.987,1.959,2.195,1.959c0.879,0,1.489-0.322,1.93-0.809v0.689h1.75v-2.189c0.365,1.5,1.556,2.309,2.795,2.309
			c0.941,0,1.551-0.439,1.992-1.035v0.918h1.811v-8.703l0,0V21.256L25.325,21.256z M17.015,29.604c0,0.658-0.574,1.117-1.42,1.117
			c-0.586,0-0.988-0.285-0.988-0.77v-0.027c0-0.57,0.476-0.881,1.248-0.881c0.44,0,0.848,0.096,1.158,0.242L17.015,29.604
			L17.015,29.604z M23.539,28.674c0,1.062-0.705,1.764-1.55,1.764c-0.85,0-1.562-0.701-1.562-1.764v-0.021
			c0-1.074,0.714-1.768,1.562-1.768c0.845,0,1.55,0.705,1.55,1.768V28.674z"/>
		<path d="M13.087,27.244v-1.896c-1.07-0.047-1.671,0.525-2.037,1.406v-1.289h-0.307H9.237H6.819v-1.629H5.008v1.629H4.284
			c0.072-0.148,0.141-0.312,0.207-0.494l2.457-6.543H5.063l-1.396,4.352l-1.453-4.352H0.294l2.503,6.414
			c-0.153,0.322-0.319,0.416-0.63,0.416c-0.239,0-0.538-0.107-0.775-0.248l-0.606,1.309c0.463,0.273,0.952,0.439,1.608,0.439
			c0.904,0,1.418-0.338,1.851-1.207v1.465h0.763v3.027c0,1.479,0.75,1.922,1.859,1.922c0.609,0,1.052-0.146,1.428-0.369v-1.455
			c-0.26,0.145-0.561,0.229-0.895,0.229c-0.402,0-0.582-0.201-0.582-0.621V27.02h2.418v4.838h1.812v-2.359
			c0-1.523,0.739-2.252,1.942-2.252L13.087,27.244L13.087,27.244z"/>
		<path d="M31.706,28.818c0-1.812-0.977-3.471-3.109-3.471c-1.861,0-3.16,1.504-3.16,3.326v0.023c0,1.953,1.418,3.303,3.336,3.303
			c1.158,0,2.019-0.453,2.613-1.189l-1.037-0.922c-0.502,0.465-0.941,0.654-1.553,0.654c-0.809,0-1.382-0.428-1.559-1.25h4.443
			C31.692,29.131,31.706,28.963,31.706,28.818z M27.211,28.164c0.146-0.824,0.632-1.361,1.386-1.361c0.76,0,1.236,0.547,1.346,1.361
			H27.211z"/>
	</g>
</g>
</svg>
