<?xml version="1.0" encoding="utf-8"?>
<!-- Generator: Adobe Illustrator 15.1.0, SVG Export Plug-In . SVG Version: 6.00 Build 0)  -->
<!DOCTYPE svg PUBLIC "-//W3C//DTD SVG 1.1//EN" "http://www.w3.org/Graphics/SVG/1.1/DTD/svg11.dtd">
<svg version="1.1" id="Layer_1" xmlns="http://www.w3.org/2000/svg" xmlns:xlink="http://www.w3.org/1999/xlink" x="0px" y="0px"
	 width="32px" height="32px" viewBox="0 0 32 32" enable-background="new 0 0 32 32" xml:space="preserve">
<g>
	<path d="M16,0C7.178,0,0,7.178,0,16c0,8.822,7.178,16,16,16s16-7.178,16-16C32,7.178,24.822,0,16,0z M16,29.814
		C8.383,29.814,2.187,23.617,2.187,16C2.187,8.383,8.383,2.187,16,2.187c7.617,0,13.813,6.197,13.813,13.814
		C29.813,23.617,23.617,29.814,16,29.814z"/>
	<path id="YouTube__x28_alt_x29__1_" fill-rule="evenodd" clip-rule="evenodd" d="M23.548,12.974c0-1.247-1.011-2.257-2.256-2.257
		H10.708c-1.245,0-2.256,1.011-2.256,2.257v6.052c0,1.247,1.011,2.257,2.256,2.257h10.584c1.245,0,2.256-1.01,2.256-2.257V12.974z
		 M14.49,18.554v-5.685l4.311,2.843L14.49,18.554z"/>
</g>
</svg>
